<!DOCTYPE svg PUBLIC "-//W3C//DTD SVG 1.1//EN" "http://www.w3.org/Graphics/SVG/1.1/DTD/svg11.dtd" [
	<!ENTITY ns_flows "http://ns.adobe.com/Flows/1.0/">
]><svg xmlns="http://www.w3.org/2000/svg" width="135" height="135" viewBox="49.25 3.25 135 135" enable-background="new 49.25 3.25 135 135"><path stroke="#6CD1D3" stroke-width="2" stroke-miterlimit="10" d="M116.5 5.5c-35.898 0-65 29.102-65 65s29.102 65 65 65 65-29.102 65-65-29.102-65-65-65zm-1 109c-24.853 0-45-20.147-45-45s20.147-45 45-45 45 20.147 45 45-20.147 45-45 45z" fill="none"/><g fill="#6CD1D3"><path d="M77.576 27.063c-.312-.18-.628-.315-.949-.407s-.645-.123-.974-.095c-.328.029-.653.122-.974.279-.321.157-.638.394-.952.711-.458.463-.762.955-.912 1.474-.15.52-.176 1.037-.077 1.553s.293 1.018.584 1.507c.291.489.641.935 1.048 1.338.408.403.857.748 1.35 1.033.492.286.997.475 1.513.568.517.093 1.034.062 1.552-.094.518-.155 1.005-.465 1.464-.929.338-.341.577-.699.719-1.074.142-.375.203-.756.184-1.145-.019-.389-.112-.77-.279-1.145-.167-.374-.391-.732-.67-1.073l1.472-1.488c.479.539.836 1.113 1.071 1.723.235.61.345 1.23.331 1.859-.014.629-.154 1.247-.421 1.852-.266.605-.661 1.172-1.184 1.7-.644.65-1.338 1.117-2.084 1.4-.747.283-1.5.402-2.262.357-.762-.045-1.508-.241-2.241-.588-.732-.346-1.406-.824-2.022-1.432-.607-.601-1.088-1.265-1.442-1.994-.354-.728-.559-1.473-.612-2.234-.054-.761.055-1.518.326-2.271.271-.753.728-1.456 1.371-2.106.482-.488 1.003-.882 1.561-1.183.558-.3 1.126-.491 1.703-.571.578-.081 1.146-.044 1.707.108.561.153 1.097.434 1.609.843l-1.51 1.524z"/><path d="M92.002 24.504c.126.2.242.326.35.377.107.052.238.029.393-.068l.174-.109.214-.175.71 1.127-.185.206-.242.243-.264.226-.237.17c-.339.213-.662.323-.968.331-.307.007-.599-.134-.876-.425-.131.521-.391 1.004-.78 1.449-.389.444-.806.807-1.251 1.087-.339.214-.691.373-1.058.478-.366.105-.724.144-1.071.117-.348-.026-.678-.131-.989-.313s-.58-.455-.808-.816c-.288-.456-.437-.88-.447-1.272-.01-.392.071-.755.245-1.091.174-.335.41-.647.709-.935.298-.288.61-.56.934-.818.264-.246.524-.466.78-.661s.47-.386.642-.574c.172-.188.281-.379.327-.575.046-.195-.006-.412-.156-.649-.132-.209-.291-.348-.476-.417s-.375-.092-.57-.069c-.195.023-.392.081-.591.173-.199.092-.38.19-.545.294-.464.292-.787.628-.967 1.007-.18.379-.164.781.049 1.205l-1.654 1.042c-.271-.494-.403-.961-.397-1.403.005-.442.105-.856.3-1.245.194-.388.466-.745.815-1.072.349-.326.731-.62 1.147-.882.367-.231.754-.422 1.16-.572.406-.149.806-.229 1.199-.237.393-.008.763.068 1.107.229s.64.437.886.827l2.391 3.79zm-2.949-1.011c-.15.32-.398.613-.745.878s-.683.547-1.009.845c-.156.138-.3.286-.431.441-.132.156-.232.319-.301.488-.069.17-.093.351-.073.544.021.193.097.395.228.604.114.181.263.3.447.356.185.057.374.073.569.05.195-.023.391-.077.588-.162.197-.084.368-.172.513-.263.184-.116.367-.265.55-.446.183-.182.333-.389.449-.622s.183-.477.198-.732c.015-.255-.059-.511-.22-.768l-.763-1.213z"/><path d="M92.677 16.394l1.766-.561.368 1.157.049-.016c.077-.249.17-.484.279-.708s.246-.426.41-.608c.164-.182.366-.349.605-.502.239-.152.528-.283.866-.39.512-.163 1.025-.202 1.538-.117.513.084.937.333 1.271.746.18-.529.438-.982.774-1.36.336-.378.814-.666 1.436-.863.894-.284 1.657-.29 2.289-.019.632.271 1.108.91 1.427 1.917l1.821 5.737-1.864.592-1.541-4.853c-.105-.332-.212-.631-.321-.897-.108-.267-.246-.482-.412-.647-.167-.165-.371-.269-.612-.31-.241-.042-.542-.005-.901.109-.632.201-1.029.539-1.19 1.015s-.129 1.067.095 1.774l1.546 4.869-1.864.592-1.693-5.335c-.184-.579-.429-.981-.735-1.208-.306-.227-.743-.251-1.309-.071-.24.076-.456.198-.649.365-.193.167-.345.369-.456.604s-.176.504-.194.805c-.019.301.026.623.135.965l1.566 4.933-1.864.592-2.636-8.307z"/><path d="M109.735 8.611l1.954-.088.201 4.446.034-.001c.127-.219.285-.418.471-.595s.395-.33.624-.458c.229-.128.47-.229.725-.303.254-.073.507-.116.758-.127.697-.031 1.311.062 1.841.28.531.218.978.53 1.339.935.361.406.641.886.838 1.439.197.554.309 1.151.338 1.791.027.584-.025 1.155-.154 1.712s-.342 1.053-.637 1.488c-.295.436-.678.79-1.146 1.064-.468.274-1.028.426-1.679.456-.297.014-.598.007-.902-.018-.305-.026-.597-.089-.876-.188s-.534-.234-.765-.404c-.231-.169-.427-.397-.589-.682l-.034.001.054 1.196-1.851.083-.544-12.027zm7.167 7.372c-.018-.393-.086-.772-.206-1.138-.12-.366-.289-.688-.507-.964-.219-.277-.486-.496-.802-.656s-.675-.231-1.074-.213c-.823.037-1.43.346-1.821.926-.392.581-.566 1.336-.524 2.268.02.438.092.843.218 1.214.125.372.303.687.532.946.229.26.499.461.809.605.31.144.665.207 1.064.188.446-.021.818-.127 1.119-.321.3-.193.543-.438.731-.733.187-.295.315-.627.384-.996.069-.368.095-.744.077-1.126z"/><path d="M122.14 11.889l1.821.226-.208 1.673.034.004c.086-.228.225-.442.417-.645s.416-.381.672-.537c.255-.155.532-.271.83-.347.297-.076.593-.096.889-.06.227.028.382.053.466.075l.26.066-.229 1.84-.41-.11-.414-.077c-.329-.041-.646-.015-.951.077s-.582.25-.828.475c-.247.224-.456.513-.626.865-.171.353-.286.769-.346 1.249l-.511 4.116-1.94-.241 1.074-8.649z"/><path d="M129.303 13.006l1.904.444-1.98 8.488-1.904-.444 1.98-8.488zm.755-3.235l1.904.445-.413 1.773-1.904-.444.413-1.774z"/><path d="M139.406 25.559l-1.719-.69.439-1.095-.031-.013c-.434.371-.924.565-1.473.581-.548.016-1.083-.081-1.603-.29-.647-.26-1.167-.599-1.561-1.017-.393-.418-.671-.884-.834-1.398s-.219-1.066-.166-1.657c.052-.59.199-1.188.442-1.793.294-.73.647-1.32 1.063-1.771.415-.451.858-.781 1.331-.991s.956-.31 1.451-.299c.494.011.965.106 1.41.285.255.102.506.23.752.384.246.153.471.332.673.534s.375.426.517.67c.142.245.238.504.288.779l.031.013 1.659-4.13 1.814.729-4.483 11.169zm-4.745-6.503c-.139.344-.229.702-.273 1.071-.044.37-.025.723.056 1.058.081.335.233.639.457.91.224.272.532.486.925.644.403.162.784.218 1.143.168.359-.05.686-.173.98-.37.295-.196.555-.446.781-.749.227-.302.411-.631.554-.986.36-.897.437-1.678.229-2.343-.207-.665-.661-1.138-1.361-1.419-.425-.17-.817-.229-1.179-.173-.36.055-.689.183-.986.385-.297.202-.555.461-.774.779-.223.319-.405.66-.552 1.025z"/><path d="M148.731 31.026c-.739 1.087-1.601 1.687-2.584 1.801-.982.113-2.056-.226-3.219-1.018-.368-.25-.715-.541-1.037-.869-.323-.329-.578-.686-.766-1.071s-.287-.793-.299-1.223c-.012-.43.105-.867.353-1.311l1.616 1.1c-.104.255-.147.491-.129.708.02.217.079.417.182.603.103.185.24.353.413.505.174.151.364.298.572.44.652.444 1.237.61 1.755.5.518-.11.979-.463 1.384-1.057l.749-1.102-.028-.019c-.499.245-1.021.346-1.564.302s-1.043-.22-1.497-.529c-.587-.399-1.018-.838-1.293-1.318-.275-.479-.429-.985-.461-1.517-.033-.532.044-1.067.231-1.606.187-.539.457-1.069.812-1.589.328-.483.717-.892 1.165-1.226s.927-.569 1.436-.707c.508-.137 1.034-.163 1.578-.078.544.084 1.076.304 1.596.657.464.315.824.7 1.082 1.154s.353.957.282 1.507l.028.02.673-.99 1.617 1.1-4.647 6.833zm-2.991-3.319c.359.245.713.38 1.062.406.348.026.681-.026.998-.157s.614-.323.891-.577c.276-.253.519-.534.728-.84s.373-.63.493-.97c.12-.339.179-.674.174-1.003-.004-.329-.087-.644-.249-.945-.162-.3-.418-.57-.768-.808-.359-.245-.713-.376-1.06-.395-.348-.019-.677.039-.989.173s-.605.33-.877.587c-.271.257-.508.534-.71.832-.203.297-.362.613-.479.948s-.174.667-.17.996c.005.329.08.646.227.949.146.305.389.572.729.804z"/><path d="M154.147 31.417c-.243.234-.444.496-.603.784-.16.288-.257.584-.291.888-.035.304 0 .611.104.923.105.312.301.616.587.912.396.412.804.659 1.22.742.416.083.857.019 1.324-.193l1.286 1.333c-.411.254-.838.418-1.279.495-.441.076-.877.075-1.305-.005s-.842-.233-1.24-.46c-.398-.228-.765-.514-1.098-.859-.484-.502-.832-1.025-1.044-1.568-.211-.543-.3-1.089-.267-1.637.033-.549.187-1.085.46-1.612.273-.526.653-1.023 1.139-1.491.445-.429.938-.765 1.477-1.007.54-.242 1.09-.375 1.651-.4.562-.025 1.113.066 1.657.273.543.207 1.045.549 1.505 1.027.484.502.815 1.052.994 1.65s.226 1.193.14 1.784-.292 1.159-.617 1.703c-.326.545-.752 1.015-1.276 1.409l-4.524-4.691zm4.078 2.407c.202-.228.367-.478.494-.75.127-.273.2-.55.219-.83s-.02-.562-.112-.845c-.094-.283-.256-.544-.485-.783-.238-.247-.497-.431-.776-.55-.28-.12-.563-.18-.853-.179s-.575.055-.861.163c-.285.109-.55.272-.792.49l3.166 3.284z"/></g><path d="M55.875 70.5c0 33.344 27.031 60.375 60.375 60.375s60.375-27.031 60.375-60.375" fill="none"/><path fill="#6CD1D3" d="M76.734 99.029l2.032 2.163-4.596 8.875.023.024 9.087-4.094 2.009 2.139-8.776 8.242-1.374-1.462 6.772-6.361-.023-.024-9.058 3.928-1.189-1.267 4.486-8.794-.023-.025-6.772 6.361-1.374-1.463 8.776-8.242z"/><path fill="#6CD1D3" d="M87.098 121.285c-.13.197-.197.354-.202.474-.004.118.069.227.219.326l.169.111.244.121-.734 1.111-.26-.081-.316-.118-.309-.144-.249-.144c-.329-.218-.557-.463-.686-.736-.129-.274-.118-.597.033-.969-.523.099-1.063.065-1.621-.101s-1.052-.393-1.483-.677c-.329-.218-.613-.47-.854-.757-.241-.288-.419-.594-.534-.919-.115-.326-.152-.667-.112-1.024s.179-.714.415-1.07c.297-.45.621-.762.971-.935s.711-.25 1.084-.233c.373.018.749.101 1.128.251.379.149.75.317 1.113.503.328.136.63.278.909.429.278.15.537.264.775.341s.456.096.65.056.37-.177.524-.411c.136-.206.199-.407.187-.604-.012-.196-.067-.378-.166-.544-.099-.166-.23-.32-.393-.462-.163-.141-.324-.264-.483-.369-.45-.298-.883-.449-1.297-.453-.415-.005-.771.178-1.069.547l-1.604-1.061c.338-.45.708-.765 1.109-.944s.816-.262 1.246-.248c.428.014.86.11 1.294.289.434.18.853.402 1.256.669.356.235.683.506.98.81.297.305.529.633.694.984s.244.717.236 1.096-.139.761-.393 1.145l-2.471 3.741zm-.265-3.085c-.35-.002-.713-.104-1.091-.308-.378-.202-.768-.389-1.167-.559-.188-.083-.378-.151-.571-.206-.194-.054-.381-.076-.562-.067-.181.009-.354.062-.521.161s-.318.251-.454.458c-.118.178-.166.362-.143.552.022.19.083.368.182.535.099.166.226.32.38.464.155.143.303.261.443.354.178.117.386.222.624.311.237.09.484.139.742.147.257.008.504-.034.741-.127.236-.094.439-.267.606-.52l.791-1.195z"/><path fill="#6CD1D3" d="M91.883 116.141l1.312.617 1.112-2.365 1.74.817-1.112 2.366 1.572.738-.61 1.297-1.572-.738-1.98 4.212c-.086.183-.153.344-.2.483s-.064.268-.051.386c.013.118.064.226.155.324.09.099.232.193.425.284l.37.165c.125.052.255.092.391.118l-.631 1.343-.593-.204s-.386-.145-.579-.235c-.458-.215-.806-.432-1.045-.649s-.398-.448-.477-.69c-.079-.242-.086-.503-.023-.783.063-.281.167-.587.31-.917l2.188-4.654-1.312-.617.61-1.298z"/><path fill="#6CD1D3" d="M98.685 115.712l1.841.552-1.283 4.281.033.009c.339-.309.77-.522 1.292-.642.522-.119 1.059-.097 1.608.067.915.274 1.566.728 1.952 1.359.385.632.437 1.422.152 2.369l-1.718 5.734-1.841-.552 1.573-5.249c.175-.664.178-1.182.008-1.556-.17-.374-.529-.643-1.079-.808-.312-.094-.609-.12-.891-.082-.282.039-.539.133-.771.28s-.437.342-.614.581c-.178.24-.312.512-.402.812l-1.476 4.927-1.841-.552 3.457-11.53z"/><path fill="#6CD1D3" d="M107.994 126.458c-.036.335-.023.664.038.987s.175.612.34.867c.165.255.385.468.661.639.275.172.615.278 1.017.321.559.06 1.021-.012 1.388-.216s.66-.537.879-1l1.811.194c-.151.459-.369.859-.654 1.202-.286.342-.615.621-.988.835-.374.215-.783.363-1.227.445-.444.082-.901.099-1.37.048-.682-.073-1.273-.249-1.775-.529-.501-.279-.913-.641-1.232-1.082-.32-.44-.542-.951-.667-1.529-.125-.579-.151-1.203-.079-1.874.066-.614.226-1.188.481-1.721.254-.532.586-.988.995-1.369.408-.38.882-.665 1.423-.856.541-.19 1.135-.251 1.783-.182.682.073 1.278.281 1.79.624s.921.769 1.229 1.276c.307.508.509 1.075.606 1.701.097.627.071 1.261-.077 1.9l-6.372-.681zm4.594-.78c.01-.304-.023-.602-.1-.893-.076-.29-.195-.549-.357-.775-.163-.227-.368-.418-.617-.575-.249-.156-.535-.252-.859-.287-.335-.036-.646-.01-.933.078-.287.088-.539.225-.756.411-.218.186-.4.412-.547.679-.147.267-.244.562-.29.885l4.459.477z"/><path fill="#6CD1D3" d="M116.3 122.539l1.807-.221.147 1.206.05-.007c.119-.229.252-.443.398-.643.145-.199.312-.372.506-.521.191-.147.416-.274.676-.38.258-.104.561-.179.906-.221.525-.063 1.027-.006 1.508.173.48.18.846.503 1.096.971.268-.485.6-.883.992-1.191.393-.308.906-.501 1.543-.578.916-.112 1.654.024 2.217.409.561.384.906 1.101 1.035 2.149l.729 5.976-1.908.233-.617-5.056c-.043-.346-.092-.659-.148-.941-.057-.281-.152-.52-.283-.713s-.309-.333-.535-.419c-.225-.086-.521-.106-.891-.062-.646.079-1.092.337-1.332.774-.242.437-.316 1.023-.227 1.76l.617 5.072-1.908.232-.678-5.554c-.072-.603-.236-1.044-.492-1.325-.254-.28-.672-.385-1.252-.314-.246.03-.477.109-.693.238-.217.128-.4.298-.551.508-.148.211-.26.463-.332.755s-.086.616-.043.973l.627 5.139-1.908.233-1.056-8.655z"/><path fill="#6CD1D3" d="M139.891 124.082c.082.222.169.369.263.442.093.073.224.079.393.017l.189-.07.241-.125.462 1.25-.219.162-.282.185-.299.164-.264.115c-.369.137-.702.176-.999.117-.297-.058-.551-.258-.761-.6-.23.48-.577.896-1.041 1.247-.463.351-.938.616-1.423.795-.369.136-.741.217-1.115.241-.375.024-.727-.014-1.058-.113-.33-.1-.627-.271-.891-.516-.265-.244-.47-.566-.618-.968-.187-.506-.246-.951-.179-1.336.067-.384.219-.722.453-1.012s.524-.544.869-.762c.346-.217.7-.417 1.064-.6.303-.184.598-.343.884-.479.285-.136.529-.276.733-.424.203-.146.346-.311.43-.491.083-.181.076-.402-.021-.666-.086-.231-.211-.401-.377-.508-.165-.107-.344-.17-.536-.188-.193-.019-.395-.004-.604.043-.21.048-.405.104-.584.171-.506.187-.884.446-1.133.777-.249.332-.313.728-.191 1.186l-1.804.666c-.163-.539-.198-1.023-.104-1.453.093-.43.271-.813.536-1.151.265-.337.598-.628.999-.872s.829-.449 1.282-.617c.4-.147.812-.251 1.233-.312.421-.06.822-.052 1.204.023.381.075.722.228 1.022.458s.531.562.69.994l1.556 4.21zm-2.645-1.612c-.208.281-.505.514-.893.698-.387.185-.768.389-1.141.609-.179.103-.347.215-.504.339-.158.125-.287.263-.387.413-.101.15-.16.322-.179.515-.019.193.015.405.101.638.074.2.194.348.36.441.167.095.347.151.539.17s.393.008.6-.032c.206-.041.389-.09.547-.148.2-.074.407-.18.62-.318.212-.139.397-.31.557-.512s.271-.426.336-.672.045-.512-.06-.796l-.496-1.345z"/><path fill="#6CD1D3" d="M138.572 117.177l1.273-.693-1.25-2.295 1.688-.92 1.251 2.295 1.525-.83.686 1.259-1.525.83 2.226 4.087c.098.178.188.327.272.447.085.12.179.21.281.27s.221.082.354.066c.133-.015.293-.073.48-.175l.352-.201c.115-.069.225-.151.327-.245l.71 1.303-.516.357c-.167.117-.345.227-.532.328-.444.242-.825.396-1.143.459-.316.064-.597.057-.838-.023-.242-.079-.457-.228-.646-.445s-.374-.48-.557-.791l-2.46-4.517-1.273.693-.685-1.259z"/><path fill="#6CD1D3" d="M142.387 111.179l1.595-1.073 1.017 1.511-1.595 1.073-1.017-1.511zm1.854 2.756l1.595-1.073 4.867 7.233-1.595 1.073-4.867-7.233z"/><path fill="#6CD1D3" d="M153.915 110.054c-.415-.353-.847-.517-1.294-.489-.448.026-.875.218-1.28.574-.186.163-.356.369-.512.618s-.245.538-.271.867c-.025.328.038.699.19 1.111.153.412.448.867.886 1.365.237.271.507.513.808.728s.613.366.938.455c.325.088.654.102.989.04.334-.062.657-.23.971-.505.422-.371.655-.809.699-1.312.045-.503-.107-1.021-.455-1.553l1.444-1.269c.614.972.864 1.908.75 2.809-.113.9-.593 1.722-1.438 2.464-.515.452-1.045.765-1.59.937-.544.172-1.084.228-1.617.165-.534-.062-1.052-.239-1.555-.531-.503-.291-.966-.678-1.39-1.159-.43-.489-.767-1.009-1.01-1.559-.244-.549-.369-1.101-.377-1.655-.009-.554.108-1.098.35-1.632.242-.534.633-1.039 1.174-1.514.38-.334.783-.603 1.211-.806.427-.203.859-.325 1.296-.364.437-.04.869.014 1.298.161s.838.408 1.228.784l-1.443 1.27z"/><path fill="#6CD1D3" d="M159.972 108.012c.474.308.914.388 1.322.239.407-.148.772-.425 1.097-.828.112-.14.23-.309.353-.506s.216-.399.281-.606.079-.408.042-.604c-.037-.195-.156-.366-.355-.513-.2-.146-.414-.203-.643-.17s-.463.123-.702.269c-.24.146-.492.33-.756.551l-.814.665c-.287.231-.578.44-.873.629s-.601.325-.915.412c-.313.086-.637.098-.968.033-.33-.063-.667-.232-1.009-.507-.368-.296-.604-.634-.71-1.015-.106-.38-.125-.77-.057-1.169s.208-.792.417-1.179c.21-.387.438-.733.685-1.041.281-.351.588-.655.919-.916.331-.26.685-.452 1.059-.577s.764-.165 1.168-.122c.404.044.812.195 1.225.454l-1.256 1.564c-.416-.218-.789-.247-1.119-.087s-.629.406-.896.739c-.085.105-.176.237-.274.396-.099.159-.175.321-.229.487-.055.166-.07.329-.049.491.021.161.107.302.256.422.185.147.385.203.601.167.217-.035.445-.127.686-.273.24-.147.492-.331.757-.553l.827-.681c.28-.223.57-.431.87-.625.299-.193.606-.333.921-.42.315-.087.638-.103.968-.048.33.056.662.218.995.484.403.324.671.69.804 1.101s.168.832.106 1.268c-.061.435-.196.864-.406 1.287-.211.424-.457.812-.739 1.163-.346.43-.713.789-1.102 1.076-.39.287-.79.485-1.202.595-.413.109-.827.124-1.244.042-.417-.083-.831-.281-1.241-.596l1.2-1.498z"/></svg>