<?xml version="1.0" encoding="UTF-8" standalone="no"?>
<!DOCTYPE svg PUBLIC "-//W3C//DTD SVG 1.1//EN"
 "http://www.w3.org/Graphics/SVG/1.1/DTD/svg11.dtd">
<!-- Generated by graphviz version 2.26.3 (20100126.1600)
 -->
<!-- Title: CMEP_Tube Pages: 1 -->
<svg width="845pt" height="1268pt"
 viewBox="0.00 0.00 845.00 1268.00" xmlns="http://www.w3.org/2000/svg" xmlns:xlink="http://www.w3.org/1999/xlink">
<g id="graph1" class="graph" transform="scale(1 1) rotate(0) translate(4 1264)">
<title>CMEP_Tube</title>
<polygon fill="white" stroke="white" points="-4,5 -4,-1264 842,-1264 842,5 -4,5"/>
<!-- A1 -->
<g id="node1" class="node"><title>A1</title>
<text text-anchor="middle" x="170" y="-877.1" font-family="arial" font-size="16.00">A1</text>
</g>
<!-- A2 -->
<g id="node3" class="node"><title>A2</title>
<text text-anchor="middle" x="170" y="-805.1" font-family="arial" font-size="16.00">A2</text>
</g>
<!-- A1&#45;&gt;A2 -->
<g id="A1_A2" class="edge"><title>A1&#45;&gt;A2</title>
<path fill="none" stroke="#9467bd" stroke-width="2" d="M170,-863.831C170,-856.131 170,-846.974 170,-838.417"/>
<polygon fill="#9467bd" stroke="#9467bd" points="173.5,-838.413 170,-828.413 166.5,-838.413 173.5,-838.413"/>
</g>
<!-- A3 -->
<g id="node5" class="node"><title>A3</title>
<text text-anchor="middle" x="115" y="-733.1" font-family="arial" font-size="16.00">A3</text>
</g>
<!-- A2&#45;&gt;A3 -->
<g id="A2_A3" class="edge"><title>A2&#45;&gt;A3</title>
<path fill="none" stroke="#9467bd" stroke-width="2" d="M156.121,-791.831C149.786,-783.539 142.162,-773.557 135.207,-764.453"/>
<polygon fill="#9467bd" stroke="#9467bd" points="137.917,-762.235 129.066,-756.413 132.355,-766.485 137.917,-762.235"/>
</g>
<!-- NA1 -->
<g id="node7" class="node"><title>NA1</title>
<text text-anchor="middle" x="192" y="-733.1" font-family="arial" font-size="16.00">NA1</text>
</g>
<!-- A2&#45;&gt;NA1 -->
<g id="A2_NA1" class="edge"><title>A2&#45;&gt;NA1</title>
<path fill="none" stroke="#9467bd" stroke-width="2" d="M175.552,-791.831C177.93,-784.046 180.764,-774.773 183.403,-766.135"/>
<polygon fill="#9467bd" stroke="#9467bd" points="186.799,-767 186.374,-756.413 180.104,-764.954 186.799,-767"/>
</g>
<!-- A4 -->
<g id="node9" class="node"><title>A4</title>
<text text-anchor="middle" x="137" y="-661.1" font-family="arial" font-size="16.00">A4</text>
</g>
<!-- A3&#45;&gt;A4 -->
<g id="A3_A4" class="edge"><title>A3&#45;&gt;A4</title>
<path fill="none" stroke="#9467bd" stroke-width="2" d="M120.552,-719.831C122.93,-712.046 125.764,-702.773 128.403,-694.135"/>
<polygon fill="#9467bd" stroke="#9467bd" points="131.799,-695 131.374,-684.413 125.104,-692.954 131.799,-695"/>
</g>
<!-- P9 -->
<g id="node11" class="node"><title>P9</title>
<text text-anchor="middle" x="82" y="-373.1" font-family="arial" font-size="16.00">P9</text>
</g>
<!-- A3&#45;&gt;P9 -->
<g id="A3_P9" class="edge"><title>A3&#45;&gt;P9</title>
<path fill="none" stroke="#9467bd" stroke-width="2" d="M108.002,-719.668C98.3147,-692.603 82,-640.167 82,-594 82,-594 82,-594 82,-522 82,-481.876 82,-435.463 82,-406.418"/>
<polygon fill="#9467bd" stroke="#9467bd" points="85.5001,-406.185 82,-396.185 78.5001,-406.185 85.5001,-406.185"/>
</g>
<!-- A7 -->
<g id="node21" class="node"><title>A7</title>
<text text-anchor="middle" x="285" y="-445.1" font-family="arial" font-size="16.00">A7</text>
</g>
<!-- NA1&#45;&gt;A7 -->
<g id="NA1_A7" class="edge"><title>NA1&#45;&gt;A7</title>
<path fill="none" stroke="#17becf" stroke-width="2" d="M191.98,-719.569C192.425,-689.027 195.375,-626.3 211,-576 221.734,-541.445 230.496,-535.094 249,-504 254.388,-494.945 260.644,-485.3 266.414,-476.704"/>
<polygon fill="#17becf" stroke="#17becf" points="269.471,-478.433 272.195,-468.195 263.68,-474.5 269.471,-478.433"/>
</g>
<!-- NA2 -->
<g id="node127" class="node"><title>NA2</title>
<text text-anchor="middle" x="283" y="-661.1" font-family="arial" font-size="16.00">NA2</text>
</g>
<!-- NA1&#45;&gt;NA2 -->
<g id="NA1_NA2" class="edge"><title>NA1&#45;&gt;NA2</title>
<path fill="none" stroke="#17becf" stroke-width="2" d="M214.963,-719.831C226.172,-710.963 239.821,-700.164 251.944,-690.572"/>
<polygon fill="#17becf" stroke="#17becf" points="254.374,-693.112 260.044,-684.163 250.03,-687.623 254.374,-693.112"/>
</g>
<!-- A5 -->
<g id="node13" class="node"><title>A5</title>
<text text-anchor="middle" x="247" y="-589.1" font-family="arial" font-size="16.00">A5</text>
</g>
<!-- A4&#45;&gt;A5 -->
<g id="A4_A5" class="edge"><title>A4&#45;&gt;A5</title>
<path fill="none" stroke="#9467bd" stroke-width="2" d="M164.191,-648.202C178.338,-638.943 195.816,-627.502 211.063,-617.522"/>
<polygon fill="#9467bd" stroke="#9467bd" points="213.29,-620.248 219.741,-611.843 209.457,-614.391 213.29,-620.248"/>
</g>
<!-- P10 -->
<g id="node43" class="node"><title>P10</title>
<text text-anchor="middle" x="213" y="-301.1" font-family="arial" font-size="16.00">P10</text>
</g>
<!-- P9&#45;&gt;P10 -->
<g id="P9_P10" class="edge"><title>P9&#45;&gt;P10</title>
<path fill="none" stroke="#8c564b" stroke-width="2" d="M109.143,-363.082C128.816,-352.269 155.616,-337.539 177.064,-325.751"/>
<polygon fill="#8c564b" stroke="#8c564b" points="178.814,-328.783 185.891,-320.899 175.442,-322.649 178.814,-328.783"/>
</g>
<!-- A6 -->
<g id="node15" class="node"><title>A6</title>
<text text-anchor="middle" x="285" y="-517.1" font-family="arial" font-size="16.00">A6</text>
</g>
<!-- A5&#45;&gt;A6 -->
<g id="A5_A6" class="edge"><title>A5&#45;&gt;A6</title>
<path fill="none" stroke="#9467bd" stroke-width="2" d="M256.589,-575.831C260.832,-567.792 265.912,-558.167 270.596,-549.292"/>
<polygon fill="#9467bd" stroke="#9467bd" points="273.71,-550.891 275.282,-540.413 267.519,-547.623 273.71,-550.891"/>
</g>
<!-- C11 -->
<g id="node17" class="node"><title>C11</title>
<text text-anchor="middle" x="230" y="-373.1" font-family="arial" font-size="16.00">C11</text>
</g>
<!-- A5&#45;&gt;C11 -->
<g id="A5_C11" class="edge"><title>A5&#45;&gt;C11</title>
<path fill="none" stroke="#9467bd" stroke-width="2" d="M245.58,-575.955C242.617,-538.314 235.76,-451.187 232.214,-406.125"/>
<polygon fill="#9467bd" stroke="#9467bd" points="235.702,-405.84 231.428,-396.145 228.724,-406.389 235.702,-405.84"/>
</g>
<!-- E6 -->
<g id="node19" class="node"><title>E6</title>
<text text-anchor="middle" x="539" y="-517.1" font-family="arial" font-size="16.00">E6</text>
</g>
<!-- A5&#45;&gt;E6 -->
<g id="A5_E6" class="edge"><title>A5&#45;&gt;E6</title>
<path fill="none" stroke="#9467bd" stroke-width="2" d="M274.19,-579.459C277.118,-578.179 280.091,-576.995 283,-576 361.021,-549.322 384.477,-557.748 465,-540 476.984,-537.359 490.005,-534.267 501.736,-531.398"/>
<polygon fill="#9467bd" stroke="#9467bd" points="502.784,-534.744 511.654,-528.951 501.107,-527.948 502.784,-534.744"/>
</g>
<!-- A6&#45;&gt;A7 -->
<g id="A6_A7" class="edge"><title>A6&#45;&gt;A7</title>
<path fill="none" stroke="#9467bd" stroke-width="2" d="M285,-503.831C285,-496.131 285,-486.974 285,-478.417"/>
<polygon fill="#9467bd" stroke="#9467bd" points="288.5,-478.413 285,-468.413 281.5,-478.413 288.5,-478.413"/>
</g>
<!-- C10 -->
<g id="node23" class="node"><title>C10</title>
<text text-anchor="middle" x="357" y="-445.1" font-family="arial" font-size="16.00">C10</text>
</g>
<!-- A6&#45;&gt;C10 -->
<g id="A6_C10" class="edge"><title>A6&#45;&gt;C10</title>
<path fill="none" stroke="#9467bd" stroke-width="2" d="M303.169,-503.831C311.715,-495.285 322.056,-484.944 331.38,-475.62"/>
<polygon fill="#9467bd" stroke="#9467bd" points="333.991,-477.959 338.587,-468.413 329.041,-473.009 333.991,-477.959"/>
</g>
<!-- C12 -->
<g id="node41" class="node"><title>C12</title>
<text text-anchor="middle" x="378" y="-301.1" font-family="arial" font-size="16.00">C12</text>
</g>
<!-- C11&#45;&gt;C12 -->
<g id="C11_C12" class="edge"><title>C11&#45;&gt;C12</title>
<path fill="none" stroke="#bcbd22" stroke-width="2" d="M257.145,-364.794C280.854,-353.26 315.464,-336.423 341.576,-323.72"/>
<polygon fill="#bcbd22" stroke="#bcbd22" points="343.315,-326.766 350.776,-319.244 340.253,-320.471 343.315,-326.766"/>
</g>
<!-- C11&#45;&gt;P10 -->
<g id="C11_P10" class="edge"><title>C11&#45;&gt;P10</title>
<path fill="none" stroke="#bcbd22" stroke-width="2" d="M225.71,-359.831C223.892,-352.131 221.73,-342.974 219.709,-334.417"/>
<polygon fill="#bcbd22" stroke="#bcbd22" points="223.052,-333.341 217.348,-324.413 216.239,-334.95 223.052,-333.341"/>
</g>
<!-- E7 -->
<g id="node89" class="node"><title>E7</title>
<text text-anchor="middle" x="539" y="-445.1" font-family="arial" font-size="16.00">E7</text>
</g>
<!-- E6&#45;&gt;E7 -->
<g id="E6_E7" class="edge"><title>E6&#45;&gt;E7</title>
<path fill="none" stroke="#1f77b4" stroke-width="2" d="M539,-503.831C539,-496.131 539,-486.974 539,-478.417"/>
<polygon fill="#1f77b4" stroke="#1f77b4" points="542.5,-478.413 539,-468.413 535.5,-478.413 542.5,-478.413"/>
</g>
<!-- A8 -->
<g id="node25" class="node"><title>A8</title>
<text text-anchor="middle" x="285" y="-301.1" font-family="arial" font-size="16.00">A8</text>
</g>
<!-- A7&#45;&gt;A8 -->
<g id="A7_A8" class="edge"><title>A7&#45;&gt;A8</title>
<path fill="none" stroke="#9467bd" stroke-width="2" d="M285,-431.762C285,-407.201 285,-363.247 285,-334.354"/>
<polygon fill="#9467bd" stroke="#9467bd" points="288.5,-334.09 285,-324.09 281.5,-334.09 288.5,-334.09"/>
</g>
<!-- E9 -->
<g id="node27" class="node"><title>E9</title>
<text text-anchor="middle" x="484" y="-301.1" font-family="arial" font-size="16.00">E9</text>
</g>
<!-- A7&#45;&gt;E9 -->
<g id="A7_E9" class="edge"><title>A7&#45;&gt;E9</title>
<path fill="none" stroke="#9467bd" stroke-width="2" d="M304.929,-431.737C326.037,-412.797 360.709,-382.817 393,-360 410.343,-347.745 430.577,-335.548 447.556,-325.854"/>
<polygon fill="#9467bd" stroke="#9467bd" points="449.626,-328.705 456.615,-320.742 446.186,-322.609 449.626,-328.705"/>
</g>
<!-- C10&#45;&gt;C11 -->
<g id="C10_C11" class="edge"><title>C10&#45;&gt;C11</title>
<path fill="none" stroke="#bcbd22" stroke-width="2" d="M329.755,-434.554C311.173,-424.019 286.362,-409.953 266.133,-398.485"/>
<polygon fill="#bcbd22" stroke="#bcbd22" points="267.625,-395.307 257.2,-393.42 264.173,-401.397 267.625,-395.307"/>
</g>
<!-- A9 -->
<g id="node29" class="node"><title>A9</title>
<text text-anchor="middle" x="285" y="-157.1" font-family="arial" font-size="16.00">A9</text>
</g>
<!-- A8&#45;&gt;A9 -->
<g id="A8_A9" class="edge"><title>A8&#45;&gt;A9</title>
<path fill="none" stroke="#9467bd" stroke-width="2" d="M285,-287.762C285,-263.201 285,-219.247 285,-190.354"/>
<polygon fill="#9467bd" stroke="#9467bd" points="288.5,-190.09 285,-180.09 281.5,-190.09 288.5,-190.09"/>
</g>
<!-- C14 -->
<g id="node31" class="node"><title>C14</title>
<text text-anchor="middle" x="357" y="-157.1" font-family="arial" font-size="16.00">C14</text>
</g>
<!-- A8&#45;&gt;C14 -->
<g id="A8_C14" class="edge"><title>A8&#45;&gt;C14</title>
<path fill="none" stroke="#9467bd" stroke-width="2" d="M294.119,-287.762C306.562,-262.876 328.959,-218.082 343.392,-189.216"/>
<polygon fill="#9467bd" stroke="#9467bd" points="346.614,-190.599 347.955,-180.09 340.353,-187.469 346.614,-190.599"/>
</g>
<!-- P11 -->
<g id="node33" class="node"><title>P11</title>
<text text-anchor="middle" x="213" y="-229.1" font-family="arial" font-size="16.00">P11</text>
</g>
<!-- A8&#45;&gt;P11 -->
<g id="A8_P11" class="edge"><title>A8&#45;&gt;P11</title>
<path fill="none" stroke="#9467bd" stroke-width="2" d="M266.831,-287.831C258.285,-279.285 247.944,-268.944 238.62,-259.62"/>
<polygon fill="#9467bd" stroke="#9467bd" points="240.959,-257.009 231.413,-252.413 236.009,-261.959 240.959,-257.009"/>
</g>
<!-- C15 -->
<g id="node35" class="node"><title>C15</title>
<text text-anchor="middle" x="321" y="-85.1" font-family="arial" font-size="16.00">C15</text>
</g>
<!-- A9&#45;&gt;C15 -->
<g id="A9_C15" class="edge"><title>A9&#45;&gt;C15</title>
<path fill="none" stroke="#9467bd" stroke-width="2" d="M294.084,-143.831C298.061,-135.877 302.815,-126.369 307.214,-117.572"/>
<polygon fill="#9467bd" stroke="#9467bd" points="310.452,-118.923 311.793,-108.413 304.191,-115.792 310.452,-118.923"/>
</g>
<!-- C14&#45;&gt;C15 -->
<g id="C14_C15" class="edge"><title>C14&#45;&gt;C15</title>
<path fill="none" stroke="#bcbd22" stroke-width="2" d="M347.916,-143.831C343.939,-135.877 339.185,-126.369 334.786,-117.572"/>
<polygon fill="#bcbd22" stroke="#bcbd22" points="337.809,-115.792 330.207,-108.413 331.548,-118.923 337.809,-115.792"/>
</g>
<!-- P12 -->
<g id="node140" class="node"><title>P12</title>
<text text-anchor="middle" x="213" y="-157.1" font-family="arial" font-size="16.00">P12</text>
</g>
<!-- P11&#45;&gt;P12 -->
<g id="P11_P12" class="edge"><title>P11&#45;&gt;P12</title>
<path fill="none" stroke="#8c564b" stroke-width="2" d="M213,-215.831C213,-208.131 213,-198.974 213,-190.417"/>
<polygon fill="#8c564b" stroke="#8c564b" points="216.5,-190.413 213,-180.413 209.5,-190.413 216.5,-190.413"/>
</g>
<!-- C16 -->
<g id="node51" class="node"><title>C16</title>
<text text-anchor="middle" x="321" y="-13.1" font-family="arial" font-size="16.00">C16</text>
</g>
<!-- C15&#45;&gt;C16 -->
<g id="C15_C16" class="edge"><title>C15&#45;&gt;C16</title>
<path fill="none" stroke="#bcbd22" stroke-width="2" d="M321,-71.8314C321,-64.131 321,-54.9743 321,-46.4166"/>
<polygon fill="#bcbd22" stroke="#bcbd22" points="324.5,-46.4132 321,-36.4133 317.5,-46.4133 324.5,-46.4132"/>
</g>
<!-- C1 -->
<g id="node36" class="node"><title>C1</title>
<text text-anchor="middle" x="797" y="-1093.1" font-family="arial" font-size="16.00">C1</text>
</g>
<!-- C2 -->
<g id="node38" class="node"><title>C2</title>
<text text-anchor="middle" x="797" y="-1021.1" font-family="arial" font-size="16.00">C2</text>
</g>
<!-- C1&#45;&gt;C2 -->
<g id="C1_C2" class="edge"><title>C1&#45;&gt;C2</title>
<path fill="none" stroke="#bcbd22" stroke-width="2" d="M797,-1079.83C797,-1072.13 797,-1062.97 797,-1054.42"/>
<polygon fill="#bcbd22" stroke="#bcbd22" points="800.5,-1054.41 797,-1044.41 793.5,-1054.41 800.5,-1054.41"/>
</g>
<!-- C3&#45;G5 -->
<g id="node53" class="node"><title>C3&#45;G5</title>
<text text-anchor="middle" x="763" y="-949.1" font-family="arial" font-size="16.00">C3&#45;G5</text>
</g>
<!-- C2&#45;&gt;C3&#45;G5 -->
<g id="C2_C3" class="edge"><title>C2&#45;&gt;C3&#45;G5</title>
<path fill="none" stroke="#bcbd22" stroke-width="2" d="M788.42,-1007.83C784.664,-999.877 780.174,-990.369 776.02,-981.572"/>
<polygon fill="#bcbd22" stroke="#bcbd22" points="779.13,-979.961 771.695,-972.413 772.8,-982.95 779.13,-979.961"/>
</g>
<!-- C13 -->
<g id="node45" class="node"><title>C13</title>
<text text-anchor="middle" x="378" y="-229.1" font-family="arial" font-size="16.00">C13</text>
</g>
<!-- C12&#45;&gt;C13 -->
<g id="C12_C13" class="edge"><title>C12&#45;&gt;C13</title>
<path fill="none" stroke="#bcbd22" stroke-width="2" d="M378,-287.831C378,-280.131 378,-270.974 378,-262.417"/>
<polygon fill="#bcbd22" stroke="#bcbd22" points="381.5,-262.413 378,-252.413 374.5,-262.413 381.5,-262.413"/>
</g>
<!-- F6 -->
<g id="node47" class="node"><title>F6</title>
<text text-anchor="middle" x="526" y="-229.1" font-family="arial" font-size="16.00">F6</text>
</g>
<!-- C12&#45;&gt;F6 -->
<g id="C12_F6" class="edge"><title>C12&#45;&gt;F6</title>
<path fill="none" stroke="#bcbd22" stroke-width="2" d="M405.145,-292.794C428.854,-281.26 463.464,-264.423 489.576,-251.72"/>
<polygon fill="#bcbd22" stroke="#bcbd22" points="491.315,-254.766 498.776,-247.244 488.253,-248.471 491.315,-254.766"/>
</g>
<!-- P10&#45;&gt;P11 -->
<g id="P10_P11" class="edge"><title>P10&#45;&gt;P11</title>
<path fill="none" stroke="#8c564b" stroke-width="2" d="M213,-287.831C213,-280.131 213,-270.974 213,-262.417"/>
<polygon fill="#8c564b" stroke="#8c564b" points="216.5,-262.413 213,-252.413 209.5,-262.413 216.5,-262.413"/>
</g>
<!-- C13&#45;&gt;C14 -->
<g id="C13_C14" class="edge"><title>C13&#45;&gt;C14</title>
<path fill="none" stroke="#bcbd22" stroke-width="2" d="M372.701,-215.831C370.43,-208.046 367.725,-198.773 365.206,-190.135"/>
<polygon fill="#bcbd22" stroke="#bcbd22" points="368.531,-189.033 362.371,-180.413 361.811,-190.993 368.531,-189.033"/>
</g>
<!-- C4 -->
<g id="node55" class="node"><title>C4</title>
<text text-anchor="middle" x="708" y="-877.1" font-family="arial" font-size="16.00">C4</text>
</g>
<!-- C3&#45;G5&#45;&gt;C4 -->
<g id="C3&#45;G5_C4" class="edge"><title>C3&#45;G5&#45;&gt;C4</title>
<path fill="none" stroke="#bcbd22" stroke-width="2" d="M749.121,-935.831C742.786,-927.539 735.162,-917.557 728.207,-908.453"/>
<polygon fill="#bcbd22" stroke="#bcbd22" points="730.917,-906.235 722.066,-900.413 725.355,-910.485 730.917,-906.235"/>
</g>
<!-- G6 -->
<g id="node63" class="node"><title>G6</title>
<text text-anchor="middle" x="738" y="-661.1" font-family="arial" font-size="16.00">G6</text>
</g>
<!-- C3&#45;G5&#45;&gt;G6 -->
<g id="C3&#45;G5_G6" class="edge"><title>C3&#45;G5&#45;&gt;G6</title>
<path fill="none" stroke="#d62728" stroke-width="2" d="M761.705,-935.779C758.865,-896.38 751.723,-800.332 744,-720 743.209,-711.774 742.257,-702.854 741.346,-694.678"/>
<polygon fill="#d62728" stroke="#d62728" points="744.795,-694.022 740.19,-684.48 737.839,-694.811 744.795,-694.022"/>
</g>
<!-- C5 -->
<g id="node57" class="node"><title>C5</title>
<text text-anchor="middle" x="708" y="-805.1" font-family="arial" font-size="16.00">C5</text>
</g>
<!-- C4&#45;&gt;C5 -->
<g id="C4_C5" class="edge"><title>C4&#45;&gt;C5</title>
<path fill="none" stroke="#bcbd22" stroke-width="2" d="M708,-863.831C708,-856.131 708,-846.974 708,-838.417"/>
<polygon fill="#bcbd22" stroke="#bcbd22" points="711.5,-838.413 708,-828.413 704.5,-838.413 711.5,-838.413"/>
</g>
<!-- C6 -->
<g id="node59" class="node"><title>C6</title>
<text text-anchor="middle" x="708" y="-733.1" font-family="arial" font-size="16.00">C6</text>
</g>
<!-- C5&#45;&gt;C6 -->
<g id="C5_C6" class="edge"><title>C5&#45;&gt;C6</title>
<path fill="none" stroke="#bcbd22" stroke-width="2" d="M708,-791.831C708,-784.131 708,-774.974 708,-766.417"/>
<polygon fill="#bcbd22" stroke="#bcbd22" points="711.5,-766.413 708,-756.413 704.5,-766.413 711.5,-766.413"/>
</g>
<!-- C7 -->
<g id="node61" class="node"><title>C7</title>
<text text-anchor="middle" x="666" y="-661.1" font-family="arial" font-size="16.00">C7</text>
</g>
<!-- C6&#45;&gt;C7 -->
<g id="C6_C7" class="edge"><title>C6&#45;&gt;C7</title>
<path fill="none" stroke="#bcbd22" stroke-width="2" d="M697.402,-719.831C692.712,-711.792 687.097,-702.167 681.92,-693.292"/>
<polygon fill="#bcbd22" stroke="#bcbd22" points="684.803,-691.288 676.741,-684.413 678.757,-694.815 684.803,-691.288"/>
</g>
<!-- C6&#45;&gt;G6 -->
<g id="C6_G6" class="edge"><title>C6&#45;&gt;G6</title>
<path fill="none" stroke="#bcbd22" stroke-width="2" d="M715.57,-719.831C718.849,-711.962 722.762,-702.571 726.394,-693.853"/>
<polygon fill="#bcbd22" stroke="#bcbd22" points="729.712,-694.99 730.328,-684.413 723.251,-692.298 729.712,-694.99"/>
</g>
<!-- C8 -->
<g id="node65" class="node"><title>C8</title>
<text text-anchor="middle" x="429" y="-589.1" font-family="arial" font-size="16.00">C8</text>
</g>
<!-- C7&#45;&gt;C8 -->
<g id="C7_C8" class="edge"><title>C7&#45;&gt;C8</title>
<path fill="none" stroke="#bcbd22" stroke-width="2" d="M638.738,-651.659C635.824,-650.34 632.874,-649.092 630,-648 600.121,-636.649 515.544,-615.197 466.14,-603.026"/>
<polygon fill="#bcbd22" stroke="#bcbd22" points="466.71,-599.562 456.164,-600.577 465.041,-606.361 466.71,-599.562"/>
</g>
<!-- F5 -->
<g id="node67" class="node"><title>F5</title>
<text text-anchor="middle" x="611" y="-589.1" font-family="arial" font-size="16.00">F5</text>
</g>
<!-- C7&#45;&gt;F5 -->
<g id="C7_F5" class="edge"><title>C7&#45;&gt;F5</title>
<path fill="none" stroke="#bcbd22" stroke-width="2" d="M652.121,-647.831C645.786,-639.539 638.162,-629.557 631.207,-620.453"/>
<polygon fill="#bcbd22" stroke="#bcbd22" points="633.917,-618.235 625.066,-612.413 628.355,-622.485 633.917,-618.235"/>
</g>
<!-- G7 -->
<g id="node117" class="node"><title>G7</title>
<text text-anchor="middle" x="738" y="-589.1" font-family="arial" font-size="16.00">G7</text>
</g>
<!-- G6&#45;&gt;G7 -->
<g id="G6_G7" class="edge"><title>G6&#45;&gt;G7</title>
<path fill="none" stroke="#d62728" stroke-width="2" d="M738,-647.831C738,-640.131 738,-630.974 738,-622.417"/>
<polygon fill="#d62728" stroke="#d62728" points="741.5,-622.413 738,-612.413 734.5,-622.413 741.5,-622.413"/>
</g>
<!-- C9 -->
<g id="node69" class="node"><title>C9</title>
<text text-anchor="middle" x="429" y="-517.1" font-family="arial" font-size="16.00">C9</text>
</g>
<!-- C8&#45;&gt;C9 -->
<g id="C8_C9" class="edge"><title>C8&#45;&gt;C9</title>
<path fill="none" stroke="#bcbd22" stroke-width="2" d="M429,-575.831C429,-568.131 429,-558.974 429,-550.417"/>
<polygon fill="#bcbd22" stroke="#bcbd22" points="432.5,-550.413 429,-540.413 425.5,-550.413 432.5,-550.413"/>
</g>
<!-- F5&#45;&gt;F6 -->
<g id="F5_F6" class="edge"><title>F5&#45;&gt;F6</title>
<path fill="none" stroke="#2ca02c" stroke-width="2" d="M609.135,-575.837C606.499,-548.55 602,-495.338 602,-450 602,-450 602,-450 602,-378 602,-332.656 572.162,-287.6 549.877,-260.273"/>
<polygon fill="#2ca02c" stroke="#2ca02c" points="552.359,-257.786 543.246,-252.381 546.999,-262.289 552.359,-257.786"/>
</g>
<!-- C9&#45;&gt;C10 -->
<g id="C9_C10" class="edge"><title>C9&#45;&gt;C10</title>
<path fill="none" stroke="#bcbd22" stroke-width="2" d="M410.831,-503.831C402.285,-495.285 391.944,-484.944 382.62,-475.62"/>
<polygon fill="#bcbd22" stroke="#bcbd22" points="384.959,-473.009 375.413,-468.413 380.009,-477.959 384.959,-473.009"/>
</g>
<!-- E1 -->
<g id="node71" class="node"><title>E1</title>
<text text-anchor="middle" x="448" y="-1237.1" font-family="arial" font-size="16.00">E1</text>
</g>
<!-- E2&#45;G2 -->
<g id="node73" class="node"><title>E2&#45;G2</title>
<text text-anchor="middle" x="556" y="-1165.1" font-family="arial" font-size="16.00">E2&#45;G2</text>
</g>
<!-- E1&#45;&gt;E2&#45;G2 -->
<g id="E1_E2" class="edge"><title>E1&#45;&gt;E2&#45;G2</title>
<path fill="none" stroke="#1f77b4" stroke-width="2" d="M475.253,-1223.83C488.939,-1214.71 505.691,-1203.54 520.383,-1193.74"/>
<polygon fill="#1f77b4" stroke="#1f77b4" points="522.377,-1196.62 528.756,-1188.16 518.494,-1190.8 522.377,-1196.62"/>
</g>
<!-- NA4 -->
<g id="node75" class="node"><title>NA4</title>
<text text-anchor="middle" x="357" y="-517.1" font-family="arial" font-size="16.00">NA4</text>
</g>
<!-- E1&#45;&gt;NA4 -->
<g id="E1_NA4" class="edge"><title>E1&#45;&gt;NA4</title>
<path fill="none" stroke="#1f77b4" stroke-width="2" d="M431.577,-1223.98C409.776,-1198.11 374,-1148.03 374,-1098 374,-1098 374,-1098 374,-666 374,-625.597 367.318,-579.255 362.333,-550.301"/>
<polygon fill="#1f77b4" stroke="#1f77b4" points="365.717,-549.339 360.522,-540.104 358.824,-550.562 365.717,-549.339"/>
</g>
<!-- E2&#45;G2&#45;&gt;C3&#45;G5 -->
<g id="E2&#45;G2_C3" class="edge"><title>E2&#45;G2&#45;&gt;C3&#45;G5</title>
<path fill="none" stroke="#1f77b4" stroke-width="2" d="M587.302,-1153.16C624.115,-1131.97 685.008,-1092.44 723,-1044 737.58,-1025.41 748.074,-1000.67 754.645,-981.834"/>
<polygon fill="#1f77b4" stroke="#1f77b4" points="757.974,-982.914 757.809,-972.32 751.332,-980.705 757.974,-982.914"/>
</g>
<!-- E3 -->
<g id="node78" class="node"><title>E3</title>
<text text-anchor="middle" x="537" y="-733.1" font-family="arial" font-size="16.00">E3</text>
</g>
<!-- E2&#45;G2&#45;&gt;E3 -->
<g id="E2&#45;G2_E3" class="edge"><title>E2&#45;G2&#45;&gt;E3</title>
<path fill="none" stroke="#1f77b4" stroke-width="2" d="M547.941,-1151.77C536.787,-1124.82 518,-1072.54 518,-1026 518,-1026 518,-1026 518,-882 518,-841.528 525.468,-795.204 531.04,-766.272"/>
<polygon fill="#1f77b4" stroke="#1f77b4" points="534.548,-766.575 533.063,-756.084 527.682,-765.211 534.548,-766.575"/>
</g>
<!-- G3 -->
<g id="node106" class="node"><title>G3</title>
<text text-anchor="middle" x="594" y="-1093.1" font-family="arial" font-size="16.00">G3</text>
</g>
<!-- E2&#45;G2&#45;&gt;G3 -->
<g id="E2&#45;G2_G3" class="edge"><title>E2&#45;G2&#45;&gt;G3</title>
<path fill="none" stroke="#d62728" stroke-width="2" d="M565.589,-1151.83C569.832,-1143.79 574.912,-1134.17 579.596,-1125.29"/>
<polygon fill="#d62728" stroke="#d62728" points="582.71,-1126.89 584.282,-1116.41 576.519,-1123.62 582.71,-1126.89"/>
</g>
<!-- NA5 -->
<g id="node132" class="node"><title>NA5</title>
<text text-anchor="middle" x="429" y="-445.1" font-family="arial" font-size="16.00">NA5</text>
</g>
<!-- NA4&#45;&gt;NA5 -->
<g id="NA4_NA5" class="edge"><title>NA4&#45;&gt;NA5</title>
<path fill="none" stroke="#17becf" stroke-width="2" d="M375.169,-503.831C383.715,-495.285 394.056,-484.944 403.38,-475.62"/>
<polygon fill="#17becf" stroke="#17becf" points="405.991,-477.959 410.587,-468.413 401.041,-473.009 405.991,-477.959"/>
</g>
<!-- CN1 -->
<g id="node80" class="node"><title>CN1</title>
<text text-anchor="middle" x="666" y="-517.1" font-family="arial" font-size="16.00">CN1</text>
</g>
<!-- E3&#45;&gt;CN1 -->
<g id="E3_CN1" class="edge"><title>E3&#45;&gt;CN1</title>
<path fill="none" stroke="#1f77b4" stroke-width="2" d="M536.541,-719.954C536.994,-700.071 540.683,-668.236 558,-648 585.743,-615.581 619.602,-644.711 647,-612 661.362,-594.853 665.696,-569.528 666.676,-550.107"/>
<polygon fill="#1f77b4" stroke="#1f77b4" points="670.177,-550.095 666.918,-540.014 663.179,-549.928 670.177,-550.095"/>
</g>
<!-- E4 -->
<g id="node82" class="node"><title>E4</title>
<text text-anchor="middle" x="594" y="-661.1" font-family="arial" font-size="16.00">E4</text>
</g>
<!-- E3&#45;&gt;E4 -->
<g id="E3_E4" class="edge"><title>E3&#45;&gt;E4</title>
<path fill="none" stroke="#1f77b4" stroke-width="2" d="M551.384,-719.831C557.949,-711.539 565.851,-701.557 573.058,-692.453"/>
<polygon fill="#1f77b4" stroke="#1f77b4" points="575.96,-694.426 579.423,-684.413 570.472,-690.081 575.96,-694.426"/>
</g>
<!-- F4 -->
<g id="node84" class="node"><title>F4</title>
<text text-anchor="middle" x="484" y="-661.1" font-family="arial" font-size="16.00">F4</text>
</g>
<!-- E3&#45;&gt;F4 -->
<g id="E3_F4" class="edge"><title>E3&#45;&gt;F4</title>
<path fill="none" stroke="#1f77b4" stroke-width="2" d="M523.626,-719.831C517.584,-711.623 510.324,-701.761 503.678,-692.732"/>
<polygon fill="#1f77b4" stroke="#1f77b4" points="506.301,-690.392 497.554,-684.413 500.664,-694.542 506.301,-690.392"/>
</g>
<!-- E5 -->
<g id="node86" class="node"><title>E5</title>
<text text-anchor="middle" x="539" y="-589.1" font-family="arial" font-size="16.00">E5</text>
</g>
<!-- E4&#45;&gt;E5 -->
<g id="E4_E5" class="edge"><title>E4&#45;&gt;E5</title>
<path fill="none" stroke="#1f77b4" stroke-width="2" d="M580.121,-647.831C573.786,-639.539 566.162,-629.557 559.207,-620.453"/>
<polygon fill="#1f77b4" stroke="#1f77b4" points="561.917,-618.235 553.066,-612.413 556.355,-622.485 561.917,-618.235"/>
</g>
<!-- F4&#45;&gt;E9 -->
<g id="F4_E9" class="edge"><title>F4&#45;&gt;E9</title>
<path fill="none" stroke="#2ca02c" stroke-width="2" d="M484,-647.815C484,-620.498 484,-567.25 484,-522 484,-522 484,-522 484,-450 484,-409.876 484,-363.463 484,-334.418"/>
<polygon fill="#2ca02c" stroke="#2ca02c" points="487.5,-334.185 484,-324.185 480.5,-334.185 487.5,-334.185"/>
</g>
<!-- F4&#45;&gt;F5 -->
<g id="F4_F5" class="edge"><title>F4&#45;&gt;F5</title>
<path fill="none" stroke="#2ca02c" stroke-width="2" d="M511.245,-650.554C529.827,-640.019 554.638,-625.953 574.867,-614.485"/>
<polygon fill="#2ca02c" stroke="#2ca02c" points="576.827,-617.397 583.8,-609.42 573.375,-611.307 576.827,-617.397"/>
</g>
<!-- E5&#45;&gt;E6 -->
<g id="E5_E6" class="edge"><title>E5&#45;&gt;E6</title>
<path fill="none" stroke="#1f77b4" stroke-width="2" d="M539,-575.831C539,-568.131 539,-558.974 539,-550.417"/>
<polygon fill="#1f77b4" stroke="#1f77b4" points="542.5,-550.413 539,-540.413 535.5,-550.413 542.5,-550.413"/>
</g>
<!-- E8 -->
<g id="node91" class="node"><title>E8</title>
<text text-anchor="middle" x="539" y="-373.1" font-family="arial" font-size="16.00">E8</text>
</g>
<!-- E7&#45;&gt;E8 -->
<g id="E7_E8" class="edge"><title>E7&#45;&gt;E8</title>
<path fill="none" stroke="#1f77b4" stroke-width="2" d="M539,-431.831C539,-424.131 539,-414.974 539,-406.417"/>
<polygon fill="#1f77b4" stroke="#1f77b4" points="542.5,-406.413 539,-396.413 535.5,-406.413 542.5,-406.413"/>
</g>
<!-- E8&#45;&gt;E9 -->
<g id="E8_E9" class="edge"><title>E8&#45;&gt;E9</title>
<path fill="none" stroke="#1f77b4" stroke-width="2" d="M525.121,-359.831C518.786,-351.539 511.162,-341.557 504.207,-332.453"/>
<polygon fill="#1f77b4" stroke="#1f77b4" points="506.917,-330.235 498.066,-324.413 501.355,-334.485 506.917,-330.235"/>
</g>
<!-- F1 -->
<g id="node93" class="node"><title>F1</title>
<text text-anchor="middle" x="463" y="-877.1" font-family="arial" font-size="16.00">F1</text>
</g>
<!-- F2 -->
<g id="node95" class="node"><title>F2</title>
<text text-anchor="middle" x="463" y="-805.1" font-family="arial" font-size="16.00">F2</text>
</g>
<!-- F1&#45;&gt;F2 -->
<g id="F1_F2" class="edge"><title>F1&#45;&gt;F2</title>
<path fill="none" stroke="#2ca02c" stroke-width="2" d="M463,-863.831C463,-856.131 463,-846.974 463,-838.417"/>
<polygon fill="#2ca02c" stroke="#2ca02c" points="466.5,-838.413 463,-828.413 459.5,-838.413 466.5,-838.413"/>
</g>
<!-- F3 -->
<g id="node97" class="node"><title>F3</title>
<text text-anchor="middle" x="463" y="-733.1" font-family="arial" font-size="16.00">F3</text>
</g>
<!-- F2&#45;&gt;F3 -->
<g id="F2_F3" class="edge"><title>F2&#45;&gt;F3</title>
<path fill="none" stroke="#2ca02c" stroke-width="2" d="M463,-791.831C463,-784.131 463,-774.974 463,-766.417"/>
<polygon fill="#2ca02c" stroke="#2ca02c" points="466.5,-766.413 463,-756.413 459.5,-766.413 466.5,-766.413"/>
</g>
<!-- F3&#45;&gt;C8 -->
<g id="F3_C8" class="edge"><title>F3&#45;&gt;C8</title>
<path fill="none" stroke="#2ca02c" stroke-width="2" d="M457.574,-719.581C454.587,-709.177 450.908,-695.91 448,-684 442.957,-663.348 438.021,-639.837 434.444,-622.025"/>
<polygon fill="#2ca02c" stroke="#2ca02c" points="437.835,-621.132 432.455,-612.005 430.969,-622.495 437.835,-621.132"/>
</g>
<!-- F3&#45;&gt;F4 -->
<g id="F3_F4" class="edge"><title>F3&#45;&gt;F4</title>
<path fill="none" stroke="#2ca02c" stroke-width="2" d="M468.299,-719.831C470.57,-712.046 473.275,-702.773 475.794,-694.135"/>
<polygon fill="#2ca02c" stroke="#2ca02c" points="479.189,-694.993 478.629,-684.413 472.469,-693.033 479.189,-694.993"/>
</g>
<!-- G1 -->
<g id="node103" class="node"><title>G1</title>
<text text-anchor="middle" x="556" y="-1237.1" font-family="arial" font-size="16.00">G1</text>
</g>
<!-- G1&#45;&gt;E2&#45;G2 -->
<g id="G1_G2" class="edge"><title>G1&#45;&gt;E2&#45;G2</title>
<path fill="none" stroke="#d62728" stroke-width="2" d="M556,-1223.83C556,-1216.13 556,-1206.97 556,-1198.42"/>
<polygon fill="#d62728" stroke="#d62728" points="559.5,-1198.41 556,-1188.41 552.5,-1198.41 559.5,-1198.41"/>
</g>
<!-- G3&#45;&gt;C7 -->
<g id="G3_C7" class="edge"><title>G3&#45;&gt;C7</title>
<path fill="none" stroke="#d62728" stroke-width="2" d="M602.059,-1079.77C613.213,-1052.82 632,-1000.54 632,-954 632,-954 632,-954 632,-810 632,-768.82 645.333,-722.746 655.301,-694.056"/>
<polygon fill="#d62728" stroke="#d62728" points="658.713,-694.908 658.789,-684.313 652.123,-692.548 658.713,-694.908"/>
</g>
<!-- G3&#45;&gt;E4 -->
<g id="G3_E4" class="edge"><title>G3&#45;&gt;E4</title>
<path fill="none" stroke="#d62728" stroke-width="2" d="M594,-1079.81C594,-1052.5 594,-999.25 594,-954 594,-954 594,-954 594,-810 594,-769.876 594,-723.463 594,-694.418"/>
<polygon fill="#d62728" stroke="#d62728" points="597.5,-694.185 594,-684.185 590.5,-694.185 597.5,-694.185"/>
</g>
<!-- G3&#45;&gt;F2 -->
<g id="G3_F2" class="edge"><title>G3&#45;&gt;F2</title>
<path fill="none" stroke="#d62728" stroke-width="2" d="M588.039,-1079.83C574.582,-1039.74 539.819,-941.115 499,-864 494.149,-854.835 488.133,-845.281 482.417,-836.802"/>
<polygon fill="#d62728" stroke="#d62728" points="485.191,-834.659 476.63,-828.416 479.429,-838.634 485.191,-834.659"/>
</g>
<!-- G4 -->
<g id="node111" class="node"><title>G4</title>
<text text-anchor="middle" x="687" y="-1021.1" font-family="arial" font-size="16.00">G4</text>
</g>
<!-- G3&#45;&gt;G4 -->
<g id="G3_G4" class="edge"><title>G3&#45;&gt;G4</title>
<path fill="none" stroke="#d62728" stroke-width="2" d="M617.468,-1079.83C629.033,-1070.88 643.14,-1059.96 655.618,-1050.3"/>
<polygon fill="#d62728" stroke="#d62728" points="657.775,-1053.05 663.54,-1044.16 653.49,-1047.52 657.775,-1053.05"/>
</g>
<!-- G4&#45;&gt;C3&#45;G5 -->
<g id="G4_G5" class="edge"><title>G4&#45;&gt;C3&#45;G5</title>
<path fill="none" stroke="#d62728" stroke-width="2" d="M706.178,-1007.83C715.359,-999.134 726.501,-988.578 736.478,-979.127"/>
<polygon fill="#d62728" stroke="#d62728" points="738.976,-981.581 743.828,-972.163 734.161,-976.499 738.976,-981.581"/>
</g>
<!-- G4a -->
<g id="node113" class="node"><title>G4a</title>
<text text-anchor="middle" x="687" y="-949.1" font-family="arial" font-size="16.00">G4a</text>
</g>
<!-- G4&#45;&gt;G4a -->
<g id="G4_G4a" class="edge"><title>G4&#45;&gt;G4a</title>
<path fill="none" stroke="#d62728" stroke-width="2" d="M687,-1007.83C687,-1000.13 687,-990.974 687,-982.417"/>
<polygon fill="#d62728" stroke="#d62728" points="690.5,-982.413 687,-972.413 683.5,-982.413 690.5,-982.413"/>
</g>
<!-- G7&#45;&gt;CN1 -->
<g id="G7_CN1" class="edge"><title>G7&#45;&gt;CN1</title>
<path fill="none" stroke="#d62728" stroke-width="2" d="M719.831,-575.831C711.285,-567.285 700.944,-556.944 691.62,-547.62"/>
<polygon fill="#d62728" stroke="#d62728" points="693.959,-545.009 684.413,-540.413 689.009,-549.959 693.959,-545.009"/>
</g>
<!-- G8 -->
<g id="node120" class="node"><title>G8</title>
<text text-anchor="middle" x="810" y="-517.1" font-family="arial" font-size="16.00">G8</text>
</g>
<!-- G7&#45;&gt;G8 -->
<g id="G7_G8" class="edge"><title>G7&#45;&gt;G8</title>
<path fill="none" stroke="#d62728" stroke-width="2" d="M756.169,-575.831C764.715,-567.285 775.056,-556.944 784.38,-547.62"/>
<polygon fill="#d62728" stroke="#d62728" points="786.991,-549.959 791.587,-540.413 782.041,-545.009 786.991,-549.959"/>
</g>
<!-- V1 -->
<g id="node122" class="node"><title>V1</title>
<text text-anchor="middle" x="738" y="-517.1" font-family="arial" font-size="16.00">V1</text>
</g>
<!-- G7&#45;&gt;V1 -->
<g id="G7_V1" class="edge"><title>G7&#45;&gt;V1</title>
<path fill="none" stroke="#d62728" stroke-width="2" d="M738,-575.831C738,-568.131 738,-558.974 738,-550.417"/>
<polygon fill="#d62728" stroke="#d62728" points="741.5,-550.413 738,-540.413 734.5,-550.413 741.5,-550.413"/>
</g>
<!-- G9 -->
<g id="node124" class="node"><title>G9</title>
<text text-anchor="middle" x="810" y="-445.1" font-family="arial" font-size="16.00">G9</text>
</g>
<!-- G8&#45;&gt;G9 -->
<g id="G8_G9" class="edge"><title>G8&#45;&gt;G9</title>
<path fill="none" stroke="#d62728" stroke-width="2" d="M810,-503.831C810,-496.131 810,-486.974 810,-478.417"/>
<polygon fill="#d62728" stroke="#d62728" points="813.5,-478.413 810,-468.413 806.5,-478.413 813.5,-478.413"/>
</g>
<!-- NA3 -->
<g id="node129" class="node"><title>NA3</title>
<text text-anchor="middle" x="319" y="-589.1" font-family="arial" font-size="16.00">NA3</text>
</g>
<!-- NA2&#45;&gt;NA3 -->
<g id="NA2_NA3" class="edge"><title>NA2&#45;&gt;NA3</title>
<path fill="none" stroke="#17becf" stroke-width="2" d="M292.084,-647.831C296.061,-639.877 300.815,-630.369 305.214,-621.572"/>
<polygon fill="#17becf" stroke="#17becf" points="308.452,-622.923 309.793,-612.413 302.191,-619.792 308.452,-622.923"/>
</g>
<!-- NA3&#45;&gt;NA4 -->
<g id="NA3_NA4" class="edge"><title>NA3&#45;&gt;NA4</title>
<path fill="none" stroke="#17becf" stroke-width="2" d="M328.589,-575.831C332.832,-567.792 337.912,-558.167 342.596,-549.292"/>
<polygon fill="#17becf" stroke="#17becf" points="345.71,-550.891 347.282,-540.413 339.519,-547.623 345.71,-550.891"/>
</g>
<!-- NA6 -->
<g id="node134" class="node"><title>NA6</title>
<text text-anchor="middle" x="429" y="-373.1" font-family="arial" font-size="16.00">NA6</text>
</g>
<!-- NA5&#45;&gt;NA6 -->
<g id="NA5_NA6" class="edge"><title>NA5&#45;&gt;NA6</title>
<path fill="none" stroke="#17becf" stroke-width="2" d="M429,-431.831C429,-424.131 429,-414.974 429,-406.417"/>
<polygon fill="#17becf" stroke="#17becf" points="432.5,-406.413 429,-396.413 425.5,-406.413 432.5,-406.413"/>
</g>
<!-- P1 -->
<g id="node135" class="node"><title>P1</title>
<text text-anchor="middle" x="98" y="-949.1" font-family="arial" font-size="16.00">P1</text>
</g>
<!-- P2 -->
<g id="node137" class="node"><title>P2</title>
<text text-anchor="middle" x="98" y="-877.1" font-family="arial" font-size="16.00">P2</text>
</g>
<!-- P1&#45;&gt;P2 -->
<g id="P1_P2" class="edge"><title>P1&#45;&gt;P2</title>
<path fill="none" stroke="#8c564b" stroke-width="2" d="M98,-935.831C98,-928.131 98,-918.974 98,-910.417"/>
<polygon fill="#8c564b" stroke="#8c564b" points="101.5,-910.413 98,-900.413 94.5001,-910.413 101.5,-910.413"/>
</g>
<!-- P2&#45;&gt;A3 -->
<g id="P2_A3" class="edge"><title>P2&#45;&gt;A3</title>
<path fill="none" stroke="#8c564b" stroke-width="2" d="M100.153,-863.762C103.053,-839.201 108.242,-795.247 111.653,-766.354"/>
<polygon fill="#8c564b" stroke="#8c564b" points="115.168,-766.431 112.864,-756.09 108.216,-765.61 115.168,-766.431"/>
</g>
<!-- P3 -->
<g id="node145" class="node"><title>P3</title>
<text text-anchor="middle" x="41" y="-805.1" font-family="arial" font-size="16.00">P3</text>
</g>
<!-- P2&#45;&gt;P3 -->
<g id="P2_P3" class="edge"><title>P2&#45;&gt;P3</title>
<path fill="none" stroke="#8c564b" stroke-width="2" d="M83.6165,-863.831C77.0514,-855.539 69.1493,-845.557 61.9422,-836.453"/>
<polygon fill="#8c564b" stroke="#8c564b" points="64.5284,-834.081 55.5772,-828.413 59.0401,-838.426 64.5284,-834.081"/>
</g>
<!-- P13 -->
<g id="node142" class="node"><title>P13</title>
<text text-anchor="middle" x="213" y="-85.1" font-family="arial" font-size="16.00">P13</text>
</g>
<!-- P12&#45;&gt;P13 -->
<g id="P12_P13" class="edge"><title>P12&#45;&gt;P13</title>
<path fill="none" stroke="#8c564b" stroke-width="2" d="M213,-143.831C213,-136.131 213,-126.974 213,-118.417"/>
<polygon fill="#8c564b" stroke="#8c564b" points="216.5,-118.413 213,-108.413 209.5,-118.413 216.5,-118.413"/>
</g>
<!-- P4 -->
<g id="node147" class="node"><title>P4</title>
<text text-anchor="middle" x="33" y="-733.1" font-family="arial" font-size="16.00">P4</text>
</g>
<!-- P3&#45;&gt;P4 -->
<g id="P3_P4" class="edge"><title>P3&#45;&gt;P4</title>
<path fill="none" stroke="#8c564b" stroke-width="2" d="M38.9813,-791.831C38.1257,-784.131 37.1083,-774.974 36.1574,-766.417"/>
<polygon fill="#8c564b" stroke="#8c564b" points="39.6289,-765.966 35.0459,-756.413 32.6717,-766.739 39.6289,-765.966"/>
</g>
<!-- P5 -->
<g id="node149" class="node"><title>P5</title>
<text text-anchor="middle" x="27" y="-661.1" font-family="arial" font-size="16.00">P5</text>
</g>
<!-- P4&#45;&gt;P5 -->
<g id="P4_P5" class="edge"><title>P4&#45;&gt;P5</title>
<path fill="none" stroke="#8c564b" stroke-width="2" d="M31.4859,-719.831C30.8442,-712.131 30.0812,-702.974 29.3681,-694.417"/>
<polygon fill="#8c564b" stroke="#8c564b" points="32.8529,-694.088 28.5344,-684.413 25.8771,-694.669 32.8529,-694.088"/>
</g>
<!-- P6 -->
<g id="node151" class="node"><title>P6</title>
<text text-anchor="middle" x="27" y="-589.1" font-family="arial" font-size="16.00">P6</text>
</g>
<!-- P5&#45;&gt;P6 -->
<g id="P5_P6" class="edge"><title>P5&#45;&gt;P6</title>
<path fill="none" stroke="#8c564b" stroke-width="2" d="M27,-647.831C27,-640.131 27,-630.974 27,-622.417"/>
<polygon fill="#8c564b" stroke="#8c564b" points="30.5001,-622.413 27,-612.413 23.5001,-622.413 30.5001,-622.413"/>
</g>
<!-- P7 -->
<g id="node153" class="node"><title>P7</title>
<text text-anchor="middle" x="27" y="-517.1" font-family="arial" font-size="16.00">P7</text>
</g>
<!-- P6&#45;&gt;P7 -->
<g id="P6_P7" class="edge"><title>P6&#45;&gt;P7</title>
<path fill="none" stroke="#8c564b" stroke-width="2" d="M27,-575.831C27,-568.131 27,-558.974 27,-550.417"/>
<polygon fill="#8c564b" stroke="#8c564b" points="30.5001,-550.413 27,-540.413 23.5001,-550.413 30.5001,-550.413"/>
</g>
<!-- P8 -->
<g id="node155" class="node"><title>P8</title>
<text text-anchor="middle" x="27" y="-445.1" font-family="arial" font-size="16.00">P8</text>
</g>
<!-- P7&#45;&gt;P8 -->
<g id="P7_P8" class="edge"><title>P7&#45;&gt;P8</title>
<path fill="none" stroke="#8c564b" stroke-width="2" d="M27,-503.831C27,-496.131 27,-486.974 27,-478.417"/>
<polygon fill="#8c564b" stroke="#8c564b" points="30.5001,-478.413 27,-468.413 23.5001,-478.413 30.5001,-478.413"/>
</g>
<!-- P8&#45;&gt;P9 -->
<g id="P8_P9" class="edge"><title>P8&#45;&gt;P9</title>
<path fill="none" stroke="#8c564b" stroke-width="2" d="M40.8788,-431.831C47.2136,-423.539 54.8384,-413.557 61.7926,-404.453"/>
<polygon fill="#8c564b" stroke="#8c564b" points="64.6452,-406.485 67.9343,-396.413 59.0825,-402.235 64.6452,-406.485"/>
</g>
</g>
</svg>
