<?xml version="1.0" encoding="UTF-8" standalone="no"?>
<!DOCTYPE svg PUBLIC "-//W3C//DTD SVG 1.1//EN"
 "http://www.w3.org/Graphics/SVG/1.1/DTD/svg11.dtd">
<!-- Generated by graphviz version 2.30.1 (20130214.1453)
 -->
<!-- Title: CMEP_Tube Pages: 1 -->
<svg width="845pt" height="1268pt"
 viewBox="0.00 0.00 845.00 1268.00" xmlns="http://www.w3.org/2000/svg" xmlns:xlink="http://www.w3.org/1999/xlink">
<g id="graph0" class="graph" transform="scale(1 1) rotate(0) translate(4 1264)">
<title>CMEP_Tube</title>
<polygon fill="white" stroke="white" points="-4,5 -4,-1264 842,-1264 842,5 -4,5"/>
<!-- A1 -->
<g id="node1" class="node"><title>A1</title>
<text text-anchor="middle" x="170" y="-875.199" font-family="arial" font-size="16.00">A1</text>
</g>
<!-- A2 -->
<g id="node2" class="node"><title>A2</title>
<text text-anchor="middle" x="170" y="-803.199" font-family="arial" font-size="16.00">A2</text>
</g>
<!-- A1&#45;&gt;A2 -->
<g id="edge1" class="edge"><title>A1&#45;&gt;A2</title>
<path fill="none" stroke="#9467bd" stroke-width="2" d="M170,-863.697C170,-855.983 170,-846.712 170,-838.112"/>
<polygon fill="#9467bd" stroke="#9467bd" points="173.5,-838.104 170,-828.104 166.5,-838.104 173.5,-838.104"/>
</g>
<!-- A3 -->
<g id="node3" class="node"><title>A3</title>
<text text-anchor="middle" x="115" y="-731.199" font-family="arial" font-size="16.00">A3</text>
</g>
<!-- A2&#45;&gt;A3 -->
<g id="edge2" class="edge"><title>A2&#45;&gt;A3</title>
<path fill="none" stroke="#9467bd" stroke-width="2" d="M156.404,-791.697C149.877,-783.389 141.932,-773.277 134.753,-764.141"/>
<polygon fill="#9467bd" stroke="#9467bd" points="137.369,-761.805 128.439,-756.104 131.865,-766.13 137.369,-761.805"/>
</g>
<!-- NA1 -->
<g id="node4" class="node"><title>NA1</title>
<text text-anchor="middle" x="192" y="-731.199" font-family="arial" font-size="16.00">NA1</text>
</g>
<!-- A2&#45;&gt;NA1 -->
<g id="edge3" class="edge"><title>A2&#45;&gt;NA1</title>
<path fill="none" stroke="#9467bd" stroke-width="2" d="M175.438,-791.697C177.889,-783.898 180.84,-774.509 183.568,-765.829"/>
<polygon fill="#9467bd" stroke="#9467bd" points="186.965,-766.694 186.624,-756.104 180.287,-764.595 186.965,-766.694"/>
</g>
<!-- A4 -->
<g id="node5" class="node"><title>A4</title>
<text text-anchor="middle" x="137" y="-659.199" font-family="arial" font-size="16.00">A4</text>
</g>
<!-- A3&#45;&gt;A4 -->
<g id="edge4" class="edge"><title>A3&#45;&gt;A4</title>
<path fill="none" stroke="#9467bd" stroke-width="2" d="M120.438,-719.697C122.889,-711.898 125.84,-702.509 128.568,-693.829"/>
<polygon fill="#9467bd" stroke="#9467bd" points="131.965,-694.694 131.624,-684.104 125.287,-692.595 131.965,-694.694"/>
</g>
<!-- P9 -->
<g id="node6" class="node"><title>P9</title>
<text text-anchor="middle" x="82" y="-371.199" font-family="arial" font-size="16.00">P9</text>
</g>
<!-- A3&#45;&gt;P9 -->
<g id="edge5" class="edge"><title>A3&#45;&gt;P9</title>
<path fill="none" stroke="#9467bd" stroke-width="2" d="M108.322,-719.811C98.6793,-693.402 82,-641.064 82,-595 82,-595 82,-595 82,-521 82,-480.996 82,-434.653 82,-406.08"/>
<polygon fill="#9467bd" stroke="#9467bd" points="85.5001,-406.049 82,-396.049 78.5001,-406.049 85.5001,-406.049"/>
</g>
<!-- A7 -->
<g id="node11" class="node"><title>A7</title>
<text text-anchor="middle" x="285" y="-443.199" font-family="arial" font-size="16.00">A7</text>
</g>
<!-- NA1&#45;&gt;A7 -->
<g id="edge70" class="edge"><title>NA1&#45;&gt;A7</title>
<path fill="none" stroke="#17becf" stroke-width="2" d="M191.983,-719.651C192.405,-689.67 195.285,-626.526 211,-576 221.746,-541.449 230.361,-535.014 249,-504 254.443,-494.943 260.804,-485.309 266.652,-476.774"/>
<polygon fill="#17becf" stroke="#17becf" points="269.674,-478.558 272.501,-468.347 263.923,-474.567 269.674,-478.558"/>
</g>
<!-- NA2 -->
<g id="node56" class="node"><title>NA2</title>
<text text-anchor="middle" x="283" y="-659.199" font-family="arial" font-size="16.00">NA2</text>
</g>
<!-- NA1&#45;&gt;NA2 -->
<g id="edge71" class="edge"><title>NA1&#45;&gt;NA2</title>
<path fill="none" stroke="#17becf" stroke-width="2" d="M214.494,-719.697C225.955,-710.881 240.058,-700.032 252.484,-690.474"/>
<polygon fill="#17becf" stroke="#17becf" points="254.972,-692.976 260.764,-684.104 250.704,-687.427 254.972,-692.976"/>
</g>
<!-- A5 -->
<g id="node7" class="node"><title>A5</title>
<text text-anchor="middle" x="247" y="-587.199" font-family="arial" font-size="16.00">A5</text>
</g>
<!-- A4&#45;&gt;A5 -->
<g id="edge6" class="edge"><title>A4&#45;&gt;A5</title>
<path fill="none" stroke="#9467bd" stroke-width="2" d="M163.909,-647.876C178.158,-638.808 195.846,-627.552 211.236,-617.759"/>
<polygon fill="#9467bd" stroke="#9467bd" points="213.43,-620.511 219.988,-612.19 209.672,-614.606 213.43,-620.511"/>
</g>
<!-- P10 -->
<g id="node22" class="node"><title>P10</title>
<text text-anchor="middle" x="213" y="-299.199" font-family="arial" font-size="16.00">P10</text>
</g>
<!-- P9&#45;&gt;P10 -->
<g id="edge88" class="edge"><title>P9&#45;&gt;P10</title>
<path fill="none" stroke="#8c564b" stroke-width="2" d="M109.143,-362.496C128.816,-351.984 155.616,-337.663 177.064,-326.203"/>
<polygon fill="#8c564b" stroke="#8c564b" points="178.721,-329.285 185.891,-321.485 175.422,-323.111 178.721,-329.285"/>
</g>
<!-- A6 -->
<g id="node8" class="node"><title>A6</title>
<text text-anchor="middle" x="285" y="-515.199" font-family="arial" font-size="16.00">A6</text>
</g>
<!-- A5&#45;&gt;A6 -->
<g id="edge7" class="edge"><title>A5&#45;&gt;A6</title>
<path fill="none" stroke="#9467bd" stroke-width="2" d="M256.393,-575.697C260.765,-567.644 266.057,-557.894 270.895,-548.982"/>
<polygon fill="#9467bd" stroke="#9467bd" points="274.02,-550.563 275.715,-540.104 267.868,-547.223 274.02,-550.563"/>
</g>
<!-- C11 -->
<g id="node9" class="node"><title>C11</title>
<text text-anchor="middle" x="230" y="-371.199" font-family="arial" font-size="16.00">C11</text>
</g>
<!-- A5&#45;&gt;C11 -->
<g id="edge8" class="edge"><title>A5&#45;&gt;C11</title>
<path fill="none" stroke="#9467bd" stroke-width="2" d="M245.638,-575.849C242.697,-538.832 235.734,-451.181 232.176,-406.386"/>
<polygon fill="#9467bd" stroke="#9467bd" points="235.65,-405.924 231.369,-396.232 228.672,-406.478 235.65,-405.924"/>
</g>
<!-- E6 -->
<g id="node10" class="node"><title>E6</title>
<text text-anchor="middle" x="539" y="-515.199" font-family="arial" font-size="16.00">E6</text>
</g>
<!-- A5&#45;&gt;E6 -->
<g id="edge9" class="edge"><title>A5&#45;&gt;E6</title>
<path fill="none" stroke="#9467bd" stroke-width="2" d="M274.232,-579.292C277.152,-578.078 280.111,-576.952 283,-576 361.316,-550.201 384.365,-557.233 465,-540 477.064,-537.422 490.197,-534.457 502.005,-531.732"/>
<polygon fill="#9467bd" stroke="#9467bd" points="503.032,-535.087 511.981,-529.416 501.448,-528.268 503.032,-535.087"/>
</g>
<!-- A6&#45;&gt;A7 -->
<g id="edge10" class="edge"><title>A6&#45;&gt;A7</title>
<path fill="none" stroke="#9467bd" stroke-width="2" d="M285,-503.697C285,-495.983 285,-486.712 285,-478.112"/>
<polygon fill="#9467bd" stroke="#9467bd" points="288.5,-478.104 285,-468.104 281.5,-478.104 288.5,-478.104"/>
</g>
<!-- C10 -->
<g id="node12" class="node"><title>C10</title>
<text text-anchor="middle" x="357" y="-443.199" font-family="arial" font-size="16.00">C10</text>
</g>
<!-- A6&#45;&gt;C10 -->
<g id="edge11" class="edge"><title>A6&#45;&gt;C10</title>
<path fill="none" stroke="#9467bd" stroke-width="2" d="M302.798,-503.697C311.604,-495.135 322.382,-484.656 332.001,-475.304"/>
<polygon fill="#9467bd" stroke="#9467bd" points="334.677,-477.585 339.407,-468.104 329.797,-472.566 334.677,-477.585"/>
</g>
<!-- C12 -->
<g id="node21" class="node"><title>C12</title>
<text text-anchor="middle" x="378" y="-299.199" font-family="arial" font-size="16.00">C12</text>
</g>
<!-- C11&#45;&gt;C12 -->
<g id="edge20" class="edge"><title>C11&#45;&gt;C12</title>
<path fill="none" stroke="#bcbd22" stroke-width="2" d="M257.145,-364.161C280.854,-352.947 315.464,-336.578 341.576,-324.227"/>
<polygon fill="#bcbd22" stroke="#bcbd22" points="343.233,-327.316 350.776,-319.876 340.24,-320.988 343.233,-327.316"/>
</g>
<!-- C11&#45;&gt;P10 -->
<g id="edge21" class="edge"><title>C11&#45;&gt;P10</title>
<path fill="none" stroke="#bcbd22" stroke-width="2" d="M225.798,-359.697C223.904,-351.898 221.623,-342.509 219.516,-333.829"/>
<polygon fill="#bcbd22" stroke="#bcbd22" points="222.915,-332.996 217.154,-324.104 216.113,-334.648 222.915,-332.996"/>
</g>
<!-- E7 -->
<g id="node43" class="node"><title>E7</title>
<text text-anchor="middle" x="539" y="-443.199" font-family="arial" font-size="16.00">E7</text>
</g>
<!-- E6&#45;&gt;E7 -->
<g id="edge46" class="edge"><title>E6&#45;&gt;E7</title>
<path fill="none" stroke="#1f77b4" stroke-width="2" d="M539,-503.697C539,-495.983 539,-486.712 539,-478.112"/>
<polygon fill="#1f77b4" stroke="#1f77b4" points="542.5,-478.104 539,-468.104 535.5,-478.104 542.5,-478.104"/>
</g>
<!-- A8 -->
<g id="node13" class="node"><title>A8</title>
<text text-anchor="middle" x="285" y="-299.199" font-family="arial" font-size="16.00">A8</text>
</g>
<!-- A7&#45;&gt;A8 -->
<g id="edge12" class="edge"><title>A7&#45;&gt;A8</title>
<path fill="none" stroke="#9467bd" stroke-width="2" d="M285,-431.871C285,-407.67 285,-363.211 285,-334.393"/>
<polygon fill="#9467bd" stroke="#9467bd" points="288.5,-334.189 285,-324.189 281.5,-334.189 288.5,-334.189"/>
</g>
<!-- E9 -->
<g id="node14" class="node"><title>E9</title>
<text text-anchor="middle" x="484" y="-299.199" font-family="arial" font-size="16.00">E9</text>
</g>
<!-- A7&#45;&gt;E9 -->
<g id="edge13" class="edge"><title>A7&#45;&gt;E9</title>
<path fill="none" stroke="#9467bd" stroke-width="2" d="M303.768,-431.942C324.747,-413.26 360.103,-382.91 393,-360 410.343,-347.922 430.577,-335.946 447.556,-326.441"/>
<polygon fill="#9467bd" stroke="#9467bd" points="449.559,-329.334 456.615,-321.431 446.17,-323.208 449.559,-329.334"/>
</g>
<!-- C10&#45;&gt;C11 -->
<g id="edge19" class="edge"><title>C10&#45;&gt;C11</title>
<path fill="none" stroke="#bcbd22" stroke-width="2" d="M329.755,-433.983C311.173,-423.741 286.362,-410.066 266.133,-398.916"/>
<polygon fill="#bcbd22" stroke="#bcbd22" points="267.647,-395.754 257.2,-393.992 264.268,-401.884 267.647,-395.754"/>
</g>
<!-- A9 -->
<g id="node15" class="node"><title>A9</title>
<text text-anchor="middle" x="285" y="-155.199" font-family="arial" font-size="16.00">A9</text>
</g>
<!-- A8&#45;&gt;A9 -->
<g id="edge14" class="edge"><title>A8&#45;&gt;A9</title>
<path fill="none" stroke="#9467bd" stroke-width="2" d="M285,-287.871C285,-263.67 285,-219.211 285,-190.393"/>
<polygon fill="#9467bd" stroke="#9467bd" points="288.5,-190.189 285,-180.189 281.5,-190.189 288.5,-190.189"/>
</g>
<!-- C14 -->
<g id="node16" class="node"><title>C14</title>
<text text-anchor="middle" x="357" y="-155.199" font-family="arial" font-size="16.00">C14</text>
</g>
<!-- A8&#45;&gt;C14 -->
<g id="edge15" class="edge"><title>A8&#45;&gt;C14</title>
<path fill="none" stroke="#9467bd" stroke-width="2" d="M293.685,-287.871C306.118,-263.35 329.096,-218.032 343.686,-189.259"/>
<polygon fill="#9467bd" stroke="#9467bd" points="346.884,-190.691 348.284,-180.189 340.64,-187.525 346.884,-190.691"/>
</g>
<!-- P11 -->
<g id="node17" class="node"><title>P11</title>
<text text-anchor="middle" x="213" y="-227.199" font-family="arial" font-size="16.00">P11</text>
</g>
<!-- A8&#45;&gt;P11 -->
<g id="edge16" class="edge"><title>A8&#45;&gt;P11</title>
<path fill="none" stroke="#9467bd" stroke-width="2" d="M267.202,-287.697C258.396,-279.135 247.618,-268.656 237.999,-259.304"/>
<polygon fill="#9467bd" stroke="#9467bd" points="240.203,-256.566 230.593,-252.104 235.323,-261.585 240.203,-256.566"/>
</g>
<!-- C15 -->
<g id="node18" class="node"><title>C15</title>
<text text-anchor="middle" x="321" y="-83.1992" font-family="arial" font-size="16.00">C15</text>
</g>
<!-- A9&#45;&gt;C15 -->
<g id="edge17" class="edge"><title>A9&#45;&gt;C15</title>
<path fill="none" stroke="#9467bd" stroke-width="2" d="M293.899,-143.697C297.997,-135.728 302.949,-126.1 307.493,-117.264"/>
<polygon fill="#9467bd" stroke="#9467bd" points="310.742,-118.598 312.203,-108.104 304.517,-115.396 310.742,-118.598"/>
</g>
<!-- C14&#45;&gt;C15 -->
<g id="edge25" class="edge"><title>C14&#45;&gt;C15</title>
<path fill="none" stroke="#bcbd22" stroke-width="2" d="M348.101,-143.697C344.003,-135.728 339.051,-126.1 334.507,-117.264"/>
<polygon fill="#bcbd22" stroke="#bcbd22" points="337.483,-115.396 329.797,-108.104 331.258,-118.598 337.483,-115.396"/>
</g>
<!-- P12 -->
<g id="node62" class="node"><title>P12</title>
<text text-anchor="middle" x="213" y="-155.199" font-family="arial" font-size="16.00">P12</text>
</g>
<!-- P11&#45;&gt;P12 -->
<g id="edge78" class="edge"><title>P11&#45;&gt;P12</title>
<path fill="none" stroke="#8c564b" stroke-width="2" d="M213,-215.697C213,-207.983 213,-198.712 213,-190.112"/>
<polygon fill="#8c564b" stroke="#8c564b" points="216.5,-190.104 213,-180.104 209.5,-190.104 216.5,-190.104"/>
</g>
<!-- C16 -->
<g id="node25" class="node"><title>C16</title>
<text text-anchor="middle" x="321" y="-11.1992" font-family="arial" font-size="16.00">C16</text>
</g>
<!-- C15&#45;&gt;C16 -->
<g id="edge26" class="edge"><title>C15&#45;&gt;C16</title>
<path fill="none" stroke="#bcbd22" stroke-width="2" d="M321,-71.6966C321,-63.9827 321,-54.7125 321,-46.1124"/>
<polygon fill="#bcbd22" stroke="#bcbd22" points="324.5,-46.1043 321,-36.1043 317.5,-46.1044 324.5,-46.1043"/>
</g>
<!-- C1 -->
<g id="node19" class="node"><title>C1</title>
<text text-anchor="middle" x="797" y="-1091.2" font-family="arial" font-size="16.00">C1</text>
</g>
<!-- C2 -->
<g id="node20" class="node"><title>C2</title>
<text text-anchor="middle" x="797" y="-1019.2" font-family="arial" font-size="16.00">C2</text>
</g>
<!-- C1&#45;&gt;C2 -->
<g id="edge18" class="edge"><title>C1&#45;&gt;C2</title>
<path fill="none" stroke="#bcbd22" stroke-width="2" d="M797,-1079.7C797,-1071.98 797,-1062.71 797,-1054.11"/>
<polygon fill="#bcbd22" stroke="#bcbd22" points="800.5,-1054.1 797,-1044.1 793.5,-1054.1 800.5,-1054.1"/>
</g>
<!-- C3&#45;G5 -->
<g id="node26" class="node"><title>C3&#45;G5</title>
<text text-anchor="middle" x="764" y="-947.199" font-family="arial" font-size="16.00">C3&#45;G5</text>
</g>
<!-- C2&#45;&gt;C3&#45;G5 -->
<g id="edge27" class="edge"><title>C2&#45;&gt;C3&#45;G5</title>
<path fill="none" stroke="#bcbd22" stroke-width="2" d="M788.843,-1007.7C785.086,-999.728 780.547,-990.1 776.382,-981.264"/>
<polygon fill="#bcbd22" stroke="#bcbd22" points="779.494,-979.657 772.063,-972.104 773.162,-982.642 779.494,-979.657"/>
</g>
<!-- C13 -->
<g id="node23" class="node"><title>C13</title>
<text text-anchor="middle" x="378" y="-227.199" font-family="arial" font-size="16.00">C13</text>
</g>
<!-- C12&#45;&gt;C13 -->
<g id="edge22" class="edge"><title>C12&#45;&gt;C13</title>
<path fill="none" stroke="#bcbd22" stroke-width="2" d="M378,-287.697C378,-279.983 378,-270.712 378,-262.112"/>
<polygon fill="#bcbd22" stroke="#bcbd22" points="381.5,-262.104 378,-252.104 374.5,-262.104 381.5,-262.104"/>
</g>
<!-- F6 -->
<g id="node24" class="node"><title>F6</title>
<text text-anchor="middle" x="526" y="-227.199" font-family="arial" font-size="16.00">F6</text>
</g>
<!-- C12&#45;&gt;F6 -->
<g id="edge23" class="edge"><title>C12&#45;&gt;F6</title>
<path fill="none" stroke="#bcbd22" stroke-width="2" d="M405.145,-292.161C428.854,-280.947 463.464,-264.578 489.576,-252.227"/>
<polygon fill="#bcbd22" stroke="#bcbd22" points="491.233,-255.316 498.776,-247.876 488.24,-248.988 491.233,-255.316"/>
</g>
<!-- P10&#45;&gt;P11 -->
<g id="edge77" class="edge"><title>P10&#45;&gt;P11</title>
<path fill="none" stroke="#8c564b" stroke-width="2" d="M213,-287.697C213,-279.983 213,-270.712 213,-262.112"/>
<polygon fill="#8c564b" stroke="#8c564b" points="216.5,-262.104 213,-252.104 209.5,-262.104 216.5,-262.104"/>
</g>
<!-- C13&#45;&gt;C14 -->
<g id="edge24" class="edge"><title>C13&#45;&gt;C14</title>
<path fill="none" stroke="#bcbd22" stroke-width="2" d="M372.809,-215.697C370.469,-207.898 367.653,-198.509 365.049,-189.829"/>
<polygon fill="#bcbd22" stroke="#bcbd22" points="368.357,-188.677 362.131,-180.104 361.652,-190.688 368.357,-188.677"/>
</g>
<!-- C4 -->
<g id="node27" class="node"><title>C4</title>
<text text-anchor="middle" x="709" y="-875.199" font-family="arial" font-size="16.00">C4</text>
</g>
<!-- C3&#45;G5&#45;&gt;C4 -->
<g id="edge28" class="edge"><title>C3&#45;G5&#45;&gt;C4</title>
<path fill="none" stroke="#bcbd22" stroke-width="2" d="M750.404,-935.697C743.877,-927.389 735.932,-917.277 728.753,-908.141"/>
<polygon fill="#bcbd22" stroke="#bcbd22" points="731.369,-905.805 722.439,-900.104 725.865,-910.13 731.369,-905.805"/>
</g>
<!-- G6 -->
<g id="node31" class="node"><title>G6</title>
<text text-anchor="middle" x="738" y="-659.199" font-family="arial" font-size="16.00">G6</text>
</g>
<!-- C3&#45;G5&#45;&gt;G6 -->
<g id="edge64" class="edge"><title>C3&#45;G5&#45;&gt;G6</title>
<path fill="none" stroke="#d62728" stroke-width="2" d="M762.888,-935.727C760.332,-897.04 753.594,-800.511 745,-720 744.1,-711.564 742.95,-702.396 741.843,-694.093"/>
<polygon fill="#d62728" stroke="#d62728" points="745.308,-693.594 740.487,-684.16 738.372,-694.541 745.308,-693.594"/>
</g>
<!-- C5 -->
<g id="node28" class="node"><title>C5</title>
<text text-anchor="middle" x="709" y="-803.199" font-family="arial" font-size="16.00">C5</text>
</g>
<!-- C4&#45;&gt;C5 -->
<g id="edge29" class="edge"><title>C4&#45;&gt;C5</title>
<path fill="none" stroke="#bcbd22" stroke-width="2" d="M709,-863.697C709,-855.983 709,-846.712 709,-838.112"/>
<polygon fill="#bcbd22" stroke="#bcbd22" points="712.5,-838.104 709,-828.104 705.5,-838.104 712.5,-838.104"/>
</g>
<!-- C6 -->
<g id="node29" class="node"><title>C6</title>
<text text-anchor="middle" x="709" y="-731.199" font-family="arial" font-size="16.00">C6</text>
</g>
<!-- C5&#45;&gt;C6 -->
<g id="edge30" class="edge"><title>C5&#45;&gt;C6</title>
<path fill="none" stroke="#bcbd22" stroke-width="2" d="M709,-791.697C709,-783.983 709,-774.712 709,-766.112"/>
<polygon fill="#bcbd22" stroke="#bcbd22" points="712.5,-766.104 709,-756.104 705.5,-766.104 712.5,-766.104"/>
</g>
<!-- C7 -->
<g id="node30" class="node"><title>C7</title>
<text text-anchor="middle" x="666" y="-659.199" font-family="arial" font-size="16.00">C7</text>
</g>
<!-- C6&#45;&gt;C7 -->
<g id="edge31" class="edge"><title>C6&#45;&gt;C7</title>
<path fill="none" stroke="#bcbd22" stroke-width="2" d="M698.371,-719.697C693.372,-711.559 687.309,-701.689 681.788,-692.701"/>
<polygon fill="#bcbd22" stroke="#bcbd22" points="684.723,-690.793 676.507,-684.104 678.759,-694.457 684.723,-690.793"/>
</g>
<!-- C6&#45;&gt;G6 -->
<g id="edge32" class="edge"><title>C6&#45;&gt;G6</title>
<path fill="none" stroke="#bcbd22" stroke-width="2" d="M716.169,-719.697C719.435,-711.813 723.374,-702.304 727.002,-693.546"/>
<polygon fill="#bcbd22" stroke="#bcbd22" points="730.32,-694.683 730.914,-684.104 723.853,-692.003 730.32,-694.683"/>
</g>
<!-- C8 -->
<g id="node32" class="node"><title>C8</title>
<text text-anchor="middle" x="429" y="-587.199" font-family="arial" font-size="16.00">C8</text>
</g>
<!-- C7&#45;&gt;C8 -->
<g id="edge33" class="edge"><title>C7&#45;&gt;C8</title>
<path fill="none" stroke="#bcbd22" stroke-width="2" d="M638.703,-651.476C635.796,-650.227 632.857,-649.041 630,-648 600.007,-637.069 515.473,-615.934 466.107,-603.919"/>
<polygon fill="#bcbd22" stroke="#bcbd22" points="466.683,-600.457 456.139,-601.501 465.032,-607.26 466.683,-600.457"/>
</g>
<!-- F5 -->
<g id="node33" class="node"><title>F5</title>
<text text-anchor="middle" x="611" y="-587.199" font-family="arial" font-size="16.00">F5</text>
</g>
<!-- C7&#45;&gt;F5 -->
<g id="edge34" class="edge"><title>C7&#45;&gt;F5</title>
<path fill="none" stroke="#bcbd22" stroke-width="2" d="M652.404,-647.697C645.877,-639.389 637.932,-629.277 630.753,-620.141"/>
<polygon fill="#bcbd22" stroke="#bcbd22" points="633.369,-617.805 624.439,-612.104 627.865,-622.13 633.369,-617.805"/>
</g>
<!-- G7 -->
<g id="node52" class="node"><title>G7</title>
<text text-anchor="middle" x="738" y="-587.199" font-family="arial" font-size="16.00">G7</text>
</g>
<!-- G6&#45;&gt;G7 -->
<g id="edge65" class="edge"><title>G6&#45;&gt;G7</title>
<path fill="none" stroke="#d62728" stroke-width="2" d="M738,-647.697C738,-639.983 738,-630.712 738,-622.112"/>
<polygon fill="#d62728" stroke="#d62728" points="741.5,-622.104 738,-612.104 734.5,-622.104 741.5,-622.104"/>
</g>
<!-- C9 -->
<g id="node34" class="node"><title>C9</title>
<text text-anchor="middle" x="429" y="-515.199" font-family="arial" font-size="16.00">C9</text>
</g>
<!-- C8&#45;&gt;C9 -->
<g id="edge35" class="edge"><title>C8&#45;&gt;C9</title>
<path fill="none" stroke="#bcbd22" stroke-width="2" d="M429,-575.697C429,-567.983 429,-558.712 429,-550.112"/>
<polygon fill="#bcbd22" stroke="#bcbd22" points="432.5,-550.104 429,-540.104 425.5,-550.104 432.5,-550.104"/>
</g>
<!-- F5&#45;&gt;F6 -->
<g id="edge55" class="edge"><title>F5&#45;&gt;F6</title>
<path fill="none" stroke="#2ca02c" stroke-width="2" d="M609.222,-575.973C606.599,-549.343 602,-496.205 602,-451 602,-451 602,-451 602,-377 602,-331.641 571.483,-286.749 549.125,-259.946"/>
<polygon fill="#2ca02c" stroke="#2ca02c" points="551.664,-257.53 542.491,-252.228 546.355,-262.093 551.664,-257.53"/>
</g>
<!-- C9&#45;&gt;C10 -->
<g id="edge36" class="edge"><title>C9&#45;&gt;C10</title>
<path fill="none" stroke="#bcbd22" stroke-width="2" d="M411.202,-503.697C402.396,-495.135 391.618,-484.656 381.999,-475.304"/>
<polygon fill="#bcbd22" stroke="#bcbd22" points="384.203,-472.566 374.593,-468.104 379.323,-477.585 384.203,-472.566"/>
</g>
<!-- E1 -->
<g id="node35" class="node"><title>E1</title>
<text text-anchor="middle" x="448" y="-1235.2" font-family="arial" font-size="16.00">E1</text>
</g>
<!-- E2&#45;G2 -->
<g id="node36" class="node"><title>E2&#45;G2</title>
<text text-anchor="middle" x="556" y="-1163.2" font-family="arial" font-size="16.00">E2&#45;G2</text>
</g>
<!-- E1&#45;&gt;E2&#45;G2 -->
<g id="edge37" class="edge"><title>E1&#45;&gt;E2&#45;G2</title>
<path fill="none" stroke="#1f77b4" stroke-width="2" d="M474.42,-1223.88C488.41,-1214.81 505.776,-1203.55 520.886,-1193.76"/>
<polygon fill="#1f77b4" stroke="#1f77b4" points="522.991,-1196.57 529.479,-1188.19 519.183,-1190.69 522.991,-1196.57"/>
</g>
<!-- NA4 -->
<g id="node37" class="node"><title>NA4</title>
<text text-anchor="middle" x="357" y="-515.199" font-family="arial" font-size="16.00">NA4</text>
</g>
<!-- E1&#45;&gt;NA4 -->
<g id="edge38" class="edge"><title>E1&#45;&gt;NA4</title>
<path fill="none" stroke="#1f77b4" stroke-width="2" d="M431.943,-1223.69C410.179,-1198.36 374,-1148.76 374,-1099 374,-1099 374,-1099 374,-665 374,-624.931 367.244,-578.949 362.25,-550.433"/>
<polygon fill="#1f77b4" stroke="#1f77b4" points="365.661,-549.627 360.44,-540.408 358.773,-550.871 365.661,-549.627"/>
</g>
<!-- E2&#45;G2&#45;&gt;C3&#45;G5 -->
<g id="edge39" class="edge"><title>E2&#45;G2&#45;&gt;C3&#45;G5</title>
<path fill="none" stroke="#1f77b4" stroke-width="2" d="M587.228,-1152.29C623.969,-1131.27 684.792,-1092.04 723,-1044 737.831,-1025.35 748.706,-1000.47 755.515,-981.753"/>
<polygon fill="#1f77b4" stroke="#1f77b4" points="758.903,-982.665 758.878,-972.07 752.291,-980.368 758.903,-982.665"/>
</g>
<!-- E3 -->
<g id="node38" class="node"><title>E3</title>
<text text-anchor="middle" x="537" y="-731.199" font-family="arial" font-size="16.00">E3</text>
</g>
<!-- E2&#45;G2&#45;&gt;E3 -->
<g id="edge40" class="edge"><title>E2&#45;G2&#45;&gt;E3</title>
<path fill="none" stroke="#1f77b4" stroke-width="2" d="M548.31,-1151.91C537.206,-1125.62 518,-1073.45 518,-1027 518,-1027 518,-1027 518,-881 518,-840.86 525.551,-794.897 531.132,-766.405"/>
<polygon fill="#1f77b4" stroke="#1f77b4" points="534.606,-766.883 533.155,-756.388 527.745,-765.498 534.606,-766.883"/>
</g>
<!-- G3 -->
<g id="node49" class="node"><title>G3</title>
<text text-anchor="middle" x="594" y="-1091.2" font-family="arial" font-size="16.00">G3</text>
</g>
<!-- E2&#45;G2&#45;&gt;G3 -->
<g id="edge57" class="edge"><title>E2&#45;G2&#45;&gt;G3</title>
<path fill="none" stroke="#d62728" stroke-width="2" d="M565.393,-1151.7C569.765,-1143.64 575.057,-1133.89 579.895,-1124.98"/>
<polygon fill="#d62728" stroke="#d62728" points="583.02,-1126.56 584.715,-1116.1 576.868,-1123.22 583.02,-1126.56"/>
</g>
<!-- NA5 -->
<g id="node58" class="node"><title>NA5</title>
<text text-anchor="middle" x="429" y="-443.199" font-family="arial" font-size="16.00">NA5</text>
</g>
<!-- NA4&#45;&gt;NA5 -->
<g id="edge74" class="edge"><title>NA4&#45;&gt;NA5</title>
<path fill="none" stroke="#17becf" stroke-width="2" d="M374.798,-503.697C383.604,-495.135 394.382,-484.656 404.001,-475.304"/>
<polygon fill="#17becf" stroke="#17becf" points="406.677,-477.585 411.407,-468.104 401.797,-472.566 406.677,-477.585"/>
</g>
<!-- CN1 -->
<g id="node39" class="node"><title>CN1</title>
<text text-anchor="middle" x="666" y="-515.199" font-family="arial" font-size="16.00">CN1</text>
</g>
<!-- E3&#45;&gt;CN1 -->
<g id="edge41" class="edge"><title>E3&#45;&gt;CN1</title>
<path fill="none" stroke="#1f77b4" stroke-width="2" d="M536.582,-719.856C537.017,-700.246 540.634,-668.243 558,-648 585.783,-615.616 619.565,-644.68 647,-612 661.333,-594.927 665.639,-569.638 666.616,-550.376"/>
<polygon fill="#1f77b4" stroke="#1f77b4" points="670.121,-550.193 666.858,-540.113 663.123,-550.028 670.121,-550.193"/>
</g>
<!-- E4 -->
<g id="node40" class="node"><title>E4</title>
<text text-anchor="middle" x="594" y="-659.199" font-family="arial" font-size="16.00">E4</text>
</g>
<!-- E3&#45;&gt;E4 -->
<g id="edge42" class="edge"><title>E3&#45;&gt;E4</title>
<path fill="none" stroke="#1f77b4" stroke-width="2" d="M551.09,-719.697C557.923,-711.305 566.257,-701.07 573.756,-691.861"/>
<polygon fill="#1f77b4" stroke="#1f77b4" points="576.472,-694.069 580.072,-684.104 571.044,-689.649 576.472,-694.069"/>
</g>
<!-- F4 -->
<g id="node41" class="node"><title>F4</title>
<text text-anchor="middle" x="484" y="-659.199" font-family="arial" font-size="16.00">F4</text>
</g>
<!-- E3&#45;&gt;F4 -->
<g id="edge43" class="edge"><title>E3&#45;&gt;F4</title>
<path fill="none" stroke="#1f77b4" stroke-width="2" d="M523.899,-719.697C517.609,-711.389 509.953,-701.277 503.035,-692.141"/>
<polygon fill="#1f77b4" stroke="#1f77b4" points="505.777,-689.964 496.95,-684.104 500.196,-694.19 505.777,-689.964"/>
</g>
<!-- E5 -->
<g id="node42" class="node"><title>E5</title>
<text text-anchor="middle" x="539" y="-587.199" font-family="arial" font-size="16.00">E5</text>
</g>
<!-- E4&#45;&gt;E5 -->
<g id="edge44" class="edge"><title>E4&#45;&gt;E5</title>
<path fill="none" stroke="#1f77b4" stroke-width="2" d="M580.404,-647.697C573.877,-639.389 565.932,-629.277 558.753,-620.141"/>
<polygon fill="#1f77b4" stroke="#1f77b4" points="561.369,-617.805 552.439,-612.104 555.865,-622.13 561.369,-617.805"/>
</g>
<!-- F4&#45;&gt;E9 -->
<g id="edge53" class="edge"><title>F4&#45;&gt;E9</title>
<path fill="none" stroke="#2ca02c" stroke-width="2" d="M484,-647.951C484,-621.292 484,-568.115 484,-523 484,-523 484,-523 484,-449 484,-408.996 484,-362.653 484,-334.08"/>
<polygon fill="#2ca02c" stroke="#2ca02c" points="487.5,-334.049 484,-324.049 480.5,-334.049 487.5,-334.049"/>
</g>
<!-- F4&#45;&gt;F5 -->
<g id="edge54" class="edge"><title>F4&#45;&gt;F5</title>
<path fill="none" stroke="#2ca02c" stroke-width="2" d="M511.245,-649.983C529.827,-639.741 554.638,-626.066 574.867,-614.916"/>
<polygon fill="#2ca02c" stroke="#2ca02c" points="576.732,-617.884 583.8,-609.992 573.353,-611.754 576.732,-617.884"/>
</g>
<!-- E5&#45;&gt;E6 -->
<g id="edge45" class="edge"><title>E5&#45;&gt;E6</title>
<path fill="none" stroke="#1f77b4" stroke-width="2" d="M539,-575.697C539,-567.983 539,-558.712 539,-550.112"/>
<polygon fill="#1f77b4" stroke="#1f77b4" points="542.5,-550.104 539,-540.104 535.5,-550.104 542.5,-550.104"/>
</g>
<!-- E8 -->
<g id="node44" class="node"><title>E8</title>
<text text-anchor="middle" x="539" y="-371.199" font-family="arial" font-size="16.00">E8</text>
</g>
<!-- E7&#45;&gt;E8 -->
<g id="edge47" class="edge"><title>E7&#45;&gt;E8</title>
<path fill="none" stroke="#1f77b4" stroke-width="2" d="M539,-431.697C539,-423.983 539,-414.712 539,-406.112"/>
<polygon fill="#1f77b4" stroke="#1f77b4" points="542.5,-406.104 539,-396.104 535.5,-406.104 542.5,-406.104"/>
</g>
<!-- E8&#45;&gt;E9 -->
<g id="edge48" class="edge"><title>E8&#45;&gt;E9</title>
<path fill="none" stroke="#1f77b4" stroke-width="2" d="M525.404,-359.697C518.877,-351.389 510.932,-341.277 503.753,-332.141"/>
<polygon fill="#1f77b4" stroke="#1f77b4" points="506.369,-329.805 497.439,-324.104 500.865,-334.13 506.369,-329.805"/>
</g>
<!-- F1 -->
<g id="node45" class="node"><title>F1</title>
<text text-anchor="middle" x="463" y="-875.199" font-family="arial" font-size="16.00">F1</text>
</g>
<!-- F2 -->
<g id="node46" class="node"><title>F2</title>
<text text-anchor="middle" x="463" y="-803.199" font-family="arial" font-size="16.00">F2</text>
</g>
<!-- F1&#45;&gt;F2 -->
<g id="edge49" class="edge"><title>F1&#45;&gt;F2</title>
<path fill="none" stroke="#2ca02c" stroke-width="2" d="M463,-863.697C463,-855.983 463,-846.712 463,-838.112"/>
<polygon fill="#2ca02c" stroke="#2ca02c" points="466.5,-838.104 463,-828.104 459.5,-838.104 466.5,-838.104"/>
</g>
<!-- F3 -->
<g id="node47" class="node"><title>F3</title>
<text text-anchor="middle" x="463" y="-731.199" font-family="arial" font-size="16.00">F3</text>
</g>
<!-- F2&#45;&gt;F3 -->
<g id="edge50" class="edge"><title>F2&#45;&gt;F3</title>
<path fill="none" stroke="#2ca02c" stroke-width="2" d="M463,-791.697C463,-783.983 463,-774.712 463,-766.112"/>
<polygon fill="#2ca02c" stroke="#2ca02c" points="466.5,-766.104 463,-756.104 459.5,-766.104 466.5,-766.104"/>
</g>
<!-- F3&#45;&gt;C8 -->
<g id="edge51" class="edge"><title>F3&#45;&gt;C8</title>
<path fill="none" stroke="#2ca02c" stroke-width="2" d="M457.85,-719.89C454.813,-709.545 450.992,-696.066 448,-684 442.899,-663.427 437.926,-639.975 434.348,-622.311"/>
<polygon fill="#2ca02c" stroke="#2ca02c" points="437.707,-621.257 432.312,-612.138 430.843,-622.631 437.707,-621.257"/>
</g>
<!-- F3&#45;&gt;F4 -->
<g id="edge52" class="edge"><title>F3&#45;&gt;F4</title>
<path fill="none" stroke="#2ca02c" stroke-width="2" d="M468.191,-719.697C470.531,-711.898 473.347,-702.509 475.951,-693.829"/>
<polygon fill="#2ca02c" stroke="#2ca02c" points="479.348,-694.688 478.869,-684.104 472.643,-692.677 479.348,-694.688"/>
</g>
<!-- G1 -->
<g id="node48" class="node"><title>G1</title>
<text text-anchor="middle" x="556" y="-1235.2" font-family="arial" font-size="16.00">G1</text>
</g>
<!-- G1&#45;&gt;E2&#45;G2 -->
<g id="edge56" class="edge"><title>G1&#45;&gt;E2&#45;G2</title>
<path fill="none" stroke="#d62728" stroke-width="2" d="M556,-1223.7C556,-1215.98 556,-1206.71 556,-1198.11"/>
<polygon fill="#d62728" stroke="#d62728" points="559.5,-1198.1 556,-1188.1 552.5,-1198.1 559.5,-1198.1"/>
</g>
<!-- G3&#45;&gt;C7 -->
<g id="edge58" class="edge"><title>G3&#45;&gt;C7</title>
<path fill="none" stroke="#d62728" stroke-width="2" d="M601.69,-1079.91C612.794,-1053.62 632,-1001.45 632,-955 632,-955 632,-955 632,-809 632,-767.91 645.631,-721.925 655.631,-693.717"/>
<polygon fill="#d62728" stroke="#d62728" points="658.975,-694.765 659.12,-684.171 652.4,-692.362 658.975,-694.765"/>
</g>
<!-- G3&#45;&gt;E4 -->
<g id="edge59" class="edge"><title>G3&#45;&gt;E4</title>
<path fill="none" stroke="#d62728" stroke-width="2" d="M594,-1079.95C594,-1053.29 594,-1000.11 594,-955 594,-955 594,-955 594,-809 594,-768.996 594,-722.653 594,-694.08"/>
<polygon fill="#d62728" stroke="#d62728" points="597.5,-694.049 594,-684.049 590.5,-694.049 597.5,-694.049"/>
</g>
<!-- G3&#45;&gt;F2 -->
<g id="edge60" class="edge"><title>G3&#45;&gt;F2</title>
<path fill="none" stroke="#d62728" stroke-width="2" d="M588.374,-1079.78C575.211,-1040.4 540.368,-941.203 499,-864 494.009,-854.686 487.765,-844.986 481.885,-836.469"/>
<polygon fill="#d62728" stroke="#d62728" points="484.589,-834.231 475.957,-828.088 478.874,-838.273 484.589,-834.231"/>
</g>
<!-- G4 -->
<g id="node50" class="node"><title>G4</title>
<text text-anchor="middle" x="687" y="-1019.2" font-family="arial" font-size="16.00">G4</text>
</g>
<!-- G3&#45;&gt;G4 -->
<g id="edge61" class="edge"><title>G3&#45;&gt;G4</title>
<path fill="none" stroke="#d62728" stroke-width="2" d="M616.989,-1079.7C628.814,-1070.8 643.392,-1059.82 656.179,-1050.2"/>
<polygon fill="#d62728" stroke="#d62728" points="658.391,-1052.91 664.276,-1044.1 654.181,-1047.32 658.391,-1052.91"/>
</g>
<!-- G4a -->
<g id="node51" class="node"><title>G4a</title>
<text text-anchor="middle" x="687" y="-947.199" font-family="arial" font-size="16.00">G4a</text>
</g>
<!-- G4&#45;&gt;G4a -->
<g id="edge62" class="edge"><title>G4&#45;&gt;G4a</title>
<path fill="none" stroke="#d62728" stroke-width="2" d="M687,-1007.7C687,-999.983 687,-990.712 687,-982.112"/>
<polygon fill="#d62728" stroke="#d62728" points="690.5,-982.104 687,-972.104 683.5,-982.104 690.5,-982.104"/>
</g>
<!-- G4&#45;&gt;C3&#45;G5 -->
<g id="edge63" class="edge"><title>G4&#45;&gt;C3&#45;G5</title>
<path fill="none" stroke="#d62728" stroke-width="2" d="M706.034,-1007.7C715.545,-999.05 727.207,-988.449 737.57,-979.027"/>
<polygon fill="#d62728" stroke="#d62728" points="740.14,-981.421 745.185,-972.104 735.431,-976.241 740.14,-981.421"/>
</g>
<!-- G7&#45;&gt;CN1 -->
<g id="edge66" class="edge"><title>G7&#45;&gt;CN1</title>
<path fill="none" stroke="#d62728" stroke-width="2" d="M720.202,-575.697C711.396,-567.135 700.618,-556.656 690.999,-547.304"/>
<polygon fill="#d62728" stroke="#d62728" points="693.203,-544.566 683.593,-540.104 688.323,-549.585 693.203,-544.566"/>
</g>
<!-- G8 -->
<g id="node53" class="node"><title>G8</title>
<text text-anchor="middle" x="810" y="-515.199" font-family="arial" font-size="16.00">G8</text>
</g>
<!-- G7&#45;&gt;G8 -->
<g id="edge67" class="edge"><title>G7&#45;&gt;G8</title>
<path fill="none" stroke="#d62728" stroke-width="2" d="M755.798,-575.697C764.604,-567.135 775.382,-556.656 785.001,-547.304"/>
<polygon fill="#d62728" stroke="#d62728" points="787.677,-549.585 792.407,-540.104 782.797,-544.566 787.677,-549.585"/>
</g>
<!-- V1 -->
<g id="node54" class="node"><title>V1</title>
<text text-anchor="middle" x="738" y="-515.199" font-family="arial" font-size="16.00">V1</text>
</g>
<!-- G7&#45;&gt;V1 -->
<g id="edge68" class="edge"><title>G7&#45;&gt;V1</title>
<path fill="none" stroke="#d62728" stroke-width="2" d="M738,-575.697C738,-567.983 738,-558.712 738,-550.112"/>
<polygon fill="#d62728" stroke="#d62728" points="741.5,-550.104 738,-540.104 734.5,-550.104 741.5,-550.104"/>
</g>
<!-- G9 -->
<g id="node55" class="node"><title>G9</title>
<text text-anchor="middle" x="810" y="-443.199" font-family="arial" font-size="16.00">G9</text>
</g>
<!-- G8&#45;&gt;G9 -->
<g id="edge69" class="edge"><title>G8&#45;&gt;G9</title>
<path fill="none" stroke="#d62728" stroke-width="2" d="M810,-503.697C810,-495.983 810,-486.712 810,-478.112"/>
<polygon fill="#d62728" stroke="#d62728" points="813.5,-478.104 810,-468.104 806.5,-478.104 813.5,-478.104"/>
</g>
<!-- NA3 -->
<g id="node57" class="node"><title>NA3</title>
<text text-anchor="middle" x="319" y="-587.199" font-family="arial" font-size="16.00">NA3</text>
</g>
<!-- NA2&#45;&gt;NA3 -->
<g id="edge72" class="edge"><title>NA2&#45;&gt;NA3</title>
<path fill="none" stroke="#17becf" stroke-width="2" d="M291.899,-647.697C295.997,-639.728 300.949,-630.1 305.493,-621.264"/>
<polygon fill="#17becf" stroke="#17becf" points="308.742,-622.598 310.203,-612.104 302.517,-619.396 308.742,-622.598"/>
</g>
<!-- NA3&#45;&gt;NA4 -->
<g id="edge73" class="edge"><title>NA3&#45;&gt;NA4</title>
<path fill="none" stroke="#17becf" stroke-width="2" d="M328.393,-575.697C332.765,-567.644 338.057,-557.894 342.895,-548.982"/>
<polygon fill="#17becf" stroke="#17becf" points="346.02,-550.563 347.715,-540.104 339.868,-547.223 346.02,-550.563"/>
</g>
<!-- NA6 -->
<g id="node59" class="node"><title>NA6</title>
<text text-anchor="middle" x="429" y="-371.199" font-family="arial" font-size="16.00">NA6</text>
</g>
<!-- NA5&#45;&gt;NA6 -->
<g id="edge75" class="edge"><title>NA5&#45;&gt;NA6</title>
<path fill="none" stroke="#17becf" stroke-width="2" d="M429,-431.697C429,-423.983 429,-414.712 429,-406.112"/>
<polygon fill="#17becf" stroke="#17becf" points="432.5,-406.104 429,-396.104 425.5,-406.104 432.5,-406.104"/>
</g>
<!-- P1 -->
<g id="node60" class="node"><title>P1</title>
<text text-anchor="middle" x="98" y="-947.199" font-family="arial" font-size="16.00">P1</text>
</g>
<!-- P2 -->
<g id="node61" class="node"><title>P2</title>
<text text-anchor="middle" x="98" y="-875.199" font-family="arial" font-size="16.00">P2</text>
</g>
<!-- P1&#45;&gt;P2 -->
<g id="edge76" class="edge"><title>P1&#45;&gt;P2</title>
<path fill="none" stroke="#8c564b" stroke-width="2" d="M98,-935.697C98,-927.983 98,-918.712 98,-910.112"/>
<polygon fill="#8c564b" stroke="#8c564b" points="101.5,-910.104 98,-900.104 94.5001,-910.104 101.5,-910.104"/>
</g>
<!-- P2&#45;&gt;A3 -->
<g id="edge80" class="edge"><title>P2&#45;&gt;A3</title>
<path fill="none" stroke="#8c564b" stroke-width="2" d="M100.051,-863.871C102.948,-839.67 108.271,-795.211 111.721,-766.393"/>
<polygon fill="#8c564b" stroke="#8c564b" points="115.229,-766.534 112.942,-756.189 108.278,-765.702 115.229,-766.534"/>
</g>
<!-- P3 -->
<g id="node64" class="node"><title>P3</title>
<text text-anchor="middle" x="41" y="-803.199" font-family="arial" font-size="16.00">P3</text>
</g>
<!-- P2&#45;&gt;P3 -->
<g id="edge81" class="edge"><title>P2&#45;&gt;P3</title>
<path fill="none" stroke="#8c564b" stroke-width="2" d="M83.9101,-863.697C77.0766,-855.305 68.7431,-845.07 61.2442,-835.861"/>
<polygon fill="#8c564b" stroke="#8c564b" points="63.9561,-833.649 54.9278,-828.104 58.5281,-838.069 63.9561,-833.649"/>
</g>
<!-- P13 -->
<g id="node63" class="node"><title>P13</title>
<text text-anchor="middle" x="213" y="-83.1992" font-family="arial" font-size="16.00">P13</text>
</g>
<!-- P12&#45;&gt;P13 -->
<g id="edge79" class="edge"><title>P12&#45;&gt;P13</title>
<path fill="none" stroke="#8c564b" stroke-width="2" d="M213,-143.697C213,-135.983 213,-126.712 213,-118.112"/>
<polygon fill="#8c564b" stroke="#8c564b" points="216.5,-118.104 213,-108.104 209.5,-118.104 216.5,-118.104"/>
</g>
<!-- P4 -->
<g id="node65" class="node"><title>P4</title>
<text text-anchor="middle" x="33" y="-731.199" font-family="arial" font-size="16.00">P4</text>
</g>
<!-- P3&#45;&gt;P4 -->
<g id="edge82" class="edge"><title>P3&#45;&gt;P4</title>
<path fill="none" stroke="#8c564b" stroke-width="2" d="M39.0225,-791.697C38.1409,-783.983 37.0814,-774.712 36.0986,-766.112"/>
<polygon fill="#8c564b" stroke="#8c564b" points="39.5677,-765.642 34.9548,-756.104 32.613,-766.437 39.5677,-765.642"/>
</g>
<!-- P5 -->
<g id="node66" class="node"><title>P5</title>
<text text-anchor="middle" x="27" y="-659.199" font-family="arial" font-size="16.00">P5</text>
</g>
<!-- P4&#45;&gt;P5 -->
<g id="edge83" class="edge"><title>P4&#45;&gt;P5</title>
<path fill="none" stroke="#8c564b" stroke-width="2" d="M31.5169,-719.697C30.8557,-711.983 30.0611,-702.712 29.3239,-694.112"/>
<polygon fill="#8c564b" stroke="#8c564b" points="32.8074,-693.769 28.4661,-684.104 25.833,-694.367 32.8074,-693.769"/>
</g>
<!-- P6 -->
<g id="node67" class="node"><title>P6</title>
<text text-anchor="middle" x="27" y="-587.199" font-family="arial" font-size="16.00">P6</text>
</g>
<!-- P5&#45;&gt;P6 -->
<g id="edge84" class="edge"><title>P5&#45;&gt;P6</title>
<path fill="none" stroke="#8c564b" stroke-width="2" d="M27,-647.697C27,-639.983 27,-630.712 27,-622.112"/>
<polygon fill="#8c564b" stroke="#8c564b" points="30.5001,-622.104 27,-612.104 23.5001,-622.104 30.5001,-622.104"/>
</g>
<!-- P7 -->
<g id="node68" class="node"><title>P7</title>
<text text-anchor="middle" x="27" y="-515.199" font-family="arial" font-size="16.00">P7</text>
</g>
<!-- P6&#45;&gt;P7 -->
<g id="edge85" class="edge"><title>P6&#45;&gt;P7</title>
<path fill="none" stroke="#8c564b" stroke-width="2" d="M27,-575.697C27,-567.983 27,-558.712 27,-550.112"/>
<polygon fill="#8c564b" stroke="#8c564b" points="30.5001,-550.104 27,-540.104 23.5001,-550.104 30.5001,-550.104"/>
</g>
<!-- P8 -->
<g id="node69" class="node"><title>P8</title>
<text text-anchor="middle" x="27" y="-443.199" font-family="arial" font-size="16.00">P8</text>
</g>
<!-- P7&#45;&gt;P8 -->
<g id="edge86" class="edge"><title>P7&#45;&gt;P8</title>
<path fill="none" stroke="#8c564b" stroke-width="2" d="M27,-503.697C27,-495.983 27,-486.712 27,-478.112"/>
<polygon fill="#8c564b" stroke="#8c564b" points="30.5001,-478.104 27,-468.104 23.5001,-478.104 30.5001,-478.104"/>
</g>
<!-- P8&#45;&gt;P9 -->
<g id="edge87" class="edge"><title>P8&#45;&gt;P9</title>
<path fill="none" stroke="#8c564b" stroke-width="2" d="M40.5955,-431.697C47.1227,-423.389 55.068,-413.277 62.2466,-404.141"/>
<polygon fill="#8c564b" stroke="#8c564b" points="65.1347,-406.13 68.5609,-396.104 59.6305,-401.805 65.1347,-406.13"/>
</g>
</g>
</svg>
