<?xml version="1.0" encoding="UTF-8" standalone="no"?>
<!DOCTYPE svg PUBLIC "-//W3C//DTD SVG 1.1//EN"
 "http://www.w3.org/Graphics/SVG/1.1/DTD/svg11.dtd">
<!-- Generated by graphviz version 2.34.0 (20130907.0228)
 -->
<!-- Title: CMEP_Tube Pages: 1 -->
<svg width="644pt" height="1196pt"
 viewBox="0.00 0.00 644.00 1196.00" xmlns="http://www.w3.org/2000/svg" xmlns:xlink="http://www.w3.org/1999/xlink">
<g id="graph0" class="graph" transform="scale(1 1) rotate(0) translate(4 1192)">
<title>CMEP_Tube</title>
<polygon fill="white" stroke="white" points="-4,4 -4,-1192 640,-1192 640,4 -4,4"/>
<!-- A1 -->
<g id="node1" class="node"><title>A1</title>
<text text-anchor="middle" x="397" y="-803.199" font-family="arial" font-size="16.00">A1</text>
</g>
<!-- A2 -->
<g id="node2" class="node"><title>A2</title>
<text text-anchor="middle" x="397" y="-731.199" font-family="arial" font-size="16.00">A2</text>
</g>
<!-- A1&#45;&gt;A2 -->
<g id="edge1" class="edge"><title>A1&#45;&gt;A2</title>
<path fill="none" stroke="#9467bd" stroke-width="2" d="M397,-791.697C397,-783.983 397,-774.712 397,-766.112"/>
<polygon fill="#9467bd" stroke="#9467bd" points="400.5,-766.104 397,-756.104 393.5,-766.104 400.5,-766.104"/>
</g>
<!-- A3 -->
<g id="node3" class="node"><title>A3</title>
<text text-anchor="middle" x="361" y="-659.199" font-family="arial" font-size="16.00">A3</text>
</g>
<!-- A2&#45;&gt;A3 -->
<g id="edge2" class="edge"><title>A2&#45;&gt;A3</title>
<path fill="none" stroke="#9467bd" stroke-width="2" d="M388.101,-719.697C384.003,-711.728 379.051,-702.1 374.507,-693.264"/>
<polygon fill="#9467bd" stroke="#9467bd" points="377.483,-691.396 369.797,-684.104 371.258,-694.598 377.483,-691.396"/>
</g>
<!-- NA1 -->
<g id="node4" class="node"><title>NA1</title>
<text text-anchor="middle" x="433" y="-659.199" font-family="arial" font-size="16.00">NA1</text>
</g>
<!-- A2&#45;&gt;NA1 -->
<g id="edge3" class="edge"><title>A2&#45;&gt;NA1</title>
<path fill="none" stroke="#9467bd" stroke-width="2" d="M405.899,-719.697C409.997,-711.728 414.949,-702.1 419.493,-693.264"/>
<polygon fill="#9467bd" stroke="#9467bd" points="422.742,-694.598 424.203,-684.104 416.517,-691.396 422.742,-694.598"/>
</g>
<!-- A4 -->
<g id="node5" class="node"><title>A4</title>
<text text-anchor="middle" x="361" y="-587.199" font-family="arial" font-size="16.00">A4</text>
</g>
<!-- A3&#45;&gt;A4 -->
<g id="edge4" class="edge"><title>A3&#45;&gt;A4</title>
<path fill="none" stroke="#9467bd" stroke-width="2" d="M361,-647.697C361,-639.983 361,-630.712 361,-622.112"/>
<polygon fill="#9467bd" stroke="#9467bd" points="364.5,-622.104 361,-612.104 357.5,-622.104 364.5,-622.104"/>
</g>
<!-- A7 -->
<g id="node10" class="node"><title>A7</title>
<text text-anchor="middle" x="425" y="-371.199" font-family="arial" font-size="16.00">A7</text>
</g>
<!-- NA1&#45;&gt;A7 -->
<g id="edge55" class="edge"><title>NA1&#45;&gt;A7</title>
<path fill="none" stroke="#17becf" stroke-width="2" d="M432.524,-647.966C431.19,-600.291 427.411,-465.185 425.773,-406.63"/>
<polygon fill="#17becf" stroke="#17becf" points="429.262,-406.205 425.484,-396.306 422.265,-406.4 429.262,-406.205"/>
</g>
<!-- NA2 -->
<g id="node46" class="node"><title>NA2</title>
<text text-anchor="middle" x="471" y="-587.199" font-family="arial" font-size="16.00">NA2</text>
</g>
<!-- NA1&#45;&gt;NA2 -->
<g id="edge56" class="edge"><title>NA1&#45;&gt;NA2</title>
<path fill="none" stroke="#17becf" stroke-width="2" d="M442.393,-647.697C446.765,-639.644 452.057,-629.894 456.895,-620.982"/>
<polygon fill="#17becf" stroke="#17becf" points="460.02,-622.563 461.715,-612.104 453.868,-619.223 460.02,-622.563"/>
</g>
<!-- A5 -->
<g id="node6" class="node"><title>A5</title>
<text text-anchor="middle" x="361" y="-515.199" font-family="arial" font-size="16.00">A5</text>
</g>
<!-- A4&#45;&gt;A5 -->
<g id="edge5" class="edge"><title>A4&#45;&gt;A5</title>
<path fill="none" stroke="#9467bd" stroke-width="2" d="M361,-575.697C361,-567.983 361,-558.712 361,-550.112"/>
<polygon fill="#9467bd" stroke="#9467bd" points="364.5,-550.104 361,-540.104 357.5,-550.104 364.5,-550.104"/>
</g>
<!-- A6 -->
<g id="node7" class="node"><title>A6</title>
<text text-anchor="middle" x="361" y="-443.199" font-family="arial" font-size="16.00">A6</text>
</g>
<!-- A5&#45;&gt;A6 -->
<g id="edge6" class="edge"><title>A5&#45;&gt;A6</title>
<path fill="none" stroke="#9467bd" stroke-width="2" d="M361,-503.697C361,-495.983 361,-486.712 361,-478.112"/>
<polygon fill="#9467bd" stroke="#9467bd" points="364.5,-478.104 361,-468.104 357.5,-478.104 364.5,-478.104"/>
</g>
<!-- C11 -->
<g id="node8" class="node"><title>C11</title>
<text text-anchor="middle" x="340" y="-299.199" font-family="arial" font-size="16.00">C11</text>
</g>
<!-- A5&#45;&gt;C11 -->
<g id="edge7" class="edge"><title>A5&#45;&gt;C11</title>
<path fill="none" stroke="#9467bd" stroke-width="2" d="M345.967,-503.579C338.372,-493.778 329.777,-480.939 325,-468 308.33,-422.847 307.215,-407.126 317,-360 318.876,-350.965 322.374,-341.579 326.086,-333.261"/>
<polygon fill="#9467bd" stroke="#9467bd" points="329.322,-334.606 330.458,-324.072 323.001,-331.598 329.322,-334.606"/>
</g>
<!-- E6 -->
<g id="node9" class="node"><title>E6</title>
<text text-anchor="middle" x="505" y="-443.199" font-family="arial" font-size="16.00">E6</text>
</g>
<!-- A5&#45;&gt;E6 -->
<g id="edge8" class="edge"><title>A5&#45;&gt;E6</title>
<path fill="none" stroke="#9467bd" stroke-width="2" d="M388.085,-507.834C410.769,-496.807 443.357,-480.966 468.368,-468.807"/>
<polygon fill="#9467bd" stroke="#9467bd" points="470.083,-471.865 477.547,-464.345 467.023,-465.57 470.083,-471.865"/>
</g>
<!-- A6&#45;&gt;A7 -->
<g id="edge9" class="edge"><title>A6&#45;&gt;A7</title>
<path fill="none" stroke="#9467bd" stroke-width="2" d="M376.82,-431.697C384.57,-423.22 394.039,-412.864 402.524,-403.583"/>
<polygon fill="#9467bd" stroke="#9467bd" points="405.197,-405.846 409.362,-396.104 400.031,-401.123 405.197,-405.846"/>
</g>
<!-- C10 -->
<g id="node11" class="node"><title>C10</title>
<text text-anchor="middle" x="353" y="-371.199" font-family="arial" font-size="16.00">C10</text>
</g>
<!-- A6&#45;&gt;C10 -->
<g id="edge10" class="edge"><title>A6&#45;&gt;C10</title>
<path fill="none" stroke="#9467bd" stroke-width="2" d="M359.022,-431.697C358.141,-423.983 357.081,-414.712 356.099,-406.112"/>
<polygon fill="#9467bd" stroke="#9467bd" points="359.568,-405.642 354.955,-396.104 352.613,-406.437 359.568,-405.642"/>
</g>
<!-- C12 -->
<g id="node19" class="node"><title>C12</title>
<text text-anchor="middle" x="340" y="-227.199" font-family="arial" font-size="16.00">C12</text>
</g>
<!-- C11&#45;&gt;C12 -->
<g id="edge18" class="edge"><title>C11&#45;&gt;C12</title>
<path fill="none" stroke="#bcbd22" stroke-width="2" d="M340,-287.697C340,-279.983 340,-270.712 340,-262.112"/>
<polygon fill="#bcbd22" stroke="#bcbd22" points="343.5,-262.104 340,-252.104 336.5,-262.104 343.5,-262.104"/>
</g>
<!-- E7 -->
<g id="node36" class="node"><title>E7</title>
<text text-anchor="middle" x="505" y="-371.199" font-family="arial" font-size="16.00">E7</text>
</g>
<!-- E6&#45;&gt;E7 -->
<g id="edge39" class="edge"><title>E6&#45;&gt;E7</title>
<path fill="none" stroke="#1f77b4" stroke-width="2" d="M505,-431.697C505,-423.983 505,-414.712 505,-406.112"/>
<polygon fill="#1f77b4" stroke="#1f77b4" points="508.5,-406.104 505,-396.104 501.5,-406.104 508.5,-406.104"/>
</g>
<!-- A8 -->
<g id="node12" class="node"><title>A8</title>
<text text-anchor="middle" x="412" y="-155.199" font-family="arial" font-size="16.00">A8</text>
</g>
<!-- A7&#45;&gt;A8 -->
<g id="edge11" class="edge"><title>A7&#45;&gt;A8</title>
<path fill="none" stroke="#9467bd" stroke-width="2" d="M423.958,-359.849C421.709,-322.832 416.385,-235.181 413.664,-190.386"/>
<polygon fill="#9467bd" stroke="#9467bd" points="417.147,-190.002 413.047,-180.232 410.16,-190.426 417.147,-190.002"/>
</g>
<!-- E9 -->
<g id="node13" class="node"><title>E9</title>
<text text-anchor="middle" x="486" y="-227.199" font-family="arial" font-size="16.00">E9</text>
</g>
<!-- A7&#45;&gt;E9 -->
<g id="edge12" class="edge"><title>A7&#45;&gt;E9</title>
<path fill="none" stroke="#9467bd" stroke-width="2" d="M432.358,-359.871C442.846,-335.457 462.19,-290.426 474.558,-261.635"/>
<polygon fill="#9467bd" stroke="#9467bd" points="477.885,-262.759 478.616,-252.189 471.453,-259.996 477.885,-262.759"/>
</g>
<!-- C10&#45;&gt;C11 -->
<g id="edge17" class="edge"><title>C10&#45;&gt;C11</title>
<path fill="none" stroke="#bcbd22" stroke-width="2" d="M349.787,-359.697C348.354,-351.983 346.632,-342.712 345.035,-334.112"/>
<polygon fill="#bcbd22" stroke="#bcbd22" points="348.444,-333.297 343.177,-324.104 341.561,-334.575 348.444,-333.297"/>
</g>
<!-- A9 -->
<g id="node14" class="node"><title>A9</title>
<text text-anchor="middle" x="412" y="-83.1992" font-family="arial" font-size="16.00">A9</text>
</g>
<!-- A8&#45;&gt;A9 -->
<g id="edge13" class="edge"><title>A8&#45;&gt;A9</title>
<path fill="none" stroke="#9467bd" stroke-width="2" d="M412,-143.697C412,-135.983 412,-126.712 412,-118.112"/>
<polygon fill="#9467bd" stroke="#9467bd" points="415.5,-118.104 412,-108.104 408.5,-118.104 415.5,-118.104"/>
</g>
<!-- C14 -->
<g id="node15" class="node"><title>C14</title>
<text text-anchor="middle" x="340" y="-83.1992" font-family="arial" font-size="16.00">C14</text>
</g>
<!-- A8&#45;&gt;C14 -->
<g id="edge14" class="edge"><title>A8&#45;&gt;C14</title>
<path fill="none" stroke="#9467bd" stroke-width="2" d="M394.202,-143.697C385.396,-135.135 374.618,-124.656 364.999,-115.304"/>
<polygon fill="#9467bd" stroke="#9467bd" points="367.203,-112.566 357.593,-108.104 362.323,-117.585 367.203,-112.566"/>
</g>
<!-- C15 -->
<g id="node16" class="node"><title>C15</title>
<text text-anchor="middle" x="376" y="-11.1992" font-family="arial" font-size="16.00">C15</text>
</g>
<!-- A9&#45;&gt;C15 -->
<g id="edge15" class="edge"><title>A9&#45;&gt;C15</title>
<path fill="none" stroke="#9467bd" stroke-width="2" d="M403.101,-71.6966C399.003,-63.7284 394.051,-54.0995 389.507,-45.2641"/>
<polygon fill="#9467bd" stroke="#9467bd" points="392.483,-43.3965 384.797,-36.1043 386.258,-46.598 392.483,-43.3965"/>
</g>
<!-- C14&#45;&gt;C15 -->
<g id="edge21" class="edge"><title>C14&#45;&gt;C15</title>
<path fill="none" stroke="#bcbd22" stroke-width="2" d="M348.899,-71.6966C352.997,-63.7284 357.949,-54.0995 362.493,-45.2641"/>
<polygon fill="#bcbd22" stroke="#bcbd22" points="365.742,-46.598 367.203,-36.1043 359.517,-43.3965 365.742,-46.598"/>
</g>
<!-- C1 -->
<g id="node17" class="node"><title>C1</title>
<text text-anchor="middle" x="31" y="-1019.2" font-family="arial" font-size="16.00">C1</text>
</g>
<!-- C2 -->
<g id="node18" class="node"><title>C2</title>
<text text-anchor="middle" x="31" y="-947.199" font-family="arial" font-size="16.00">C2</text>
</g>
<!-- C1&#45;&gt;C2 -->
<g id="edge16" class="edge"><title>C1&#45;&gt;C2</title>
<path fill="none" stroke="#bcbd22" stroke-width="2" d="M31,-1007.7C31,-999.983 31,-990.712 31,-982.112"/>
<polygon fill="#bcbd22" stroke="#bcbd22" points="34.5001,-982.104 31,-972.104 27.5001,-982.104 34.5001,-982.104"/>
</g>
<!-- C3&#45;G5 -->
<g id="node21" class="node"><title>C3&#45;G5</title>
<text text-anchor="middle" x="64" y="-875.199" font-family="arial" font-size="16.00">C3&#45;G5</text>
</g>
<!-- C2&#45;&gt;C3&#45;G5 -->
<g id="edge22" class="edge"><title>C2&#45;&gt;C3&#45;G5</title>
<path fill="none" stroke="#bcbd22" stroke-width="2" d="M39.1573,-935.697C42.9138,-927.728 47.4531,-918.1 51.6183,-909.264"/>
<polygon fill="#bcbd22" stroke="#bcbd22" points="54.8381,-910.642 55.9365,-900.104 48.5064,-907.657 54.8381,-910.642"/>
</g>
<!-- C13 -->
<g id="node20" class="node"><title>C13</title>
<text text-anchor="middle" x="340" y="-155.199" font-family="arial" font-size="16.00">C13</text>
</g>
<!-- C12&#45;&gt;C13 -->
<g id="edge19" class="edge"><title>C12&#45;&gt;C13</title>
<path fill="none" stroke="#bcbd22" stroke-width="2" d="M340,-215.697C340,-207.983 340,-198.712 340,-190.112"/>
<polygon fill="#bcbd22" stroke="#bcbd22" points="343.5,-190.104 340,-180.104 336.5,-190.104 343.5,-190.104"/>
</g>
<!-- C13&#45;&gt;C14 -->
<g id="edge20" class="edge"><title>C13&#45;&gt;C14</title>
<path fill="none" stroke="#bcbd22" stroke-width="2" d="M340,-143.697C340,-135.983 340,-126.712 340,-118.112"/>
<polygon fill="#bcbd22" stroke="#bcbd22" points="343.5,-118.104 340,-108.104 336.5,-118.104 343.5,-118.104"/>
</g>
<!-- C4 -->
<g id="node22" class="node"><title>C4</title>
<text text-anchor="middle" x="119" y="-803.199" font-family="arial" font-size="16.00">C4</text>
</g>
<!-- C3&#45;G5&#45;&gt;C4 -->
<g id="edge23" class="edge"><title>C3&#45;G5&#45;&gt;C4</title>
<path fill="none" stroke="#bcbd22" stroke-width="2" d="M77.5955,-863.697C84.1227,-855.389 92.068,-845.277 99.2466,-836.141"/>
<polygon fill="#bcbd22" stroke="#bcbd22" points="102.135,-838.13 105.561,-828.104 96.6305,-833.805 102.135,-838.13"/>
</g>
<!-- G6 -->
<g id="node26" class="node"><title>G6</title>
<text text-anchor="middle" x="99" y="-587.199" font-family="arial" font-size="16.00">G6</text>
</g>
<!-- C3&#45;G5&#45;&gt;G6 -->
<g id="edge49" class="edge"><title>C3&#45;G5&#45;&gt;G6</title>
<path fill="none" stroke="#d62728" stroke-width="2" d="M64.1603,-863.878C64.7915,-825.103 67.8873,-727.752 83,-648 84.6285,-639.406 87.1209,-630.225 89.6573,-621.96"/>
<polygon fill="#d62728" stroke="#d62728" points="92.9913,-623.026 92.7179,-612.434 86.3268,-620.884 92.9913,-623.026"/>
</g>
<!-- C5 -->
<g id="node23" class="node"><title>C5</title>
<text text-anchor="middle" x="119" y="-731.199" font-family="arial" font-size="16.00">C5</text>
</g>
<!-- C4&#45;&gt;C5 -->
<g id="edge24" class="edge"><title>C4&#45;&gt;C5</title>
<path fill="none" stroke="#bcbd22" stroke-width="2" d="M119,-791.697C119,-783.983 119,-774.712 119,-766.112"/>
<polygon fill="#bcbd22" stroke="#bcbd22" points="122.5,-766.104 119,-756.104 115.5,-766.104 122.5,-766.104"/>
</g>
<!-- C6 -->
<g id="node24" class="node"><title>C6</title>
<text text-anchor="middle" x="119" y="-659.199" font-family="arial" font-size="16.00">C6</text>
</g>
<!-- C5&#45;&gt;C6 -->
<g id="edge25" class="edge"><title>C5&#45;&gt;C6</title>
<path fill="none" stroke="#bcbd22" stroke-width="2" d="M119,-719.697C119,-711.983 119,-702.712 119,-694.112"/>
<polygon fill="#bcbd22" stroke="#bcbd22" points="122.5,-694.104 119,-684.104 115.5,-694.104 122.5,-694.104"/>
</g>
<!-- C7 -->
<g id="node25" class="node"><title>C7</title>
<text text-anchor="middle" x="196" y="-587.199" font-family="arial" font-size="16.00">C7</text>
</g>
<!-- C6&#45;&gt;C7 -->
<g id="edge26" class="edge"><title>C6&#45;&gt;C7</title>
<path fill="none" stroke="#bcbd22" stroke-width="2" d="M138.034,-647.697C147.545,-639.05 159.207,-628.449 169.57,-619.027"/>
<polygon fill="#bcbd22" stroke="#bcbd22" points="172.14,-621.421 177.185,-612.104 167.431,-616.241 172.14,-621.421"/>
</g>
<!-- C6&#45;&gt;G6 -->
<g id="edge27" class="edge"><title>C6&#45;&gt;G6</title>
<path fill="none" stroke="#bcbd22" stroke-width="2" d="M114.056,-647.697C111.828,-639.898 109.145,-630.509 106.665,-621.829"/>
<polygon fill="#bcbd22" stroke="#bcbd22" points="110,-620.758 103.887,-612.104 103.269,-622.681 110,-620.758"/>
</g>
<!-- C8 -->
<g id="node27" class="node"><title>C8</title>
<text text-anchor="middle" x="216" y="-515.199" font-family="arial" font-size="16.00">C8</text>
</g>
<!-- C7&#45;&gt;C8 -->
<g id="edge28" class="edge"><title>C7&#45;&gt;C8</title>
<path fill="none" stroke="#bcbd22" stroke-width="2" d="M200.944,-575.697C203.172,-567.898 205.855,-558.509 208.335,-549.829"/>
<polygon fill="#bcbd22" stroke="#bcbd22" points="211.731,-550.681 211.113,-540.104 205,-548.758 211.731,-550.681"/>
</g>
<!-- G7 -->
<g id="node42" class="node"><title>G7</title>
<text text-anchor="middle" x="99" y="-515.199" font-family="arial" font-size="16.00">G7</text>
</g>
<!-- G6&#45;&gt;G7 -->
<g id="edge50" class="edge"><title>G6&#45;&gt;G7</title>
<path fill="none" stroke="#d62728" stroke-width="2" d="M99,-575.697C99,-567.983 99,-558.712 99,-550.112"/>
<polygon fill="#d62728" stroke="#d62728" points="102.5,-550.104 99,-540.104 95.5001,-550.104 102.5,-550.104"/>
</g>
<!-- C9 -->
<g id="node28" class="node"><title>C9</title>
<text text-anchor="middle" x="243" y="-443.199" font-family="arial" font-size="16.00">C9</text>
</g>
<!-- C8&#45;&gt;C9 -->
<g id="edge29" class="edge"><title>C8&#45;&gt;C9</title>
<path fill="none" stroke="#bcbd22" stroke-width="2" d="M222.674,-503.697C225.715,-495.813 229.383,-486.304 232.761,-477.546"/>
<polygon fill="#bcbd22" stroke="#bcbd22" points="236.069,-478.694 236.403,-468.104 229.538,-476.175 236.069,-478.694"/>
</g>
<!-- C9&#45;&gt;C10 -->
<g id="edge30" class="edge"><title>C9&#45;&gt;C10</title>
<path fill="none" stroke="#bcbd22" stroke-width="2" d="M269.909,-431.876C284.158,-422.808 301.846,-411.552 317.236,-401.759"/>
<polygon fill="#bcbd22" stroke="#bcbd22" points="319.43,-404.511 325.988,-396.19 315.672,-398.606 319.43,-404.511"/>
</g>
<!-- E1 -->
<g id="node29" class="node"><title>E1</title>
<text text-anchor="middle" x="470" y="-1163.2" font-family="arial" font-size="16.00">E1</text>
</g>
<!-- E2&#45;G2 -->
<g id="node30" class="node"><title>E2&#45;G2</title>
<text text-anchor="middle" x="232" y="-1091.2" font-family="arial" font-size="16.00">E2&#45;G2</text>
</g>
<!-- E1&#45;&gt;E2&#45;G2 -->
<g id="edge31" class="edge"><title>E1&#45;&gt;E2&#45;G2</title>
<path fill="none" stroke="#1f77b4" stroke-width="2" d="M442.698,-1160.97C401.092,-1148.73 321.537,-1125.33 272.977,-1111.05"/>
<polygon fill="#1f77b4" stroke="#1f77b4" points="273.692,-1107.61 263.111,-1108.15 271.717,-1114.33 273.692,-1107.61"/>
</g>
<!-- NA4 -->
<g id="node31" class="node"><title>NA4</title>
<text text-anchor="middle" x="585" y="-443.199" font-family="arial" font-size="16.00">NA4</text>
</g>
<!-- E1&#45;&gt;NA4 -->
<g id="edge32" class="edge"><title>E1&#45;&gt;NA4</title>
<path fill="none" stroke="#1f77b4" stroke-width="2" d="M497.04,-1160.06C544.078,-1142.6 636,-1099.25 636,-1027 636,-1027 636,-1027 636,-593 636,-552.553 631.881,-541.61 617,-504 613.341,-494.752 608.146,-485.265 603.004,-476.92"/>
<polygon fill="#1f77b4" stroke="#1f77b4" points="605.868,-474.903 597.52,-468.379 599.978,-478.685 605.868,-474.903"/>
</g>
<!-- E2&#45;G2&#45;&gt;C3&#45;G5 -->
<g id="edge33" class="edge"><title>E2&#45;G2&#45;&gt;C3&#45;G5</title>
<path fill="none" stroke="#1f77b4" stroke-width="2" d="M204.92,-1079.78C190.772,-1070.14 173.619,-1057.38 160,-1044 131.274,-1015.78 125.773,-1006.5 105,-972 92.9304,-951.956 81.9958,-927.762 74.4602,-909.662"/>
<polygon fill="#1f77b4" stroke="#1f77b4" points="77.6576,-908.233 70.6378,-900.298 71.1768,-910.879 77.6576,-908.233"/>
</g>
<!-- E3 -->
<g id="node32" class="node"><title>E3</title>
<text text-anchor="middle" x="268" y="-1019.2" font-family="arial" font-size="16.00">E3</text>
</g>
<!-- E2&#45;G2&#45;&gt;E3 -->
<g id="edge34" class="edge"><title>E2&#45;G2&#45;&gt;E3</title>
<path fill="none" stroke="#1f77b4" stroke-width="2" d="M240.899,-1079.7C244.997,-1071.73 249.949,-1062.1 254.493,-1053.26"/>
<polygon fill="#1f77b4" stroke="#1f77b4" points="257.742,-1054.6 259.203,-1044.1 251.517,-1051.4 257.742,-1054.6"/>
</g>
<!-- G3 -->
<g id="node39" class="node"><title>G3</title>
<text text-anchor="middle" x="196" y="-1019.2" font-family="arial" font-size="16.00">G3</text>
</g>
<!-- E2&#45;G2&#45;&gt;G3 -->
<g id="edge43" class="edge"><title>E2&#45;G2&#45;&gt;G3</title>
<path fill="none" stroke="#d62728" stroke-width="2" d="M223.101,-1079.7C219.003,-1071.73 214.051,-1062.1 209.507,-1053.26"/>
<polygon fill="#d62728" stroke="#d62728" points="212.483,-1051.4 204.797,-1044.1 206.258,-1054.6 212.483,-1051.4"/>
</g>
<!-- NA5 -->
<g id="node48" class="node"><title>NA5</title>
<text text-anchor="middle" x="585" y="-371.199" font-family="arial" font-size="16.00">NA5</text>
</g>
<!-- NA4&#45;&gt;NA5 -->
<g id="edge59" class="edge"><title>NA4&#45;&gt;NA5</title>
<path fill="none" stroke="#17becf" stroke-width="2" d="M585,-431.697C585,-423.983 585,-414.712 585,-406.112"/>
<polygon fill="#17becf" stroke="#17becf" points="588.5,-406.104 585,-396.104 581.5,-406.104 588.5,-406.104"/>
</g>
<!-- CN1 -->
<g id="node33" class="node"><title>CN1</title>
<text text-anchor="middle" x="171" y="-443.199" font-family="arial" font-size="16.00">CN1</text>
</g>
<!-- E3&#45;&gt;CN1 -->
<g id="edge35" class="edge"><title>E3&#45;&gt;CN1</title>
<path fill="none" stroke="#1f77b4" stroke-width="2" d="M275.69,-1007.91C286.794,-981.623 306,-929.447 306,-883 306,-883 306,-883 306,-593 306,-535.565 247.272,-492.121 207.286,-469.197"/>
<polygon fill="#1f77b4" stroke="#1f77b4" points="208.761,-466.013 198.319,-464.217 205.362,-472.132 208.761,-466.013"/>
</g>
<!-- E4 -->
<g id="node34" class="node"><title>E4</title>
<text text-anchor="middle" x="251" y="-947.199" font-family="arial" font-size="16.00">E4</text>
</g>
<!-- E3&#45;&gt;E4 -->
<g id="edge36" class="edge"><title>E3&#45;&gt;E4</title>
<path fill="none" stroke="#1f77b4" stroke-width="2" d="M263.798,-1007.7C261.904,-999.898 259.623,-990.509 257.516,-981.829"/>
<polygon fill="#1f77b4" stroke="#1f77b4" points="260.915,-980.996 255.154,-972.104 254.113,-982.648 260.915,-980.996"/>
</g>
<!-- E5 -->
<g id="node35" class="node"><title>E5</title>
<text text-anchor="middle" x="516" y="-803.199" font-family="arial" font-size="16.00">E5</text>
</g>
<!-- E4&#45;&gt;E5 -->
<g id="edge37" class="edge"><title>E4&#45;&gt;E5</title>
<path fill="none" stroke="#1f77b4" stroke-width="2" d="M278.362,-938.338C326.49,-912.549 426.27,-859.082 479.952,-830.316"/>
<polygon fill="#1f77b4" stroke="#1f77b4" points="481.626,-833.39 488.787,-825.582 478.32,-827.22 481.626,-833.39"/>
</g>
<!-- E5&#45;&gt;E6 -->
<g id="edge38" class="edge"><title>E5&#45;&gt;E6</title>
<path fill="none" stroke="#1f77b4" stroke-width="2" d="M517.976,-791.978C520.89,-765.355 526,-712.226 526,-667 526,-667 526,-667 526,-593 526,-552.782 517.654,-506.839 511.485,-478.372"/>
<polygon fill="#1f77b4" stroke="#1f77b4" points="514.846,-477.362 509.25,-468.366 508.015,-478.889 514.846,-477.362"/>
</g>
<!-- E8 -->
<g id="node37" class="node"><title>E8</title>
<text text-anchor="middle" x="505" y="-299.199" font-family="arial" font-size="16.00">E8</text>
</g>
<!-- E7&#45;&gt;E8 -->
<g id="edge40" class="edge"><title>E7&#45;&gt;E8</title>
<path fill="none" stroke="#1f77b4" stroke-width="2" d="M505,-359.697C505,-351.983 505,-342.712 505,-334.112"/>
<polygon fill="#1f77b4" stroke="#1f77b4" points="508.5,-334.104 505,-324.104 501.5,-334.104 508.5,-334.104"/>
</g>
<!-- E8&#45;&gt;E9 -->
<g id="edge41" class="edge"><title>E8&#45;&gt;E9</title>
<path fill="none" stroke="#1f77b4" stroke-width="2" d="M500.303,-287.697C498.187,-279.898 495.638,-270.509 493.282,-261.829"/>
<polygon fill="#1f77b4" stroke="#1f77b4" points="496.64,-260.838 490.643,-252.104 489.884,-262.672 496.64,-260.838"/>
</g>
<!-- G1 -->
<g id="node38" class="node"><title>G1</title>
<text text-anchor="middle" x="232" y="-1163.2" font-family="arial" font-size="16.00">G1</text>
</g>
<!-- G1&#45;&gt;E2&#45;G2 -->
<g id="edge42" class="edge"><title>G1&#45;&gt;E2&#45;G2</title>
<path fill="none" stroke="#d62728" stroke-width="2" d="M232,-1151.7C232,-1143.98 232,-1134.71 232,-1126.11"/>
<polygon fill="#d62728" stroke="#d62728" points="235.5,-1126.1 232,-1116.1 228.5,-1126.1 235.5,-1126.1"/>
</g>
<!-- G3&#45;&gt;C7 -->
<g id="edge44" class="edge"><title>G3&#45;&gt;C7</title>
<path fill="none" stroke="#d62728" stroke-width="2" d="M196,-1007.95C196,-981.292 196,-928.115 196,-883 196,-883 196,-883 196,-737 196,-696.996 196,-650.653 196,-622.08"/>
<polygon fill="#d62728" stroke="#d62728" points="199.5,-622.049 196,-612.049 192.5,-622.049 199.5,-622.049"/>
</g>
<!-- G3&#45;&gt;E4 -->
<g id="edge45" class="edge"><title>G3&#45;&gt;E4</title>
<path fill="none" stroke="#d62728" stroke-width="2" d="M209.596,-1007.7C216.123,-999.389 224.068,-989.277 231.247,-980.141"/>
<polygon fill="#d62728" stroke="#d62728" points="234.135,-982.13 237.561,-972.104 228.631,-977.805 234.135,-982.13"/>
</g>
<!-- G4 -->
<g id="node40" class="node"><title>G4</title>
<text text-anchor="middle" x="141" y="-947.199" font-family="arial" font-size="16.00">G4</text>
</g>
<!-- G3&#45;&gt;G4 -->
<g id="edge46" class="edge"><title>G3&#45;&gt;G4</title>
<path fill="none" stroke="#d62728" stroke-width="2" d="M182.404,-1007.7C175.877,-999.389 167.932,-989.277 160.753,-980.141"/>
<polygon fill="#d62728" stroke="#d62728" points="163.369,-977.805 154.439,-972.104 157.865,-982.13 163.369,-977.805"/>
</g>
<!-- G4&#45;&gt;C3&#45;G5 -->
<g id="edge48" class="edge"><title>G4&#45;&gt;C3&#45;G5</title>
<path fill="none" stroke="#d62728" stroke-width="2" d="M121.966,-935.697C112.455,-927.05 100.793,-916.449 90.4297,-907.027"/>
<polygon fill="#d62728" stroke="#d62728" points="92.5686,-904.241 82.8148,-900.104 87.8598,-909.421 92.5686,-904.241"/>
</g>
<!-- G4a -->
<g id="node41" class="node"><title>G4a</title>
<text text-anchor="middle" x="141" y="-875.199" font-family="arial" font-size="16.00">G4a</text>
</g>
<!-- G4&#45;&gt;G4a -->
<g id="edge47" class="edge"><title>G4&#45;&gt;G4a</title>
<path fill="none" stroke="#d62728" stroke-width="2" d="M141,-935.697C141,-927.983 141,-918.712 141,-910.112"/>
<polygon fill="#d62728" stroke="#d62728" points="144.5,-910.104 141,-900.104 137.5,-910.104 144.5,-910.104"/>
</g>
<!-- G7&#45;&gt;CN1 -->
<g id="edge51" class="edge"><title>G7&#45;&gt;CN1</title>
<path fill="none" stroke="#d62728" stroke-width="2" d="M116.798,-503.697C125.604,-495.135 136.382,-484.656 146.001,-475.304"/>
<polygon fill="#d62728" stroke="#d62728" points="148.677,-477.585 153.407,-468.104 143.797,-472.566 148.677,-477.585"/>
</g>
<!-- G8 -->
<g id="node43" class="node"><title>G8</title>
<text text-anchor="middle" x="99" y="-443.199" font-family="arial" font-size="16.00">G8</text>
</g>
<!-- G7&#45;&gt;G8 -->
<g id="edge52" class="edge"><title>G7&#45;&gt;G8</title>
<path fill="none" stroke="#d62728" stroke-width="2" d="M99,-503.697C99,-495.983 99,-486.712 99,-478.112"/>
<polygon fill="#d62728" stroke="#d62728" points="102.5,-478.104 99,-468.104 95.5001,-478.104 102.5,-478.104"/>
</g>
<!-- V1 -->
<g id="node44" class="node"><title>V1</title>
<text text-anchor="middle" x="27" y="-443.199" font-family="arial" font-size="16.00">V1</text>
</g>
<!-- G7&#45;&gt;V1 -->
<g id="edge53" class="edge"><title>G7&#45;&gt;V1</title>
<path fill="none" stroke="#d62728" stroke-width="2" d="M81.2022,-503.697C72.396,-495.135 61.6179,-484.656 51.9989,-475.304"/>
<polygon fill="#d62728" stroke="#d62728" points="54.2028,-472.566 44.593,-468.104 49.3232,-477.585 54.2028,-472.566"/>
</g>
<!-- G9 -->
<g id="node45" class="node"><title>G9</title>
<text text-anchor="middle" x="99" y="-371.199" font-family="arial" font-size="16.00">G9</text>
</g>
<!-- G8&#45;&gt;G9 -->
<g id="edge54" class="edge"><title>G8&#45;&gt;G9</title>
<path fill="none" stroke="#d62728" stroke-width="2" d="M99,-431.697C99,-423.983 99,-414.712 99,-406.112"/>
<polygon fill="#d62728" stroke="#d62728" points="102.5,-406.104 99,-396.104 95.5001,-406.104 102.5,-406.104"/>
</g>
<!-- NA3 -->
<g id="node47" class="node"><title>NA3</title>
<text text-anchor="middle" x="581" y="-515.199" font-family="arial" font-size="16.00">NA3</text>
</g>
<!-- NA2&#45;&gt;NA3 -->
<g id="edge57" class="edge"><title>NA2&#45;&gt;NA3</title>
<path fill="none" stroke="#17becf" stroke-width="2" d="M497.909,-575.876C512.158,-566.808 529.846,-555.552 545.236,-545.759"/>
<polygon fill="#17becf" stroke="#17becf" points="547.43,-548.511 553.988,-540.19 543.672,-542.606 547.43,-548.511"/>
</g>
<!-- NA3&#45;&gt;NA4 -->
<g id="edge58" class="edge"><title>NA3&#45;&gt;NA4</title>
<path fill="none" stroke="#17becf" stroke-width="2" d="M581.989,-503.697C582.43,-495.983 582.959,-486.712 583.451,-478.112"/>
<polygon fill="#17becf" stroke="#17becf" points="586.946,-478.288 584.023,-468.104 579.958,-477.888 586.946,-478.288"/>
</g>
<!-- NA6 -->
<g id="node49" class="node"><title>NA6</title>
<text text-anchor="middle" x="585" y="-299.199" font-family="arial" font-size="16.00">NA6</text>
</g>
<!-- NA5&#45;&gt;NA6 -->
<g id="edge60" class="edge"><title>NA5&#45;&gt;NA6</title>
<path fill="none" stroke="#17becf" stroke-width="2" d="M585,-359.697C585,-351.983 585,-342.712 585,-334.112"/>
<polygon fill="#17becf" stroke="#17becf" points="588.5,-334.104 585,-324.104 581.5,-334.104 588.5,-334.104"/>
</g>
</g>
</svg>
