<?xml version="1.0" encoding="utf-8"?>
<!-- Generator: Adobe Illustrator 15.0.2, SVG Export Plug-In . SVG Version: 6.00 Build 0)  -->
<!DOCTYPE svg PUBLIC "-//W3C//DTD SVG 1.1//EN" "http://www.w3.org/Graphics/SVG/1.1/DTD/svg11.dtd">
<svg version="1.1" xmlns="http://www.w3.org/2000/svg" xmlns:xlink="http://www.w3.org/1999/xlink" x="0px" y="0px"
	 width="255.515px" height="255.516px" viewBox="196.985 8.451 255.515 255.516"
	 enable-background="new 196.985 8.451 255.515 255.516" xml:space="preserve">
<g id="Layer_2">
	<g>
		
			<image overflow="visible" opacity="0.75" width="266" height="266" xlink:href="BDD3FA66.png"  transform="matrix(1 0 0 1 192.3174 4.1172)">
		</image>
		<g>
			<rect x="199.984" y="11.117" fill="#FFFFFF" width="247" height="247.333"/>
		</g>
	</g>
</g>
<g id="Layer_3">
	<defs>
		<rect id="SVGID_1_" x="199.984" y="11.117" width="247" height="247.333"/>
	</defs>
	<clipPath id="SVGID_2_">
		<use xlink:href="#SVGID_1_"  overflow="visible"/>
	</clipPath>
	<g id="Layer_1" clip-path="url(#SVGID_2_)">
		<g id="graph0" transform="scale(1 1) rotate(0) translate(4 1336)">
			<title>CMEP_Tube</title>
			<polygon display="none" fill="#FFFFFF" stroke="#FFFFFF" points="-3.872,5.561 -3.872,-1335.439 653.128,-1335.439 
				653.128,5.561 			"/>
			<g id="node1">
				<title>A1</title>
				<text transform="matrix(1 0 0 1 387.6768 -1097.3052)" font-family="'ArialMT'" font-size="16">A1</text>
			</g>
			<g id="node2">
				<title>A2</title>
				<text transform="matrix(1 0 0 1 510.3428 -874.6387)" font-family="'ArialMT'" font-size="16">A2</text>
			</g>
			<g id="edge1">
				<title>A1-&gt;A2</title>
				<path fill="none" stroke="#9467BD" stroke-width="2" d="M520.128-935.137c0,7.714,0,16.985,0,25.585"/>
				<polygon fill="#9467BD" stroke="#9467BD" points="523.628,-909.543 520.128,-899.543 516.628,-909.543 				"/>
			</g>
			<g id="node3">
				<title>A3</title>
				<text transform="matrix(1 0 0 1 474.3428 -802.6387)" font-family="'ArialMT'" font-size="16">A3</text>
			</g>
			<g id="edge2">
				<title>A2-&gt;A3</title>
				<path fill="none" stroke="#9467BD" stroke-width="2" d="M511.229-863.137c-4.098,7.969-9.05,17.598-13.594,26.434"/>
				<polygon fill="#9467BD" stroke="#9467BD" points="500.611,-834.836 492.925,-827.543 494.386,-838.037 				"/>
			</g>
			<g id="node4">
				<title>NA1</title>
				<text transform="matrix(1 0 0 1 540.5654 -802.6387)" font-family="'ArialMT'" font-size="16">NA1</text>
			</g>
			<g id="edge3">
				<title>A2-&gt;NA1</title>
				<path fill="none" stroke="#9467BD" stroke-width="2" d="M529.027-863.137c4.098,7.969,9.05,17.598,13.594,26.434"/>
				<polygon fill="#9467BD" stroke="#9467BD" points="545.87,-838.037 547.331,-827.543 539.645,-834.836 				"/>
			</g>
			<g id="node5">
				<title>A4</title>
				<text transform="matrix(1 0 0 1 473.3428 -730.6387)" font-family="'ArialMT'" font-size="16">A4</text>
			</g>
			<g id="edge4">
				<title>A3-&gt;A4</title>
				<path fill="none" stroke="#9467BD" stroke-width="2" d="M483.881-791.137c-0.11,7.714-0.243,16.985-0.366,25.585"/>
				<polygon fill="#9467BD" stroke="#9467BD" points="487.015,-765.492 483.372,-755.543 480.016,-765.593 				"/>
			</g>
			<g id="node10">
				<title>A7</title>
				<text transform="matrix(1 0 0 1 479.3428 -514.6387)" font-family="'ArialMT'" font-size="16">A7</text>
			</g>
			<g id="edge68">
				<title>NA1-&gt;A7</title>
				<path fill="none" stroke="#17BECF" stroke-width="2" d="M555.136-791.318c-2.668,39.177-11.677,137.975-38.008,215.879
					c-3.099,9.169-7.642,18.67-12.17,27.053"/>
				<polygon fill="#17BECF" stroke="#17BECF" points="507.892,-546.465 499.929,-539.476 501.796,-549.904 				"/>
			</g>
			<g id="node54">
				<title>NA2</title>
				<text transform="matrix(1 0 0 1 577.5654 -730.6387)" font-family="'ArialMT'" font-size="16">NA2</text>
			</g>
			<g id="edge69">
				<title>NA1-&gt;NA2</title>
				<path fill="none" stroke="#17BECF" stroke-width="2" d="M565.274-791.137c4.257,8.054,9.409,17.804,14.119,26.715"/>
				<polygon fill="#17BECF" stroke="#17BECF" points="582.508,-766.021 584.087,-755.543 576.32,-762.749 				"/>
			</g>
			<g id="node6">
				<title>A5</title>
				<text transform="matrix(1 0 0 1 404.3428 -658.6387)" font-family="'ArialMT'" font-size="16">A5</text>
			</g>
			<g id="edge5">
				<title>A4-&gt;A5</title>
				<path fill="none" stroke="#9467BD" stroke-width="2" d="M466.072-719.137c-8.439,8.562-18.77,19.041-27.987,28.394"/>
				<polygon fill="#9467BD" stroke="#9467BD" points="440.501,-688.208 430.988,-683.543 435.515,-693.122 				"/>
			</g>
			<g id="node7">
				<title>A6</title>
				<text transform="matrix(1 0 0 1 399.3428 -586.6387)" font-family="'ArialMT'" font-size="16">A6</text>
			</g>
			<g id="edge6">
				<title>A5-&gt;A6</title>
				<path fill="none" stroke="#9467BD" stroke-width="2" d="M412.892-647.137c-0.551,7.714-1.213,16.985-1.826,25.585"/>
				<polygon fill="#9467BD" stroke="#9467BD" points="414.553,-621.27 410.35,-611.543 407.571,-621.768 				"/>
			</g>
			<g id="node8">
				<title>C11</title>
				<text transform="matrix(1 0 0 1 313.0459 -442.6387)" font-family="'ArialMT'" font-size="16">C11</text>
			</g>
			<g id="edge7">
				<title>A5-&gt;C11</title>
				<path fill="none" stroke="#9467BD" stroke-width="2" d="M386.979-655.496c-30.202,10.562-76.06,28.648-85.852,44.057
					c-25.745,40.512-10.851,61.243,0,108c2.098,9.041,5.966,18.319,10.088,26.533"/>
				<polygon fill="#9467BD" stroke="#9467BD" points="314.442,-478.297 316.082,-467.828 308.272,-474.989 				"/>
			</g>
			<g id="node9">
				<title>E6</title>
				<text transform="matrix(1 0 0 1 471.3428 -586.6387)" font-family="'ArialMT'" font-size="16">E6</text>
			</g>
			<g id="edge8">
				<title>A5-&gt;E6</title>
				<path fill="none" stroke="#9467BD" stroke-width="2" d="M430.69-647.137c8.112,8.478,18.025,18.833,26.908,28.114"/>
				<polygon fill="#9467BD" stroke="#9467BD" points="460.371,-621.188 464.757,-611.543 455.313,-616.348 				"/>
			</g>
			<g id="edge9">
				<title>A6-&gt;A7</title>
				<path fill="none" stroke="#9467BD" stroke-width="2" d="M428.903-575.137c9.979,8.732,22.235,19.457,33.082,28.947"/>
				<polygon fill="#9467BD" stroke="#9467BD" points="464.359,-548.763 469.58,-539.543 459.75,-543.494 				"/>
			</g>
			<g id="node11">
				<title>C10</title>
				<text transform="matrix(1 0 0 1 322.4521 -514.6387)" font-family="'ArialMT'" font-size="16">C10</text>
			</g>
			<g id="edge10">
				<title>A6-&gt;C10</title>
				<path fill="none" stroke="#9467BD" stroke-width="2" d="M391.33-575.137c-8.806,8.562-19.584,19.041-29.203,28.394"/>
				<polygon fill="#9467BD" stroke="#9467BD" points="364.331,-544.006 354.721,-539.543 359.451,-549.024 				"/>
			</g>
			<g id="node20">
				<title>C12</title>
				<text transform="matrix(1 0 0 1 312.4521 -370.6387)" font-family="'ArialMT'" font-size="16">C12</text>
			</g>
			<g id="edge19">
				<title>C11-&gt;C12</title>
				<path fill="none" stroke="#BCBD22" stroke-width="2" d="M327.128-431.137c0,7.714,0,16.985,0,25.585"/>
				<polygon fill="#BCBD22" stroke="#BCBD22" points="330.628,-405.543 327.128,-395.543 323.628,-405.543 				"/>
			</g>
			<g id="node41">
				<title>E7</title>
				<text transform="matrix(1 0 0 1 402.3428 -514.6387)" font-family="'ArialMT'" font-size="16">E7</text>
			</g>
			<g id="edge44">
				<title>E6-&gt;E7</title>
				<path fill="none" stroke="#1F77B4" stroke-width="2" d="M464.072-575.137c-8.439,8.562-18.77,19.041-27.987,28.394"/>
				<polygon fill="#1F77B4" stroke="#1F77B4" points="438.501,-544.208 428.988,-539.543 433.515,-549.122 				"/>
			</g>
			<g id="node12">
				<title>A8</title>
				<text transform="matrix(1 0 0 1 449.3428 -226.6387)" font-family="'ArialMT'" font-size="16">A8</text>
			</g>
			<g id="edge11">
				<title>A7-&gt;A8</title>
				<path fill="none" stroke="#9467BD" stroke-width="2" d="M487.341-503.405c-5.011,47.773-19.231,183.343-25.353,241.7"/>
				<polygon fill="#9467BD" stroke="#9467BD" points="465.468,-261.326 460.943,-251.745 458.506,-262.057 				"/>
			</g>
			<g id="node13">
				<title>E9</title>
				<text transform="matrix(1 0 0 1 408.3428 -370.6387)" font-family="'ArialMT'" font-size="16">E9</text>
			</g>
			<g id="edge12">
				<title>A7-&gt;E9</title>
				<path fill="none" stroke="#9467BD" stroke-width="2" d="M480.563-503.311c-12.261,24.521-34.92,69.839-49.307,98.612"/>
				<polygon fill="#9467BD" stroke="#9467BD" points="434.325,-403.008 426.723,-395.629 428.063,-406.139 				"/>
			</g>
			<g id="edge18">
				<title>C10-&gt;C11</title>
				<path fill="none" stroke="#BCBD22" stroke-width="2" d="M334.656-503.137c-1.103,7.714-2.427,16.985-3.655,25.585"/>
				<polygon fill="#BCBD22" stroke="#BCBD22" points="334.451,-476.948 329.571,-467.543 327.521,-477.938 				"/>
			</g>
			<g id="node14">
				<title>A9</title>
				<text transform="matrix(1 0 0 1 449.3428 -154.6387)" font-family="'ArialMT'" font-size="16">A9</text>
			</g>
			<g id="edge13">
				<title>A8-&gt;A9</title>
				<path fill="none" stroke="#9467BD" stroke-width="2" d="M459.128-215.137c0,7.714,0,16.985,0,25.585"/>
				<polygon fill="#9467BD" stroke="#9467BD" points="462.628,-189.543 459.128,-179.543 455.628,-189.543 				"/>
			</g>
			<g id="node15">
				<title>C14</title>
				<text transform="matrix(1 0 0 1 372.4521 -154.6387)" font-family="'ArialMT'" font-size="16">C14</text>
			</g>
			<g id="edge14">
				<title>A8-&gt;C14</title>
				<path fill="none" stroke="#9467BD" stroke-width="2" d="M441.33-215.137c-8.806,8.562-19.584,19.041-29.203,28.394"/>
				<polygon fill="#9467BD" stroke="#9467BD" points="414.331,-184.006 404.721,-179.543 409.451,-189.024 				"/>
			</g>
			<g id="node16">
				<title>A10</title>
				<text transform="matrix(1 0 0 1 444.8936 -82.6387)" font-family="'ArialMT'" font-size="16">A10</text>
			</g>
			<g id="edge15">
				<title>A9-&gt;A10</title>
				<path fill="none" stroke="#9467BD" stroke-width="2" d="M459.128-143.137c0,7.714,0,16.985,0,25.585"/>
				<polygon fill="#9467BD" stroke="#9467BD" points="462.628,-117.543 459.128,-107.543 455.628,-117.543 				"/>
			</g>
			<g id="node17">
				<title>C15</title>
				<text transform="matrix(1 0 0 1 372.4521 -82.6387)" font-family="'ArialMT'" font-size="16">C15</text>
			</g>
			<g id="edge16">
				<title>A9-&gt;C15</title>
				<path fill="none" stroke="#9467BD" stroke-width="2" d="M441.33-143.137c-8.806,8.562-19.584,19.041-29.203,28.394"/>
				<polygon fill="#9467BD" stroke="#9467BD" points="414.331,-112.006 404.721,-107.543 409.451,-117.024 				"/>
			</g>
			<g id="edge23">
				<title>C14-&gt;C15</title>
				<path fill="none" stroke="#BCBD22" stroke-width="2" d="M387.128-143.137c0,7.714,0,16.985,0,25.585"/>
				<polygon fill="#BCBD22" stroke="#BCBD22" points="390.628,-117.543 387.128,-107.543 383.628,-117.543 				"/>
			</g>
			<g id="node23">
				<title>C16</title>
				<text transform="matrix(1 0 0 1 372.4521 -10.6387)" font-family="'ArialMT'" font-size="16">C16</text>
			</g>
			<g id="edge24">
				<title>C15-&gt;C16</title>
				<path fill="none" stroke="#BCBD22" stroke-width="2" d="M387.128-71.136c0,7.714,0,16.983,0,25.584"/>
				<polygon fill="#BCBD22" stroke="#BCBD22" points="390.628,-45.544 387.128,-35.544 383.628,-45.544 				"/>
			</g>
			<g id="node18">
				<title>C1</title>
				<text transform="matrix(1 0 0 1 50.9014 -1162.6396)" font-family="'ArialMT'" font-size="16">C1</text>
			</g>
			<g id="node19">
				<title>C2</title>
				<text transform="matrix(1 0 0 1 50.9014 -1090.6396)" font-family="'ArialMT'" font-size="16">C2</text>
			</g>
			<g id="edge17">
				<title>C1-&gt;C2</title>
				<path fill="none" stroke="#BCBD22" stroke-width="2" d="M61.128-1151.14c0,7.72,0,16.99,0,25.59"/>
				<polygon fill="#BCBD22" stroke="#BCBD22" points="64.628,-1125.54 61.128,-1115.54 57.628,-1125.54 				"/>
			</g>
			<g id="node24">
				<title>C3-G5</title>
				<text transform="matrix(1 0 0 1 70.5654 -1018.6396)" font-family="'ArialMT'" font-size="16">C3-G5</text>
			</g>
			<g id="edge25">
				<title>C2-&gt;C3-G5</title>
				<path fill="none" stroke="#BCBD22" stroke-width="2" d="M69.285-1079.14c3.756,7.97,8.296,17.6,12.461,26.44"/>
				<polygon fill="#BCBD22" stroke="#BCBD22" points="84.966,-1054.08 86.064,-1043.54 78.634,-1051.1 				"/>
			</g>
			<g id="node21">
				<title>C13</title>
				<text transform="matrix(1 0 0 1 339.4521 -226.6387)" font-family="'ArialMT'" font-size="16">C13</text>
			</g>
			<g id="edge20">
				<title>C12-&gt;C13</title>
				<path fill="none" stroke="#BCBD22" stroke-width="2" d="M330.385-359.311c4.602,24.201,13.056,68.66,18.534,97.479"/>
				<polygon fill="#BCBD22" stroke="#BCBD22" points="352.43,-262.106 350.86,-251.629 345.553,-260.799 				"/>
			</g>
			<g id="node22">
				<title>F6</title>
				<text transform="matrix(1 0 0 1 289.792 -298.6387)" font-family="'ArialMT'" font-size="16">F6</text>
			</g>
			<g id="edge21">
				<title>C12-&gt;F6</title>
				<path fill="none" stroke="#BCBD22" stroke-width="2" d="M320.207-359.137c-3.154,7.885-6.957,17.394-10.46,26.151"/>
				<polygon fill="#BCBD22" stroke="#BCBD22" points="312.933,-331.528 305.97,-323.543 306.434,-334.129 				"/>
			</g>
			<g id="edge22">
				<title>C13-&gt;C14</title>
				<path fill="none" stroke="#BCBD22" stroke-width="2" d="M362.285-215.137c3.757,7.969,8.296,17.598,12.461,26.434"/>
				<polygon fill="#BCBD22" stroke="#BCBD22" points="377.966,-190.081 379.065,-179.543 371.634,-187.097 				"/>
			</g>
			<g id="edge53">
				<title>F6-&gt;C13</title>
				<path fill="none" stroke="#2CA02C" stroke-width="2" d="M312.724-287.137c6.527,8.309,14.473,18.42,21.651,27.557"/>
				<polygon fill="#2CA02C" stroke="#2CA02C" points="337.263,-261.569 340.688,-251.543 331.759,-257.244 				"/>
			</g>
			<g id="node25">
				<title>C4</title>
				<text transform="matrix(1 0 0 1 88.9014 -946.6387)" font-family="'ArialMT'" font-size="16">C4</text>
			</g>
			<g id="edge26">
				<title>C3-G5-&gt;C4</title>
				<path fill="none" stroke="#BCBD22" stroke-width="2" d="M95.364-1007.14c0.551,7.717,1.213,16.988,1.828,25.588"/>
				<polygon fill="#BCBD22" stroke="#BCBD22" points="100.685,-981.768 97.906,-971.543 93.703,-981.27 				"/>
			</g>
			<g id="node29">
				<title>G6</title>
				<text transform="matrix(1 0 0 1 88.4561 -730.6387)" font-family="'ArialMT'" font-size="16">G6</text>
			</g>
			<g id="edge62">
				<title>C3-G5-&gt;G6</title>
				<path fill="none" stroke="#D62728" stroke-width="2" d="M80.982-1007.35c-6.777,9.904-14.342,22.946-17.854,35.91
					c-20.924,77.215-23.514,103.534,0,180c3.009,9.785,8.507,19.384,14.316,27.666"/>
				<polygon fill="#D62728" stroke="#D62728" points="80.323,-765.768 83.518,-755.665 74.721,-761.57 				"/>
			</g>
			<g id="node26">
				<title>C5</title>
				<text transform="matrix(1 0 0 1 88.9014 -874.6387)" font-family="'ArialMT'" font-size="16">C5</text>
			</g>
			<g id="edge27">
				<title>C4-&gt;C5</title>
				<path fill="none" stroke="#BCBD22" stroke-width="2" d="M99.128-935.137c0,7.714,0,16.985,0,25.585"/>
				<polygon fill="#BCBD22" stroke="#BCBD22" points="102.628,-909.543 99.128,-899.543 95.628,-909.543 				"/>
			</g>
			<g id="node27">
				<title>C6</title>
				<text transform="matrix(1 0 0 1 88.9014 -802.6387)" font-family="'ArialMT'" font-size="16">C6</text>
			</g>
			<g id="edge28">
				<title>C5-&gt;C6</title>
				<path fill="none" stroke="#BCBD22" stroke-width="2" d="M99.128-863.137c0,7.714,0,16.985,0,25.585"/>
				<polygon fill="#BCBD22" stroke="#BCBD22" points="102.628,-837.543 99.128,-827.543 95.628,-837.543 				"/>
			</g>
			<g id="node28">
				<title>C7</title>
				<text transform="matrix(1 0 0 1 320.5679 -1083.3057)" font-family="'ArialMT'" font-size="16">C7</text>
			</g>
			<g id="edge29">
				<title>C6-&gt;C7</title>
				<path fill="none" stroke="#BCBD22" stroke-width="2" d="M126.381-798.854c35.033,12.324,95.991,33.766,135.07,47.512"/>
				<polygon fill="#BCBD22" stroke="#BCBD22" points="262.614,-754.643 270.886,-748.022 260.291,-748.038 				"/>
			</g>
			<g id="edge30">
				<title>C6-&gt;G6</title>
				<path fill="none" stroke="#BCBD22" stroke-width="2" d="M99.128-791.137c0,7.714,0,16.985,0,25.585"/>
				<polygon fill="#BCBD22" stroke="#BCBD22" points="102.628,-765.543 99.128,-755.543 95.628,-765.543 				"/>
			</g>
			<g id="node30">
				<title>C8</title>
				<text transform="matrix(1 0 0 1 316.9014 -658.6387)" font-family="'ArialMT'" font-size="16">C8</text>
			</g>
			<g id="edge31">
				<title>C7-&gt;C8</title>
				<path fill="none" stroke="#BCBD22" stroke-width="2" d="M305.297-719.137c3.266,7.885,7.205,17.394,10.833,26.151"/>
				<polygon fill="#BCBD22" stroke="#BCBD22" points="319.448,-694.122 320.042,-683.543 312.98,-691.442 				"/>
			</g>
			<g id="node31">
				<title>F5</title>
				<text transform="matrix(1 0 0 1 234.792 -658.6387)" font-family="'ArialMT'" font-size="16">F5</text>
			</g>
			<g id="edge32">
				<title>C7-&gt;F5</title>
				<path fill="none" stroke="#BCBD22" stroke-width="2" d="M284.78-719.137c-6.409,8.309-14.21,18.42-21.258,27.557"/>
				<polygon fill="#BCBD22" stroke="#BCBD22" points="266.202,-689.323 257.323,-683.543 260.66,-693.6 				"/>
			</g>
			<g id="node50">
				<title>G7</title>
				<text transform="matrix(1 0 0 1 88.4561 -658.6387)" font-family="'ArialMT'" font-size="16">G7</text>
			</g>
			<g id="edge63">
				<title>G6-&gt;G7</title>
				<path fill="none" stroke="#D62728" stroke-width="2" d="M99.128-719.137c0,7.714,0,16.985,0,25.585"/>
				<polygon fill="#D62728" stroke="#D62728" points="102.628,-693.543 99.128,-683.543 95.628,-693.543 				"/>
			</g>
			<g id="node32">
				<title>C9</title>
				<text transform="matrix(1 0 0 1 326.9014 -586.6387)" font-family="'ArialMT'" font-size="16">C9</text>
			</g>
			<g id="edge33">
				<title>C8-&gt;C9</title>
				<path fill="none" stroke="#BCBD22" stroke-width="2" d="M329.6-647.137c1.103,7.714,2.427,16.985,3.655,25.585"/>
				<polygon fill="#BCBD22" stroke="#BCBD22" points="336.735,-621.938 334.685,-611.543 329.805,-620.948 				"/>
			</g>
			<g id="edge52">
				<title>F5-&gt;F6</title>
				<path fill="none" stroke="#2CA02C" stroke-width="2" d="M244.128-647.391c0,26.659,0,79.836,0,124.951c0,0,0,0,0,74
					c0,42.992,22.193,88.663,38.384,116.262"/>
				<polygon fill="#2CA02C" stroke="#2CA02C" points="285.555,-333.909 287.732,-323.54 279.564,-330.288 				"/>
			</g>
			<g id="edge34">
				<title>C9-&gt;C10</title>
				<path fill="none" stroke="#BCBD22" stroke-width="2" d="M337.128-575.137c0,7.714,0,16.985,0,25.585"/>
				<polygon fill="#BCBD22" stroke="#BCBD22" points="340.628,-549.543 337.128,-539.543 333.628,-549.543 				"/>
			</g>
			<g id="node33">
				<title>E1</title>
				<text transform="matrix(1 0 0 1 377.0098 -1306.6396)" font-family="'ArialMT'" font-size="16">E1</text>
			</g>
			<g id="node34">
				<title>E2-G2</title>
				<text transform="matrix(1 0 0 1 222.0068 -1234.6396)" font-family="'ArialMT'" font-size="16">E2-G2</text>
			</g>
			<g id="edge35">
				<title>E1-&gt;E2-G2</title>
				<path fill="none" stroke="#1F77B4" stroke-width="2" d="M369.295-1304.409c-41.317,12.2-34.572,35.51-82.964,49.8"/>
				<polygon fill="#1F77B4" stroke="#1F77B4" points="287.075,-1251.18 276.493,-1251.699 285.092,-1257.89 				"/>
			</g>
			<g id="node35">
				<title>NA4</title>
				<text transform="matrix(1 0 0 1 604.5654 -586.6387)" font-family="'ArialMT'" font-size="16">NA4</text>
			</g>
			<g id="edge36">
				<title>E1-&gt;NA4</title>
				<path fill="none" stroke="#1F77B4" stroke-width="2" d="M390.501-1298.833c9.333,138.667,72.667,187.083,72.667,259.333
					c0,0,184.96-130.94,184.96,303.06c0,40.73-11.226,86.811-19.461,115.138"/>
				<polygon fill="#1F77B4" stroke="#1F77B4" points="632.017,-620.286 625.794,-611.711 625.311,-622.296 				"/>
			</g>
			<g id="edge37">
				<title>E2-G2-&gt;C3-G5</title>
				<path fill="none" stroke="#1F77B4" stroke-width="2" d="M213.666-1232.06c-23.492,7.83-54.672,21.8-73.538,44.62
					c-32.09,38.82-41.814,98.83-44.747,133.58"/>
				<polygon fill="#1F77B4" stroke="#1F77B4" points="98.847,-1053.259 94.647,-1043.529 91.864,-1053.75 				"/>
			</g>
			<g id="node36">
				<title>E3</title>
				<text transform="matrix(1 0 0 1 161.3428 -874.6387)" font-family="'ArialMT'" font-size="16">E3</text>
			</g>
			<g id="edge38">
				<title>E2-G2-&gt;E3</title>
				<path fill="none" stroke="#1F77B4" stroke-width="2" d="M224.479-1223.02c-26.849,24.71-70.351,72.75-70.351,124.58
					c0,0,0,0,0,74c0,40.069,6.756,86.051,11.75,114.567"/>
				<polygon fill="#1F77B4" stroke="#1F77B4" points="169.355,-910.311 167.688,-899.848 162.467,-909.066 				"/>
			</g>
			<g id="node47">
				<title>G3</title>
				<text transform="matrix(1 0 0 1 325.4561 -1162.6396)" font-family="'ArialMT'" font-size="16">G3</text>
			</g>
			<g id="edge55">
				<title>E2-G2-&gt;G3</title>
				<path fill="none" stroke="#D62728" stroke-width="2" d="M267.622-1223.14c11.461,8.82,25.564,19.67,37.99,29.23"/>
				<polygon fill="#D62728" stroke="#D62728" points="308.1,-1196.419 313.892,-1187.54 303.832,-1190.87 				"/>
			</g>
			<g id="node56">
				<title>NA5</title>
				<text transform="matrix(1 0 0 1 604.5654 -514.6387)" font-family="'ArialMT'" font-size="16">NA5</text>
			</g>
			<g id="edge72">
				<title>NA4-&gt;NA5</title>
				<path fill="none" stroke="#17BECF" stroke-width="2" d="M620.128-575.137c0,7.714,0,16.985,0,25.585"/>
				<polygon fill="#17BECF" stroke="#17BECF" points="623.628,-549.543 620.128,-539.543 616.628,-549.543 				"/>
			</g>
			<g id="node37">
				<title>CN1</title>
				<text transform="matrix(1 0 0 1 155.124 -586.6387)" font-family="'ArialMT'" font-size="16">CN1</text>
			</g>
			<g id="edge39">
				<title>E3-&gt;CN1</title>
				<path fill="none" stroke="#1F77B4" stroke-width="2" d="M171.128-863.405c0,47.675,0,182.781,0,241.336"/>
				<polygon fill="#1F77B4" stroke="#1F77B4" points="174.628,-621.745 171.128,-611.745 167.628,-621.745 				"/>
			</g>
			<g id="node38">
				<title>E4</title>
				<text transform="matrix(1 0 0 1 348.3428 -1083.9717)" font-family="'ArialMT'" font-size="16">E4</text>
			</g>
			<g id="edge40">
				<title>E3-&gt;E4</title>
				<path fill="none" stroke="#1F77B4" stroke-width="2" d="M198.419-866.901c2.909,1.246,5.849,2.428,8.709,3.462
					c57.362,20.75,126.492,36.868,168.034,45.641"/>
				<polygon fill="#1F77B4" stroke="#1F77B4" points="376.028,-821.193 385.104,-815.729 374.601,-814.341 				"/>
			</g>
			<g id="node39">
				<title>F4</title>
				<text transform="matrix(1 0 0 1 233.792 -802.6387)" font-family="'ArialMT'" font-size="16">F4</text>
			</g>
			<g id="edge41">
				<title>E3-&gt;F4</title>
				<path fill="none" stroke="#1F77B4" stroke-width="2" d="M188.926-863.137c8.806,8.562,19.584,19.041,29.203,28.394"/>
				<polygon fill="#1F77B4" stroke="#1F77B4" points="220.805,-837.024 225.535,-827.543 215.925,-832.006 				"/>
			</g>
			<g id="node40">
				<title>E5</title>
				<text transform="matrix(1 0 0 1 401.3428 -730.6387)" font-family="'ArialMT'" font-size="16">E5</text>
			</g>
			<g id="edge42">
				<title>E4-&gt;E5</title>
				<path fill="none" stroke="#1F77B4" stroke-width="2" d="M411.881-791.137c-0.11,7.714-0.243,16.985-0.366,25.585"/>
				<polygon fill="#1F77B4" stroke="#1F77B4" points="415.015,-765.492 411.372,-755.543 408.016,-765.593 				"/>
			</g>
			<g id="edge50">
				<title>F4-&gt;C7</title>
				<path fill="none" stroke="#2CA02C" stroke-width="2" d="M256.724-791.137c6.527,8.309,14.472,18.42,21.651,27.557"/>
				<polygon fill="#2CA02C" stroke="#2CA02C" points="281.263,-765.569 284.689,-755.543 275.759,-761.244 				"/>
			</g>
			<g id="edge51">
				<title>F4-&gt;F5</title>
				<path fill="none" stroke="#2CA02C" stroke-width="2" d="M243.249-791.311c0.17,24.201,0.483,68.66,0.686,97.479"/>
				<polygon fill="#2CA02C" stroke="#2CA02C" points="247.436,-693.653 244.007,-683.629 240.437,-693.604 				"/>
			</g>
			<g id="edge43">
				<title>E5-&gt;E6</title>
				<path fill="none" stroke="#1F77B4" stroke-width="2" d="M425.896-719.172c7.973,9.958,17.524,22.996,24.232,35.732
					c10.502,19.939,18.677,44.186,23.989,62.333"/>
				<polygon fill="#1F77B4" stroke="#1F77B4" points="477.491,-622.037 476.84,-611.463 470.754,-620.136 				"/>
			</g>
			<g id="node42">
				<title>E8</title>
				<text transform="matrix(1 0 0 1 389.3428 -442.6387)" font-family="'ArialMT'" font-size="16">E8</text>
			</g>
			<g id="edge45">
				<title>E7-&gt;E8</title>
				<path fill="none" stroke="#1F77B4" stroke-width="2" d="M408.915-503.137c-1.434,7.714-3.155,16.985-4.752,25.585"/>
				<polygon fill="#1F77B4" stroke="#1F77B4" points="407.572,-476.736 402.305,-467.543 400.688,-478.015 				"/>
			</g>
			<g id="edge46">
				<title>E8-&gt;E9</title>
				<path fill="none" stroke="#1F77B4" stroke-width="2" d="M403.825-431.137c2.115,7.799,4.665,17.188,7.021,25.868"/>
				<polygon fill="#1F77B4" stroke="#1F77B4" points="414.244,-406.111 413.485,-395.543 407.488,-404.277 				"/>
			</g>
			<g id="node43">
				<title>F1</title>
				<text transform="matrix(1 0 0 1 199.792 -1018.6396)" font-family="'ArialMT'" font-size="16">F1</text>
			</g>
			<g id="node44">
				<title>F2</title>
				<text transform="matrix(1 0 0 1 233.792 -946.6387)" font-family="'ArialMT'" font-size="16">F2</text>
			</g>
			<g id="edge47">
				<title>F1-&gt;F2</title>
				<path fill="none" stroke="#2CA02C" stroke-width="2" d="M217.532-1007.14c3.871,7.972,8.548,17.6,12.839,26.436"/>
				<polygon fill="#2CA02C" stroke="#2CA02C" points="233.599,-982.068 234.82,-971.543 227.303,-979.009 				"/>
			</g>
			<g id="node45">
				<title>F3</title>
				<text transform="matrix(1 0 0 1 233.792 -874.6387)" font-family="'ArialMT'" font-size="16">F3</text>
			</g>
			<g id="edge48">
				<title>F2-&gt;F3</title>
				<path fill="none" stroke="#2CA02C" stroke-width="2" d="M243.128-935.137c0,7.714,0,16.985,0,25.585"/>
				<polygon fill="#2CA02C" stroke="#2CA02C" points="246.628,-909.543 243.128,-899.543 239.628,-909.543 				"/>
			</g>
			<g id="edge49">
				<title>F3-&gt;F4</title>
				<path fill="none" stroke="#2CA02C" stroke-width="2" d="M243.128-863.137c0,7.714,0,16.985,0,25.585"/>
				<polygon fill="#2CA02C" stroke="#2CA02C" points="246.628,-837.543 243.128,-827.543 239.628,-837.543 				"/>
			</g>
			<g id="node46">
				<title>G1</title>
				<text transform="matrix(1 0 0 1 234.4561 -1306.6396)" font-family="'ArialMT'" font-size="16">G1</text>
			</g>
			<g id="edge54">
				<title>G1-&gt;E2-G2</title>
				<path fill="none" stroke="#D62728" stroke-width="2" d="M245.128-1295.14c0,7.72,0,16.99,0,25.59"/>
				<polygon fill="#D62728" stroke="#D62728" points="248.628,-1269.54 245.128,-1259.54 241.628,-1269.54 				"/>
			</g>
			<g id="edge56">
				<title>G3-&gt;C7</title>
				<path fill="none" stroke="#D62728" stroke-width="2" d="M304.184-765.819"/>
				<path fill="none" stroke="#D62728" stroke-width="2" d="M343.608-1151.14c3.992,10.18,8.492,23.43,10.52,35.7
					c0.538,3.257,0.91,6.022,1.149,8.502"/>
				<polygon fill="#D62728" stroke="#D62728" points="307.53,-764.734 301.988,-755.705 300.69,-766.22 				"/>
			</g>
			<g id="edge57">
				<title>G3-&gt;E4</title>
				<path fill="none" stroke="#D62728" stroke-width="2" d="M357.536-1151.299c9.405,8.451,20.045,19.377,27.778,31.262"/>
				<polygon fill="#D62728" stroke="#D62728" points="415.628,-837.488 412.128,-827.488 408.628,-837.488 				"/>
			</g>
			<g id="edge58">
				<title>G3-&gt;F2</title>
				<path fill="none" stroke="#D62728" stroke-width="2" d="M317.128-1007.439c-8.916,15.1-24.007,27.068-38.244,35.781"/>
				<path fill="none" stroke="#D62728" stroke-width="2" d="M338.412-1151.04c1.08,10.516-3.902,25.04-4.064,41.438"/>
				<polygon fill="#D62728" stroke="#D62728" points="337.445,-1112.72 332.974,-1103.112 330.48,-1113.409 				"/>
				<polygon fill="#D62728" stroke="#D62728" points="358.863,-1110.796 356.376,-1100.496 351.899,-1110.097 				"/>
				<polygon fill="#D62728" stroke="#D62728" points="386.037,-1124.271 389.765,-1114.35 380.668,-1119.781 				"/>
			</g>
			<g id="node48">
				<title>G4</title>
				<text transform="matrix(1 0 0 1 270.4561 -1090.6396)" font-family="'ArialMT'" font-size="16">G4</text>
			</g>
			<g id="edge59">
				<title>G3-&gt;G4</title>
				<path fill="none" stroke="#D62728" stroke-width="2" d="M322.532-1151.14c-6.527,8.31-14.473,18.42-21.651,27.56"/>
				<polygon fill="#D62728" stroke="#D62728" points="303.497,-1121.25 294.567,-1115.54 297.993,-1125.569 				"/>
			</g>
			<g id="node49">
				<title>G4a</title>
				<text transform="matrix(1 0 0 1 266.0068 -1018.6396)" font-family="'ArialMT'" font-size="16">G4a</text>
			</g>
			<g id="edge60">
				<title>G4-&gt;G4a</title>
				<path fill="none" stroke="#D62728" stroke-width="2" d="M281.128-1053.549"/>
				<path fill="none" stroke="#D62728" stroke-width="2" d="M281.128-1079.14"/>
				<polygon fill="#D62728" stroke="#D62728" points="284.628,-1053.54 281.128,-1043.54 277.628,-1053.54 				"/>
			</g>
			<g id="edge61">
				<title>G4-&gt;C3-G5</title>
				<path fill="none" stroke="#D62728" stroke-width="2" d="M135.149-1041.799"/>
				<polygon fill="#D62728" stroke="#D62728" points="136.003,-1038.379 125.41,-1038.149 133.549,-1044.93 				"/>
			</g>
			<g id="edge64">
				<title>G7-&gt;CN1</title>
				<path fill="none" stroke="#D62728" stroke-width="2" d="M116.926-647.137c8.806,8.562,19.584,19.041,29.203,28.394"/>
				<polygon fill="#D62728" stroke="#D62728" points="148.805,-621.024 153.535,-611.543 143.925,-616.006 				"/>
			</g>
			<g id="node51">
				<title>G8</title>
				<text transform="matrix(1 0 0 1 16.4561 -586.6387)" font-family="'ArialMT'" font-size="16">G8</text>
			</g>
			<g id="edge65">
				<title>G7-&gt;G8</title>
				<path fill="none" stroke="#D62728" stroke-width="2" d="M81.33-647.137c-8.806,8.562-19.584,19.041-29.203,28.394"/>
				<polygon fill="#D62728" stroke="#D62728" points="54.331,-616.006 44.721,-611.543 49.451,-621.024 				"/>
			</g>
			<g id="node52">
				<title>V1</title>
				<text transform="matrix(1 0 0 1 89.3428 -586.6387)" font-family="'ArialMT'" font-size="16">V1</text>
			</g>
			<g id="edge66">
				<title>G7-&gt;V1</title>
				<path fill="none" stroke="#D62728" stroke-width="2" d="M99.128-647.137c0,7.714,0,16.985,0,25.585"/>
				<polygon fill="#D62728" stroke="#D62728" points="102.628,-621.543 99.128,-611.543 95.628,-621.543 				"/>
			</g>
			<g id="node53">
				<title>G9</title>
				<text transform="matrix(1 0 0 1 16.4561 -514.6387)" font-family="'ArialMT'" font-size="16">G9</text>
			</g>
			<g id="edge67">
				<title>G8-&gt;G9</title>
				<path fill="none" stroke="#D62728" stroke-width="2" d="M27.128-575.137c0,7.714,0,16.985,0,25.585"/>
				<polygon fill="#D62728" stroke="#D62728" points="30.628,-549.543 27.128,-539.543 23.628,-549.543 				"/>
			</g>
			<g id="node55">
				<title>NA3</title>
				<text transform="matrix(1 0 0 1 577.5654 -658.6387)" font-family="'ArialMT'" font-size="16">NA3</text>
			</g>
			<g id="edge70">
				<title>NA2-&gt;NA3</title>
				<path fill="none" stroke="#17BECF" stroke-width="2" d="M593.128-719.137c0,7.714,0,16.985,0,25.585"/>
				<polygon fill="#17BECF" stroke="#17BECF" points="596.628,-693.543 593.128,-683.543 589.628,-693.543 				"/>
			</g>
			<g id="edge71">
				<title>NA3-&gt;NA4</title>
				<path fill="none" stroke="#17BECF" stroke-width="2" d="M599.802-647.137c3.041,7.885,6.709,17.394,10.087,26.151"/>
				<polygon fill="#17BECF" stroke="#17BECF" points="613.197,-622.134 613.531,-611.543 606.666,-619.614 				"/>
			</g>
			<g id="node57">
				<title>NA6</title>
				<text transform="matrix(1 0 0 1 604.5654 -442.6387)" font-family="'ArialMT'" font-size="16">NA6</text>
			</g>
			<g id="edge73">
				<title>NA5-&gt;NA6</title>
				<path fill="none" stroke="#17BECF" stroke-width="2" d="M620.128-503.137c0,7.714,0,16.985,0,25.585"/>
				<polygon fill="#17BECF" stroke="#17BECF" points="623.628,-477.543 620.128,-467.543 616.628,-477.543 				"/>
			</g>
		</g>
	</g>
</g>
</svg>
