<?xml version="1.0" encoding="utf-8"?>
<!-- Generator: Adobe Illustrator 15.0.2, SVG Export Plug-In . SVG Version: 6.00 Build 0)  -->
<!DOCTYPE svg PUBLIC "-//W3C//DTD SVG 1.1//EN" "http://www.w3.org/Graphics/SVG/1.1/DTD/svg11.dtd">
<svg version="1.1" xmlns="http://www.w3.org/2000/svg" xmlns:xlink="http://www.w3.org/1999/xlink" x="0px" y="0px"
	 width="204.094px" height="204.104px" viewBox="0 0 204.094 204.104" enable-background="new 0 0 204.094 204.104"
	 xml:space="preserve">
<g id="Layer_1">
	
		<image display="none" overflow="visible" width="233" height="141" xlink:href="149E3894.jpg"  transform="matrix(1 0 0 1 -410.6191 33.4272)">
	</image>
	<path fill="none" stroke="#6CD1D3" stroke-width="2" stroke-miterlimit="10" d="M-346.407,36.663c-35.898,0-65,29.102-65,65
		s29.102,65,65,65s65-29.102,65-65S-310.509,36.663-346.407,36.663z M-347.407,145.663c-24.853,0-45-20.147-45-45
		c0-24.853,20.147-45,45-45c24.853,0,45,20.147,45,45C-302.407,125.515-322.555,145.663-347.407,145.663z"/>
	<g>
		<path fill="none" d="M-389.906,100.663c0-23.747,19.586-43,43.75-43c24.16,0,43.749,19.253,43.749,43"/>
		
			<text transform="matrix(0.7155 -0.7234 0.711 0.7032 -386.2241 70.8052)" fill="#6CD1D3" font-family="'HelveticaNeue-Medium'" font-size="16.86">C</text>
		
			<text transform="matrix(0.8608 -0.5424 0.5331 0.846 -377.0264 61.8159)" fill="#6CD1D3" font-family="'HelveticaNeue-Medium'" font-size="16.86">a</text>
		
			<text transform="matrix(0.9698 -0.3078 0.3026 0.9531 -368.5737 56.1758)" fill="#6CD1D3" font-family="'HelveticaNeue-Medium'" font-size="16.86">m</text>
		
			<text transform="matrix(1.0164 -0.0459 0.0451 0.999 -353.7085 51.8481)" fill="#6CD1D3" font-family="'HelveticaNeue-Medium'" font-size="16.86">b</text>
		
			<text transform="matrix(1.0097 0.1254 -0.1232 0.9924 -342.8633 51.5747)" fill="#6CD1D3" font-family="'HelveticaNeue-Medium'" font-size="16.86">r</text>
		
			<text transform="matrix(0.9908 0.2312 -0.2273 0.9738 -336.6377 52.4116)" fill="#6CD1D3" font-family="'HelveticaNeue-Medium'" font-size="16.86">i</text>
		
			<text transform="matrix(0.9441 0.3792 -0.3727 0.928 -332.208 53.2241)" fill="#6CD1D3" font-family="'HelveticaNeue-Medium'" font-size="16.86">d</text>
		
			<text transform="matrix(0.8413 0.5723 -0.5624 0.8268 -322.0625 57.374)" fill="#6CD1D3" font-family="'HelveticaNeue-Medium'" font-size="16.86">g</text>
		
			<text transform="matrix(0.7062 0.7324 -0.7198 0.6941 -313.3135 63.4199)" fill="#6CD1D3" font-family="'HelveticaNeue-Medium'" font-size="16.86">e</text>
	</g>
	<path fill="none" d="M-407.032,101.662c0,33.344,27.031,60.375,60.375,60.375s60.375-27.031,60.375-60.375"/>
	<text transform="matrix(0.6846 0.7289 -0.7289 0.6846 -395.8032 137.5249)"><tspan x="0" y="0" fill="#6CD1D3" font-family="'HelveticaNeue-Medium'" font-size="16.8624">M</tspan><tspan x="16.924" y="-0.553" fill="#6CD1D3" font-family="'HelveticaNeue-Medium'" font-size="16.8624" rotate="-13.331">a</tspan><tspan x="27.177" y="-3.212" fill="#6CD1D3" font-family="'HelveticaNeue-Medium'" font-size="16.8624" rotate="-21.612">t</tspan><tspan x="33.602" y="-5.696" fill="#6CD1D3" font-family="'HelveticaNeue-Medium'" font-size="16.8624" rotate="-30.115">h</tspan><tspan x="43.253" y="-11.48" fill="#6CD1D3" font-family="'HelveticaNeue-Medium'" font-size="16.8624" rotate="-40.677">e</tspan><tspan x="51.904" y="-18.812" fill="#6CD1D3" font-family="'HelveticaNeue-Medium'" font-size="16.8624" rotate="-53.744">m</tspan><tspan x="61.293" y="-32.511" fill="#6CD1D3" font-family="'HelveticaNeue-Medium'" font-size="16.8624" rotate="-67.058">a</tspan><tspan x="65.213" y="-42.356" fill="#6CD1D3" font-family="'HelveticaNeue-Medium'" font-size="16.8624" rotate="-75.371">t</tspan><tspan x="66.762" y="-48.588" fill="#6CD1D3" font-family="'HelveticaNeue-Medium'" font-size="16.8624" rotate="-80.73">i</tspan><tspan x="67.693" y="-53.664" fill="#6CD1D3" font-family="'HelveticaNeue-Medium'" font-size="16.8624" rotate="-88.099">c</tspan><tspan x="67.898" y="-64.515" fill="#6CD1D3" font-family="'HelveticaNeue-Medium'" font-size="16.8624" rotate="-98.032">s</tspan></text>
	<path fill="#17BECF" stroke="#17BECF" stroke-miterlimit="10" d="M-177.768,124.4c8.615,25.803,32.97,44.402,61.668,44.402
		c28.475,0,52.674-18.311,61.464-43.799 M-54.432,83.205C-63.045,57.402-87.4,38.802-116.1,38.802
		c-28.615,0-52.912,18.491-61.594,44.176 M-157.305,82.569c7.407-14.69,22.629-24.767,40.205-24.767
		c17.816,0,33.213,10.354,40.505,25.372 M-77.955,125.013c-7.738,13.609-22.369,22.789-39.145,22.789
		c-17.021,0-31.833-9.449-39.479-23.387"/>
	<path fill="#17BECF" stroke="#17BECF" stroke-miterlimit="10" d="M-18.6,104.771c0,11.062-8.969,20.031-20.031,20.031h-156.938
		c-11.062,0-20.031-8.969-20.031-20.031v-1.937c0-11.063,8.969-20.032,20.031-20.032h156.938c11.062,0,20.031,8.968,20.031,20.032
		V104.771z"/>
	<path fill="#7DABF4" stroke="#6CD1D3" stroke-width="3" stroke-miterlimit="10" d="M-247.888,102.506
		c0,11.062-8.969,20.031-20.031,20.031h-156.938c-11.062,0-20.031-8.969-20.031-20.031v-1.937c0-11.063,8.969-20.032,20.031-20.032
		h156.938c11.062,0,20.031,8.968,20.031,20.032V102.506z"/>
	<path fill="none" stroke="#DDDDDD" stroke-width="5" stroke-miterlimit="10" d="M41.379,122.4
		c8.615,25.803,32.97,44.402,61.668,44.402c28.475,0,52.674-18.311,61.464-43.799 M164.715,81.205
		c-8.613-25.803-32.969-44.402-61.668-44.402c-28.615,0-52.912,18.491-61.594,44.176 M61.842,80.569
		c7.407-14.69,22.629-24.767,40.205-24.767c17.816,0,33.213,10.354,40.505,25.372 M141.191,123.013
		c-7.738,13.609-22.369,22.789-39.145,22.789c-17.021,0-31.833-9.449-39.479-23.387"/>
	<path fill="none" stroke="#DDDDDD" stroke-width="5" stroke-miterlimit="10" d="M200.547,102.771
		c0,11.062-8.969,20.031-20.031,20.031H23.578c-11.062,0-20.031-8.969-20.031-20.031v-1.937c0-11.063,8.969-20.032,20.031-20.032
		h156.938c11.062,0,20.031,8.968,20.031,20.032V102.771z"/>
	<path display="none" fill="#FFFFFF" stroke="#FFFFFF" stroke-width="2" stroke-miterlimit="10" d="M-116.119,38.927
		c-35.898,0-65,29.102-65,65s29.102,65,65,65s65-29.102,65-65S-80.221,38.927-116.119,38.927z M-117.119,147.927
		c-24.854,0-45-20.147-45-45c0-24.853,20.146-45,45-45c24.853,0,45,20.147,45,45C-72.119,127.78-92.267,147.927-117.119,147.927z"/>
	<g>
		<path fill="none" d="M-159.618,102.927c0-23.747,19.586-43,43.75-43c24.16,0,43.749,19.253,43.749,43"/>
		
			<text transform="matrix(0.7155 -0.7234 0.711 0.7032 -155.9355 73.0698)" fill="#FFFFFF" font-family="'HelveticaNeue-Medium'" font-size="16.86">C</text>
		
			<text transform="matrix(0.8608 -0.5424 0.5331 0.846 -146.7383 64.0806)" fill="#FFFFFF" font-family="'HelveticaNeue-Medium'" font-size="16.86">a</text>
		
			<text transform="matrix(0.9698 -0.3078 0.3026 0.9531 -138.2852 58.4404)" fill="#FFFFFF" font-family="'HelveticaNeue-Medium'" font-size="16.86">m</text>
		
			<text transform="matrix(1.0164 -0.0459 0.0451 0.999 -123.4199 54.1128)" fill="#FFFFFF" font-family="'HelveticaNeue-Medium'" font-size="16.86">b</text>
		
			<text transform="matrix(1.0097 0.1254 -0.1232 0.9924 -112.5752 53.8394)" fill="#FFFFFF" font-family="'HelveticaNeue-Medium'" font-size="16.86">r</text>
		
			<text transform="matrix(0.9908 0.2312 -0.2273 0.9738 -106.3496 54.6763)" fill="#FFFFFF" font-family="'HelveticaNeue-Medium'" font-size="16.86">i</text>
		
			<text transform="matrix(0.9441 0.3792 -0.3727 0.928 -101.9199 55.4888)" fill="#FFFFFF" font-family="'HelveticaNeue-Medium'" font-size="16.86">d</text>
		
			<text transform="matrix(0.8413 0.5723 -0.5624 0.8268 -91.7744 59.6387)" fill="#FFFFFF" font-family="'HelveticaNeue-Medium'" font-size="16.86">g</text>
		
			<text transform="matrix(0.7062 0.7324 -0.7198 0.6941 -83.0254 65.6846)" fill="#FFFFFF" font-family="'HelveticaNeue-Medium'" font-size="16.86">e</text>
	</g>
	<path fill="none" d="M-176.744,103.927c0,33.344,27.031,60.375,60.375,60.375s60.375-27.031,60.375-60.375"/>
	<text transform="matrix(0.6846 0.7289 -0.7289 0.6846 -165.5156 139.7896)"><tspan x="0" y="0" fill="#FFFFFF" font-family="'HelveticaNeue-Medium'" font-size="16.8624">M</tspan><tspan x="16.924" y="-0.554" fill="#FFFFFF" font-family="'HelveticaNeue-Medium'" font-size="16.8624" rotate="-13.331">a</tspan><tspan x="27.177" y="-3.212" fill="#FFFFFF" font-family="'HelveticaNeue-Medium'" font-size="16.8624" rotate="-21.612">t</tspan><tspan x="33.602" y="-5.696" fill="#FFFFFF" font-family="'HelveticaNeue-Medium'" font-size="16.8624" rotate="-30.115">h</tspan><tspan x="43.253" y="-11.481" fill="#FFFFFF" font-family="'HelveticaNeue-Medium'" font-size="16.8624" rotate="-40.677">e</tspan><tspan x="51.905" y="-18.813" fill="#FFFFFF" font-family="'HelveticaNeue-Medium'" font-size="16.8624" rotate="-53.744">m</tspan><tspan x="61.293" y="-32.511" fill="#FFFFFF" font-family="'HelveticaNeue-Medium'" font-size="16.8624" rotate="-67.058">a</tspan><tspan x="65.213" y="-42.357" fill="#FFFFFF" font-family="'HelveticaNeue-Medium'" font-size="16.8624" rotate="-75.371">t</tspan><tspan x="66.763" y="-48.588" fill="#FFFFFF" font-family="'HelveticaNeue-Medium'" font-size="16.8624" rotate="-80.73">i</tspan><tspan x="67.693" y="-53.664" fill="#FFFFFF" font-family="'HelveticaNeue-Medium'" font-size="16.8624" rotate="-88.099">c</tspan><tspan x="67.898" y="-64.516" fill="#FFFFFF" font-family="'HelveticaNeue-Medium'" font-size="16.8624" rotate="-98.032">s</tspan></text>
	<text transform="matrix(1 0 0 1 -392.5737 106.8296)" fill="#FFFFFF" font-family="'HelveticaNeue-Medium'" font-size="18">Sixth Form</text>
</g>
<g id="Layer_2">
</g>
</svg>
