<?xml version="1.0" encoding="UTF-8" standalone="no"?>
<!DOCTYPE svg PUBLIC "-//W3C//DTD SVG 1.1//EN"
 "http://www.w3.org/Graphics/SVG/1.1/DTD/svg11.dtd">
<!-- Generated by graphviz version 2.30.1 (20130616.0851)
 -->
<!-- Title: CMEP_Tube Pages: 1 -->
<svg width="676pt" height="1340pt"
 viewBox="0.00 0.00 676.00 1340.00" xmlns="http://www.w3.org/2000/svg" xmlns:xlink="http://www.w3.org/1999/xlink">
<g id="graph0" class="graph" transform="scale(1 1) rotate(0) translate(4 1336)">
<title>CMEP_Tube</title>
<polygon fill="white" stroke="white" points="-4,5 -4,-1336 673,-1336 673,5 -4,5"/>
<!-- A1 -->
<g id="node1" class="node"><title>A1</title>
<text text-anchor="middle" x="353" y="-947.199" font-family="arial" font-size="16.00">A1</text>
</g>
<!-- A2 -->
<g id="node2" class="node"><title>A2</title>
<text text-anchor="middle" x="353" y="-875.199" font-family="arial" font-size="16.00">A2</text>
</g>
<!-- A1&#45;&gt;A2 -->
<g id="edge1" class="edge"><title>A1&#45;&gt;A2</title>
<path fill="none" stroke="#9467bd" stroke-width="2" d="M353,-935.697C353,-927.983 353,-918.712 353,-910.112"/>
<polygon fill="#9467bd" stroke="#9467bd" points="356.5,-910.104 353,-900.104 349.5,-910.104 356.5,-910.104"/>
</g>
<!-- A3 -->
<g id="node3" class="node"><title>A3</title>
<text text-anchor="middle" x="247" y="-803.199" font-family="arial" font-size="16.00">A3</text>
</g>
<!-- A2&#45;&gt;A3 -->
<g id="edge2" class="edge"><title>A2&#45;&gt;A3</title>
<path fill="none" stroke="#9467bd" stroke-width="2" d="M327.069,-863.876C313.338,-854.808 296.294,-843.552 281.464,-833.759"/>
<polygon fill="#9467bd" stroke="#9467bd" points="283.304,-830.78 273.03,-828.19 279.446,-836.621 283.304,-830.78"/>
</g>
<!-- NA1 -->
<g id="node4" class="node"><title>NA1</title>
<text text-anchor="middle" x="357" y="-803.199" font-family="arial" font-size="16.00">NA1</text>
</g>
<!-- A2&#45;&gt;NA1 -->
<g id="edge3" class="edge"><title>A2&#45;&gt;NA1</title>
<path fill="none" stroke="#9467bd" stroke-width="2" d="M353.989,-863.697C354.43,-855.983 354.959,-846.712 355.451,-838.112"/>
<polygon fill="#9467bd" stroke="#9467bd" points="358.946,-838.288 356.023,-828.104 351.958,-837.888 358.946,-838.288"/>
</g>
<!-- A4 -->
<g id="node5" class="node"><title>A4</title>
<text text-anchor="middle" x="247" y="-731.199" font-family="arial" font-size="16.00">A4</text>
</g>
<!-- A3&#45;&gt;A4 -->
<g id="edge4" class="edge"><title>A3&#45;&gt;A4</title>
<path fill="none" stroke="#9467bd" stroke-width="2" d="M247,-791.697C247,-783.983 247,-774.712 247,-766.112"/>
<polygon fill="#9467bd" stroke="#9467bd" points="250.5,-766.104 247,-756.104 243.5,-766.104 250.5,-766.104"/>
</g>
<!-- A7 -->
<g id="node10" class="node"><title>A7</title>
<text text-anchor="middle" x="288" y="-515.199" font-family="arial" font-size="16.00">A7</text>
</g>
<!-- NA1&#45;&gt;A7 -->
<g id="edge68" class="edge"><title>NA1&#45;&gt;A7</title>
<path fill="none" stroke="#17becf" stroke-width="2" d="M352.89,-791.966C341.364,-744.192 308.657,-608.623 294.578,-550.266"/>
<polygon fill="#17becf" stroke="#17becf" points="297.923,-549.207 292.175,-540.306 291.118,-550.848 297.923,-549.207"/>
</g>
<!-- NA2 -->
<g id="node54" class="node"><title>NA2</title>
<text text-anchor="middle" x="395" y="-731.199" font-family="arial" font-size="16.00">NA2</text>
</g>
<!-- NA1&#45;&gt;NA2 -->
<g id="edge69" class="edge"><title>NA1&#45;&gt;NA2</title>
<path fill="none" stroke="#17becf" stroke-width="2" d="M366.393,-791.697C370.765,-783.644 376.057,-773.894 380.895,-764.982"/>
<polygon fill="#17becf" stroke="#17becf" points="384.02,-766.563 385.715,-756.104 377.868,-763.223 384.02,-766.563"/>
</g>
<!-- A5 -->
<g id="node6" class="node"><title>A5</title>
<text text-anchor="middle" x="191" y="-659.199" font-family="arial" font-size="16.00">A5</text>
</g>
<!-- A4&#45;&gt;A5 -->
<g id="edge5" class="edge"><title>A4&#45;&gt;A5</title>
<path fill="none" stroke="#9467bd" stroke-width="2" d="M233.157,-719.697C226.511,-711.389 218.422,-701.277 211.113,-692.141"/>
<polygon fill="#9467bd" stroke="#9467bd" points="213.664,-689.727 204.683,-684.104 208.197,-694.099 213.664,-689.727"/>
</g>
<!-- A6 -->
<g id="node7" class="node"><title>A6</title>
<text text-anchor="middle" x="183" y="-587.199" font-family="arial" font-size="16.00">A6</text>
</g>
<!-- A5&#45;&gt;A6 -->
<g id="edge6" class="edge"><title>A5&#45;&gt;A6</title>
<path fill="none" stroke="#9467bd" stroke-width="2" d="M189.022,-647.697C188.141,-639.983 187.081,-630.712 186.099,-622.112"/>
<polygon fill="#9467bd" stroke="#9467bd" points="189.568,-621.642 184.955,-612.104 182.613,-622.437 189.568,-621.642"/>
</g>
<!-- C11 -->
<g id="node8" class="node"><title>C11</title>
<text text-anchor="middle" x="92" y="-443.199" font-family="arial" font-size="16.00">C11</text>
</g>
<!-- A5&#45;&gt;C11 -->
<g id="edge7" class="edge"><title>A5&#45;&gt;C11</title>
<path fill="none" stroke="#9467bd" stroke-width="2" d="M163.958,-654.439C131.332,-641.428 80.1765,-620.056 75,-612 48.5875,-570.893 65.8856,-511.374 79.7093,-477.403"/>
<polygon fill="#9467bd" stroke="#9467bd" points="82.9593,-478.704 83.6561,-468.132 76.5186,-475.962 82.9593,-478.704"/>
</g>
<!-- E6 -->
<g id="node9" class="node"><title>E6</title>
<text text-anchor="middle" x="255" y="-587.199" font-family="arial" font-size="16.00">E6</text>
</g>
<!-- A5&#45;&gt;E6 -->
<g id="edge8" class="edge"><title>A5&#45;&gt;E6</title>
<path fill="none" stroke="#9467bd" stroke-width="2" d="M206.82,-647.697C214.57,-639.22 224.039,-628.864 232.524,-619.583"/>
<polygon fill="#9467bd" stroke="#9467bd" points="235.197,-621.846 239.362,-612.104 230.031,-617.123 235.197,-621.846"/>
</g>
<!-- A6&#45;&gt;A7 -->
<g id="edge9" class="edge"><title>A6&#45;&gt;A7</title>
<path fill="none" stroke="#9467bd" stroke-width="2" d="M208.686,-575.876C222.288,-566.808 239.172,-555.552 253.861,-545.759"/>
<polygon fill="#9467bd" stroke="#9467bd" points="255.836,-548.649 262.215,-540.19 251.953,-542.825 255.836,-548.649"/>
</g>
<!-- C10 -->
<g id="node11" class="node"><title>C10</title>
<text text-anchor="middle" x="111" y="-515.199" font-family="arial" font-size="16.00">C10</text>
</g>
<!-- A6&#45;&gt;C10 -->
<g id="edge10" class="edge"><title>A6&#45;&gt;C10</title>
<path fill="none" stroke="#9467bd" stroke-width="2" d="M165.202,-575.697C156.396,-567.135 145.618,-556.656 135.999,-547.304"/>
<polygon fill="#9467bd" stroke="#9467bd" points="138.203,-544.566 128.593,-540.104 133.323,-549.585 138.203,-544.566"/>
</g>
<!-- C12 -->
<g id="node20" class="node"><title>C12</title>
<text text-anchor="middle" x="92" y="-371.199" font-family="arial" font-size="16.00">C12</text>
</g>
<!-- C11&#45;&gt;C12 -->
<g id="edge19" class="edge"><title>C11&#45;&gt;C12</title>
<path fill="none" stroke="#bcbd22" stroke-width="2" d="M92,-431.697C92,-423.983 92,-414.712 92,-406.112"/>
<polygon fill="#bcbd22" stroke="#bcbd22" points="95.5001,-406.104 92,-396.104 88.5001,-406.104 95.5001,-406.104"/>
</g>
<!-- E7 -->
<g id="node41" class="node"><title>E7</title>
<text text-anchor="middle" x="206" y="-515.199" font-family="arial" font-size="16.00">E7</text>
</g>
<!-- E6&#45;&gt;E7 -->
<g id="edge44" class="edge"><title>E6&#45;&gt;E7</title>
<path fill="none" stroke="#1f77b4" stroke-width="2" d="M242.888,-575.697C237.132,-567.474 230.138,-557.483 223.794,-548.421"/>
<polygon fill="#1f77b4" stroke="#1f77b4" points="226.575,-546.29 217.973,-540.104 220.84,-550.304 226.575,-546.29"/>
</g>
<!-- A8 -->
<g id="node12" class="node"><title>A8</title>
<text text-anchor="middle" x="242" y="-227.199" font-family="arial" font-size="16.00">A8</text>
</g>
<!-- A7&#45;&gt;A8 -->
<g id="edge11" class="edge"><title>A7&#45;&gt;A8</title>
<path fill="none" stroke="#9467bd" stroke-width="2" d="M285.26,-503.966C277.576,-456.192 255.771,-320.623 246.385,-262.266"/>
<polygon fill="#9467bd" stroke="#9467bd" points="249.827,-261.624 244.784,-252.306 242.916,-262.735 249.827,-261.624"/>
</g>
<!-- E9 -->
<g id="node13" class="node"><title>E9</title>
<text text-anchor="middle" x="219" y="-371.199" font-family="arial" font-size="16.00">E9</text>
</g>
<!-- A7&#45;&gt;E9 -->
<g id="edge12" class="edge"><title>A7&#45;&gt;E9</title>
<path fill="none" stroke="#9467bd" stroke-width="2" d="M279.677,-503.871C267.762,-479.35 245.741,-434.032 231.76,-405.259"/>
<polygon fill="#9467bd" stroke="#9467bd" points="234.871,-403.654 227.353,-396.189 228.575,-406.713 234.871,-403.654"/>
</g>
<!-- C10&#45;&gt;C11 -->
<g id="edge18" class="edge"><title>C10&#45;&gt;C11</title>
<path fill="none" stroke="#bcbd22" stroke-width="2" d="M106.303,-503.697C104.187,-495.898 101.638,-486.509 99.2822,-477.829"/>
<polygon fill="#bcbd22" stroke="#bcbd22" points="102.64,-476.838 96.6426,-468.104 95.8844,-478.672 102.64,-476.838"/>
</g>
<!-- A9 -->
<g id="node14" class="node"><title>A9</title>
<text text-anchor="middle" x="242" y="-155.199" font-family="arial" font-size="16.00">A9</text>
</g>
<!-- A8&#45;&gt;A9 -->
<g id="edge13" class="edge"><title>A8&#45;&gt;A9</title>
<path fill="none" stroke="#9467bd" stroke-width="2" d="M242,-215.697C242,-207.983 242,-198.712 242,-190.112"/>
<polygon fill="#9467bd" stroke="#9467bd" points="245.5,-190.104 242,-180.104 238.5,-190.104 245.5,-190.104"/>
</g>
<!-- C14 -->
<g id="node15" class="node"><title>C14</title>
<text text-anchor="middle" x="170" y="-155.199" font-family="arial" font-size="16.00">C14</text>
</g>
<!-- A8&#45;&gt;C14 -->
<g id="edge14" class="edge"><title>A8&#45;&gt;C14</title>
<path fill="none" stroke="#9467bd" stroke-width="2" d="M224.202,-215.697C215.396,-207.135 204.618,-196.656 194.999,-187.304"/>
<polygon fill="#9467bd" stroke="#9467bd" points="197.203,-184.566 187.593,-180.104 192.323,-189.585 197.203,-184.566"/>
</g>
<!-- A10 -->
<g id="node16" class="node"><title>A10</title>
<text text-anchor="middle" x="242" y="-83.1992" font-family="arial" font-size="16.00">A10</text>
</g>
<!-- A9&#45;&gt;A10 -->
<g id="edge15" class="edge"><title>A9&#45;&gt;A10</title>
<path fill="none" stroke="#9467bd" stroke-width="2" d="M242,-143.697C242,-135.983 242,-126.712 242,-118.112"/>
<polygon fill="#9467bd" stroke="#9467bd" points="245.5,-118.104 242,-108.104 238.5,-118.104 245.5,-118.104"/>
</g>
<!-- C15 -->
<g id="node17" class="node"><title>C15</title>
<text text-anchor="middle" x="170" y="-83.1992" font-family="arial" font-size="16.00">C15</text>
</g>
<!-- A9&#45;&gt;C15 -->
<g id="edge16" class="edge"><title>A9&#45;&gt;C15</title>
<path fill="none" stroke="#9467bd" stroke-width="2" d="M224.202,-143.697C215.396,-135.135 204.618,-124.656 194.999,-115.304"/>
<polygon fill="#9467bd" stroke="#9467bd" points="197.203,-112.566 187.593,-108.104 192.323,-117.585 197.203,-112.566"/>
</g>
<!-- C14&#45;&gt;C15 -->
<g id="edge23" class="edge"><title>C14&#45;&gt;C15</title>
<path fill="none" stroke="#bcbd22" stroke-width="2" d="M170,-143.697C170,-135.983 170,-126.712 170,-118.112"/>
<polygon fill="#bcbd22" stroke="#bcbd22" points="173.5,-118.104 170,-108.104 166.5,-118.104 173.5,-118.104"/>
</g>
<!-- C16 -->
<g id="node23" class="node"><title>C16</title>
<text text-anchor="middle" x="170" y="-11.1992" font-family="arial" font-size="16.00">C16</text>
</g>
<!-- C15&#45;&gt;C16 -->
<g id="edge24" class="edge"><title>C15&#45;&gt;C16</title>
<path fill="none" stroke="#bcbd22" stroke-width="2" d="M170,-71.6966C170,-63.9827 170,-54.7125 170,-46.1124"/>
<polygon fill="#bcbd22" stroke="#bcbd22" points="173.5,-46.1043 170,-36.1043 166.5,-46.1044 173.5,-46.1043"/>
</g>
<!-- C1 -->
<g id="node18" class="node"><title>C1</title>
<text text-anchor="middle" x="414" y="-1163.2" font-family="arial" font-size="16.00">C1</text>
</g>
<!-- C2 -->
<g id="node19" class="node"><title>C2</title>
<text text-anchor="middle" x="414" y="-1091.2" font-family="arial" font-size="16.00">C2</text>
</g>
<!-- C1&#45;&gt;C2 -->
<g id="edge17" class="edge"><title>C1&#45;&gt;C2</title>
<path fill="none" stroke="#bcbd22" stroke-width="2" d="M414,-1151.7C414,-1143.98 414,-1134.71 414,-1126.11"/>
<polygon fill="#bcbd22" stroke="#bcbd22" points="417.5,-1126.1 414,-1116.1 410.5,-1126.1 417.5,-1126.1"/>
</g>
<!-- C3&#45;G5 -->
<g id="node24" class="node"><title>C3&#45;G5</title>
<text text-anchor="middle" x="414" y="-1019.2" font-family="arial" font-size="16.00">C3&#45;G5</text>
</g>
<!-- C2&#45;&gt;C3&#45;G5 -->
<g id="edge25" class="edge"><title>C2&#45;&gt;C3&#45;G5</title>
<path fill="none" stroke="#bcbd22" stroke-width="2" d="M414,-1079.7C414,-1071.98 414,-1062.71 414,-1054.11"/>
<polygon fill="#bcbd22" stroke="#bcbd22" points="417.5,-1054.1 414,-1044.1 410.5,-1054.1 417.5,-1054.1"/>
</g>
<!-- C13 -->
<g id="node21" class="node"><title>C13</title>
<text text-anchor="middle" x="120" y="-227.199" font-family="arial" font-size="16.00">C13</text>
</g>
<!-- C12&#45;&gt;C13 -->
<g id="edge20" class="edge"><title>C12&#45;&gt;C13</title>
<path fill="none" stroke="#bcbd22" stroke-width="2" d="M95.3775,-359.871C100.171,-335.564 108.993,-290.819 114.673,-262.013"/>
<polygon fill="#bcbd22" stroke="#bcbd22" points="118.11,-262.677 116.611,-252.189 111.242,-261.323 118.11,-262.677"/>
</g>
<!-- F6 -->
<g id="node22" class="node"><title>F6</title>
<text text-anchor="middle" x="65" y="-299.199" font-family="arial" font-size="16.00">F6</text>
</g>
<!-- C12&#45;&gt;F6 -->
<g id="edge21" class="edge"><title>C12&#45;&gt;F6</title>
<path fill="none" stroke="#bcbd22" stroke-width="2" d="M85.3258,-359.697C82.2851,-351.813 78.6173,-342.304 75.2393,-333.546"/>
<polygon fill="#bcbd22" stroke="#bcbd22" points="78.4617,-332.175 71.5974,-324.104 71.9307,-334.694 78.4617,-332.175"/>
</g>
<!-- C13&#45;&gt;C14 -->
<g id="edge22" class="edge"><title>C13&#45;&gt;C14</title>
<path fill="none" stroke="#bcbd22" stroke-width="2" d="M132.36,-215.697C138.233,-207.474 145.369,-197.483 151.842,-188.421"/>
<polygon fill="#bcbd22" stroke="#bcbd22" points="154.818,-190.276 157.783,-180.104 149.122,-186.207 154.818,-190.276"/>
</g>
<!-- F6&#45;&gt;C13 -->
<g id="edge53" class="edge"><title>F6&#45;&gt;C13</title>
<path fill="none" stroke="#2ca02c" stroke-width="2" d="M78.5955,-287.697C85.1227,-279.389 93.068,-269.277 100.247,-260.141"/>
<polygon fill="#2ca02c" stroke="#2ca02c" points="103.135,-262.13 106.561,-252.104 97.6305,-257.805 103.135,-262.13"/>
</g>
<!-- C4 -->
<g id="node25" class="node"><title>C4</title>
<text text-anchor="middle" x="426" y="-947.199" font-family="arial" font-size="16.00">C4</text>
</g>
<!-- C3&#45;G5&#45;&gt;C4 -->
<g id="edge26" class="edge"><title>C3&#45;G5&#45;&gt;C4</title>
<path fill="none" stroke="#bcbd22" stroke-width="2" d="M416.966,-1007.7C418.289,-999.983 419.878,-990.712 421.352,-982.112"/>
<polygon fill="#bcbd22" stroke="#bcbd22" points="424.828,-982.552 423.068,-972.104 417.928,-981.369 424.828,-982.552"/>
</g>
<!-- G6 -->
<g id="node29" class="node"><title>G6</title>
<text text-anchor="middle" x="467" y="-731.199" font-family="arial" font-size="16.00">G6</text>
</g>
<!-- C3&#45;G5&#45;&gt;G6 -->
<g id="edge62" class="edge"><title>C3&#45;G5&#45;&gt;G6</title>
<path fill="none" stroke="#d62728" stroke-width="2" d="M435.584,-1007.74C445.601,-998.352 456.492,-985.841 462,-972 489.777,-902.192 479.888,-811.066 472.362,-766.276"/>
<polygon fill="#d62728" stroke="#d62728" points="475.763,-765.414 470.57,-756.18 468.871,-766.637 475.763,-765.414"/>
</g>
<!-- C5 -->
<g id="node26" class="node"><title>C5</title>
<text text-anchor="middle" x="427" y="-875.199" font-family="arial" font-size="16.00">C5</text>
</g>
<!-- C4&#45;&gt;C5 -->
<g id="edge27" class="edge"><title>C4&#45;&gt;C5</title>
<path fill="none" stroke="#bcbd22" stroke-width="2" d="M426.247,-935.697C426.357,-927.983 426.49,-918.712 426.613,-910.112"/>
<polygon fill="#bcbd22" stroke="#bcbd22" points="430.112,-910.153 426.756,-900.104 423.113,-910.053 430.112,-910.153"/>
</g>
<!-- C6 -->
<g id="node27" class="node"><title>C6</title>
<text text-anchor="middle" x="429" y="-803.199" font-family="arial" font-size="16.00">C6</text>
</g>
<!-- C5&#45;&gt;C6 -->
<g id="edge28" class="edge"><title>C5&#45;&gt;C6</title>
<path fill="none" stroke="#bcbd22" stroke-width="2" d="M427.494,-863.697C427.715,-855.983 427.98,-846.712 428.225,-838.112"/>
<polygon fill="#bcbd22" stroke="#bcbd22" points="431.724,-838.2 428.511,-828.104 424.727,-838 431.724,-838.2"/>
</g>
<!-- C7 -->
<g id="node28" class="node"><title>C7</title>
<text text-anchor="middle" x="103" y="-731.199" font-family="arial" font-size="16.00">C7</text>
</g>
<!-- C6&#45;&gt;C7 -->
<g id="edge29" class="edge"><title>C6&#45;&gt;C7</title>
<path fill="none" stroke="#bcbd22" stroke-width="2" d="M401.819,-795.129C398.889,-793.947 395.913,-792.873 393,-792 286.869,-760.215 250.297,-787.095 140.015,-755.762"/>
<polygon fill="#bcbd22" stroke="#bcbd22" points="140.762,-752.333 130.181,-752.871 138.788,-759.049 140.762,-752.333"/>
</g>
<!-- C6&#45;&gt;G6 -->
<g id="edge30" class="edge"><title>C6&#45;&gt;G6</title>
<path fill="none" stroke="#bcbd22" stroke-width="2" d="M438.393,-791.697C442.765,-783.644 448.057,-773.894 452.895,-764.982"/>
<polygon fill="#bcbd22" stroke="#bcbd22" points="456.02,-766.563 457.715,-756.104 449.868,-763.223 456.02,-766.563"/>
</g>
<!-- C8 -->
<g id="node30" class="node"><title>C8</title>
<text text-anchor="middle" x="111" y="-659.199" font-family="arial" font-size="16.00">C8</text>
</g>
<!-- C7&#45;&gt;C8 -->
<g id="edge31" class="edge"><title>C7&#45;&gt;C8</title>
<path fill="none" stroke="#bcbd22" stroke-width="2" d="M104.978,-719.697C105.859,-711.983 106.919,-702.712 107.901,-694.112"/>
<polygon fill="#bcbd22" stroke="#bcbd22" points="111.387,-694.437 109.045,-684.104 104.432,-693.642 111.387,-694.437"/>
</g>
<!-- F5 -->
<g id="node31" class="node"><title>F5</title>
<text text-anchor="middle" x="39" y="-659.199" font-family="arial" font-size="16.00">F5</text>
</g>
<!-- C7&#45;&gt;F5 -->
<g id="edge32" class="edge"><title>C7&#45;&gt;F5</title>
<path fill="none" stroke="#bcbd22" stroke-width="2" d="M87.1798,-719.697C79.4295,-711.22 69.961,-700.864 61.4755,-691.583"/>
<polygon fill="#bcbd22" stroke="#bcbd22" points="63.9691,-689.123 54.6382,-684.104 58.8029,-693.846 63.9691,-689.123"/>
</g>
<!-- G7 -->
<g id="node50" class="node"><title>G7</title>
<text text-anchor="middle" x="439" y="-659.199" font-family="arial" font-size="16.00">G7</text>
</g>
<!-- G6&#45;&gt;G7 -->
<g id="edge63" class="edge"><title>G6&#45;&gt;G7</title>
<path fill="none" stroke="#d62728" stroke-width="2" d="M460.079,-719.697C456.925,-711.813 453.122,-702.304 449.619,-693.546"/>
<polygon fill="#d62728" stroke="#d62728" points="452.805,-692.089 445.842,-684.104 446.306,-694.689 452.805,-692.089"/>
</g>
<!-- C9 -->
<g id="node32" class="node"><title>C9</title>
<text text-anchor="middle" x="111" y="-587.199" font-family="arial" font-size="16.00">C9</text>
</g>
<!-- C8&#45;&gt;C9 -->
<g id="edge33" class="edge"><title>C8&#45;&gt;C9</title>
<path fill="none" stroke="#bcbd22" stroke-width="2" d="M111,-647.697C111,-639.983 111,-630.712 111,-622.112"/>
<polygon fill="#bcbd22" stroke="#bcbd22" points="114.5,-622.104 111,-612.104 107.5,-622.104 114.5,-622.104"/>
</g>
<!-- F5&#45;&gt;F6 -->
<g id="edge52" class="edge"><title>F5&#45;&gt;F6</title>
<path fill="none" stroke="#2ca02c" stroke-width="2" d="M34.7503,-647.634C28.6141,-620.993 18,-568.356 18,-523 18,-523 18,-523 18,-449 18,-406.955 36.8004,-361.293 50.6201,-333.407"/>
<polygon fill="#2ca02c" stroke="#2ca02c" points="53.8297,-334.817 55.2616,-324.32 47.5958,-331.633 53.8297,-334.817"/>
</g>
<!-- C9&#45;&gt;C10 -->
<g id="edge34" class="edge"><title>C9&#45;&gt;C10</title>
<path fill="none" stroke="#bcbd22" stroke-width="2" d="M111,-575.697C111,-567.983 111,-558.712 111,-550.112"/>
<polygon fill="#bcbd22" stroke="#bcbd22" points="114.5,-550.104 111,-540.104 107.5,-550.104 114.5,-550.104"/>
</g>
<!-- E1 -->
<g id="node33" class="node"><title>E1</title>
<text text-anchor="middle" x="478" y="-1307.2" font-family="arial" font-size="16.00">E1</text>
</g>
<!-- E2&#45;G2 -->
<g id="node34" class="node"><title>E2&#45;G2</title>
<text text-anchor="middle" x="315" y="-1235.2" font-family="arial" font-size="16.00">E2&#45;G2</text>
</g>
<!-- E1&#45;&gt;E2&#45;G2 -->
<g id="edge35" class="edge"><title>E1&#45;&gt;E2&#45;G2</title>
<path fill="none" stroke="#1f77b4" stroke-width="2" d="M450.717,-1301.28C424.712,-1290.12 385.228,-1273.16 355.541,-1260.41"/>
<polygon fill="#1f77b4" stroke="#1f77b4" points="356.845,-1257.16 346.276,-1256.43 354.083,-1263.59 356.845,-1257.16"/>
</g>
<!-- NA4 -->
<g id="node35" class="node"><title>NA4</title>
<text text-anchor="middle" x="581" y="-587.199" font-family="arial" font-size="16.00">NA4</text>
</g>
<!-- E1&#45;&gt;NA4 -->
<g id="edge36" class="edge"><title>E1&#45;&gt;NA4</title>
<path fill="none" stroke="#1f77b4" stroke-width="2" d="M501.193,-1295.61C530.734,-1271.28 578,-1224.07 578,-1171 578,-1171 578,-1171 578,-737 578,-696.987 579.205,-650.646 580.088,-622.076"/>
<polygon fill="#1f77b4" stroke="#1f77b4" points="583.587,-622.153 580.407,-612.047 576.591,-621.93 583.587,-622.153"/>
</g>
<!-- E2&#45;G2&#45;&gt;C3&#45;G5 -->
<g id="edge37" class="edge"><title>E2&#45;G2&#45;&gt;C3&#45;G5</title>
<path fill="none" stroke="#1f77b4" stroke-width="2" d="M320.407,-1223.52C330.053,-1193.35 351.701,-1129.93 378,-1080 382.925,-1070.65 389.152,-1060.94 395.037,-1052.43"/>
<polygon fill="#1f77b4" stroke="#1f77b4" points="398.047,-1054.23 400.977,-1044.05 392.337,-1050.18 398.047,-1054.23"/>
</g>
<!-- E3 -->
<g id="node36" class="node"><title>E3</title>
<text text-anchor="middle" x="256" y="-875.199" font-family="arial" font-size="16.00">E3</text>
</g>
<!-- E2&#45;G2&#45;&gt;E3 -->
<g id="edge38" class="edge"><title>E2&#45;G2&#45;&gt;E3</title>
<path fill="none" stroke="#1f77b4" stroke-width="2" d="M311.155,-1223.61C305.603,-1196.94 296,-1144.27 296,-1099 296,-1099 296,-1099 296,-1025 296,-983.484 279.963,-937.612 268.198,-909.545"/>
<polygon fill="#1f77b4" stroke="#1f77b4" points="271.275,-907.842 264.095,-900.051 264.85,-910.619 271.275,-907.842"/>
</g>
<!-- G3 -->
<g id="node47" class="node"><title>G3</title>
<text text-anchor="middle" x="175" y="-1163.2" font-family="arial" font-size="16.00">G3</text>
</g>
<!-- E2&#45;G2&#45;&gt;G3 -->
<g id="edge55" class="edge"><title>E2&#45;G2&#45;&gt;G3</title>
<path fill="none" stroke="#d62728" stroke-width="2" d="M283.929,-1225.46C262.501,-1214.75 233.937,-1200.47 211.435,-1189.22"/>
<polygon fill="#d62728" stroke="#d62728" points="212.711,-1185.94 202.201,-1184.6 209.58,-1192.2 212.711,-1185.94"/>
</g>
<!-- CN1 -->
<g id="node37" class="node"><title>CN1</title>
<text text-anchor="middle" x="365" y="-587.199" font-family="arial" font-size="16.00">CN1</text>
</g>
<!-- E3&#45;&gt;CN1 -->
<g id="edge39" class="edge"><title>E3&#45;&gt;CN1</title>
<path fill="none" stroke="#1f77b4" stroke-width="2" d="M265.596,-863.612C271.045,-853.4 277.795,-840.15 283,-828 314.27,-755.015 343.202,-665.72 356.821,-621.887"/>
<polygon fill="#1f77b4" stroke="#1f77b4" points="360.189,-622.841 359.794,-612.253 353.5,-620.776 360.189,-622.841"/>
</g>
<!-- E4 -->
<g id="node38" class="node"><title>E4</title>
<text text-anchor="middle" x="175" y="-803.199" font-family="arial" font-size="16.00">E4</text>
</g>
<!-- E3&#45;&gt;E4 -->
<g id="edge40" class="edge"><title>E3&#45;&gt;E4</title>
<path fill="none" stroke="#1f77b4" stroke-width="2" d="M235.978,-863.697C225.874,-854.965 213.464,-844.24 202.482,-834.75"/>
<polygon fill="#1f77b4" stroke="#1f77b4" points="204.647,-831.995 194.792,-828.104 200.07,-837.291 204.647,-831.995"/>
</g>
<!-- F4 -->
<g id="node39" class="node"><title>F4</title>
<text text-anchor="middle" x="65" y="-803.199" font-family="arial" font-size="16.00">F4</text>
</g>
<!-- E3&#45;&gt;F4 -->
<g id="edge41" class="edge"><title>E3&#45;&gt;F4</title>
<path fill="none" stroke="#1f77b4" stroke-width="2" d="M228.634,-870.971C195.209,-858.721 138.548,-837.955 101.452,-824.359"/>
<polygon fill="#1f77b4" stroke="#1f77b4" points="102.6,-821.053 92.0063,-820.898 100.191,-827.625 102.6,-821.053"/>
</g>
<!-- E5 -->
<g id="node40" class="node"><title>E5</title>
<text text-anchor="middle" x="175" y="-731.199" font-family="arial" font-size="16.00">E5</text>
</g>
<!-- E4&#45;&gt;E5 -->
<g id="edge42" class="edge"><title>E4&#45;&gt;E5</title>
<path fill="none" stroke="#1f77b4" stroke-width="2" d="M175,-791.697C175,-783.983 175,-774.712 175,-766.112"/>
<polygon fill="#1f77b4" stroke="#1f77b4" points="178.5,-766.104 175,-756.104 171.5,-766.104 178.5,-766.104"/>
</g>
<!-- F4&#45;&gt;C7 -->
<g id="edge50" class="edge"><title>F4&#45;&gt;C7</title>
<path fill="none" stroke="#2ca02c" stroke-width="2" d="M74.3933,-791.697C78.7649,-783.644 84.0573,-773.894 88.8953,-764.982"/>
<polygon fill="#2ca02c" stroke="#2ca02c" points="92.0198,-766.563 93.7148,-756.104 85.8678,-763.223 92.0198,-766.563"/>
</g>
<!-- F4&#45;&gt;F5 -->
<g id="edge51" class="edge"><title>F4&#45;&gt;F5</title>
<path fill="none" stroke="#2ca02c" stroke-width="2" d="M61.8638,-791.871C57.4326,-767.67 49.2921,-723.211 44.0157,-694.393"/>
<polygon fill="#2ca02c" stroke="#2ca02c" points="47.3912,-693.395 42.1473,-684.189 40.5057,-694.656 47.3912,-693.395"/>
</g>
<!-- E5&#45;&gt;E6 -->
<g id="edge43" class="edge"><title>E5&#45;&gt;E6</title>
<path fill="none" stroke="#1f77b4" stroke-width="2" d="M195.918,-719.958C206.521,-710.363 218.844,-697.597 227,-684 238.547,-664.752 245.797,-640.264 250.019,-621.849"/>
<polygon fill="#1f77b4" stroke="#1f77b4" points="253.445,-622.565 252.113,-612.054 246.6,-621.102 253.445,-622.565"/>
</g>
<!-- E8 -->
<g id="node42" class="node"><title>E8</title>
<text text-anchor="middle" x="200" y="-443.199" font-family="arial" font-size="16.00">E8</text>
</g>
<!-- E7&#45;&gt;E8 -->
<g id="edge45" class="edge"><title>E7&#45;&gt;E8</title>
<path fill="none" stroke="#1f77b4" stroke-width="2" d="M204.517,-503.697C203.856,-495.983 203.061,-486.712 202.324,-478.112"/>
<polygon fill="#1f77b4" stroke="#1f77b4" points="205.807,-477.769 201.466,-468.104 198.833,-478.367 205.807,-477.769"/>
</g>
<!-- E8&#45;&gt;E9 -->
<g id="edge46" class="edge"><title>E8&#45;&gt;E9</title>
<path fill="none" stroke="#1f77b4" stroke-width="2" d="M204.697,-431.697C206.813,-423.898 209.362,-414.509 211.718,-405.829"/>
<polygon fill="#1f77b4" stroke="#1f77b4" points="215.116,-406.672 214.357,-396.104 208.36,-404.838 215.116,-406.672"/>
</g>
<!-- F1 -->
<g id="node43" class="node"><title>F1</title>
<text text-anchor="middle" x="27" y="-1019.2" font-family="arial" font-size="16.00">F1</text>
</g>
<!-- F2 -->
<g id="node44" class="node"><title>F2</title>
<text text-anchor="middle" x="65" y="-947.199" font-family="arial" font-size="16.00">F2</text>
</g>
<!-- F1&#45;&gt;F2 -->
<g id="edge47" class="edge"><title>F1&#45;&gt;F2</title>
<path fill="none" stroke="#2ca02c" stroke-width="2" d="M36.3933,-1007.7C40.7649,-999.644 46.0573,-989.894 50.8953,-980.982"/>
<polygon fill="#2ca02c" stroke="#2ca02c" points="54.0198,-982.563 55.7148,-972.104 47.8678,-979.223 54.0198,-982.563"/>
</g>
<!-- F3 -->
<g id="node45" class="node"><title>F3</title>
<text text-anchor="middle" x="65" y="-875.199" font-family="arial" font-size="16.00">F3</text>
</g>
<!-- F2&#45;&gt;F3 -->
<g id="edge48" class="edge"><title>F2&#45;&gt;F3</title>
<path fill="none" stroke="#2ca02c" stroke-width="2" d="M65,-935.697C65,-927.983 65,-918.712 65,-910.112"/>
<polygon fill="#2ca02c" stroke="#2ca02c" points="68.5001,-910.104 65,-900.104 61.5001,-910.104 68.5001,-910.104"/>
</g>
<!-- F3&#45;&gt;F4 -->
<g id="edge49" class="edge"><title>F3&#45;&gt;F4</title>
<path fill="none" stroke="#2ca02c" stroke-width="2" d="M65,-863.697C65,-855.983 65,-846.712 65,-838.112"/>
<polygon fill="#2ca02c" stroke="#2ca02c" points="68.5001,-838.104 65,-828.104 61.5001,-838.104 68.5001,-838.104"/>
</g>
<!-- G1 -->
<g id="node46" class="node"><title>G1</title>
<text text-anchor="middle" x="315" y="-1307.2" font-family="arial" font-size="16.00">G1</text>
</g>
<!-- G1&#45;&gt;E2&#45;G2 -->
<g id="edge54" class="edge"><title>G1&#45;&gt;E2&#45;G2</title>
<path fill="none" stroke="#d62728" stroke-width="2" d="M315,-1295.7C315,-1287.98 315,-1278.71 315,-1270.11"/>
<polygon fill="#d62728" stroke="#d62728" points="318.5,-1270.1 315,-1260.1 311.5,-1270.1 318.5,-1270.1"/>
</g>
<!-- G3&#45;&gt;C7 -->
<g id="edge56" class="edge"><title>G3&#45;&gt;C7</title>
<path fill="none" stroke="#d62728" stroke-width="2" d="M163.604,-1151.9C147.494,-1126.02 120,-1074.85 120,-1027 120,-1027 120,-1027 120,-881 120,-840.931 113.244,-794.949 108.25,-766.433"/>
<polygon fill="#d62728" stroke="#d62728" points="111.661,-765.627 106.44,-756.408 104.773,-766.871 111.661,-765.627"/>
</g>
<!-- G3&#45;&gt;E4 -->
<g id="edge57" class="edge"><title>G3&#45;&gt;E4</title>
<path fill="none" stroke="#d62728" stroke-width="2" d="M175,-1151.95C175,-1125.29 175,-1072.11 175,-1027 175,-1027 175,-1027 175,-953 175,-912.996 175,-866.653 175,-838.08"/>
<polygon fill="#d62728" stroke="#d62728" points="178.5,-838.049 175,-828.049 171.5,-838.049 178.5,-838.049"/>
</g>
<!-- G3&#45;&gt;F2 -->
<g id="edge58" class="edge"><title>G3&#45;&gt;F2</title>
<path fill="none" stroke="#d62728" stroke-width="2" d="M147.792,-1154.17C133.35,-1144.98 116.471,-1131.89 106,-1116 78.7932,-1074.71 69.6387,-1016.51 66.5595,-982.575"/>
<polygon fill="#d62728" stroke="#d62728" points="70.0372,-982.153 65.7581,-972.461 63.059,-982.706 70.0372,-982.153"/>
</g>
<!-- G4 -->
<g id="node48" class="node"><title>G4</title>
<text text-anchor="middle" x="233" y="-1091.2" font-family="arial" font-size="16.00">G4</text>
</g>
<!-- G3&#45;&gt;G4 -->
<g id="edge59" class="edge"><title>G3&#45;&gt;G4</title>
<path fill="none" stroke="#d62728" stroke-width="2" d="M189.337,-1151.7C196.291,-1143.3 204.77,-1133.07 212.401,-1123.86"/>
<polygon fill="#d62728" stroke="#d62728" points="215.143,-1126.04 218.828,-1116.1 209.753,-1121.57 215.143,-1126.04"/>
</g>
<!-- G4a -->
<g id="node49" class="node"><title>G4a</title>
<text text-anchor="middle" x="233" y="-1019.2" font-family="arial" font-size="16.00">G4a</text>
</g>
<!-- G4&#45;&gt;G4a -->
<g id="edge60" class="edge"><title>G4&#45;&gt;G4a</title>
<path fill="none" stroke="#d62728" stroke-width="2" d="M233,-1079.7C233,-1071.98 233,-1062.71 233,-1054.11"/>
<polygon fill="#d62728" stroke="#d62728" points="236.5,-1054.1 233,-1044.1 229.5,-1054.1 236.5,-1054.1"/>
</g>
<!-- G4&#45;&gt;C3&#45;G5 -->
<g id="edge61" class="edge"><title>G4&#45;&gt;C3&#45;G5</title>
<path fill="none" stroke="#d62728" stroke-width="2" d="M260.098,-1086.52C290.025,-1074.95 338.543,-1056.18 373.1,-1042.82"/>
<polygon fill="#d62728" stroke="#d62728" points="374.385,-1046.07 382.45,-1039.2 371.86,-1039.54 374.385,-1046.07"/>
</g>
<!-- G7&#45;&gt;CN1 -->
<g id="edge64" class="edge"><title>G7&#45;&gt;CN1</title>
<path fill="none" stroke="#d62728" stroke-width="2" d="M420.708,-647.697C411.567,-639.05 400.36,-628.449 390.4,-619.027"/>
<polygon fill="#d62728" stroke="#d62728" points="392.752,-616.434 383.082,-612.104 387.941,-621.519 392.752,-616.434"/>
</g>
<!-- G8 -->
<g id="node51" class="node"><title>G8</title>
<text text-anchor="middle" x="437" y="-587.199" font-family="arial" font-size="16.00">G8</text>
</g>
<!-- G7&#45;&gt;G8 -->
<g id="edge65" class="edge"><title>G7&#45;&gt;G8</title>
<path fill="none" stroke="#d62728" stroke-width="2" d="M438.506,-647.697C438.285,-639.983 438.02,-630.712 437.775,-622.112"/>
<polygon fill="#d62728" stroke="#d62728" points="441.273,-622 437.489,-612.104 434.276,-622.2 441.273,-622"/>
</g>
<!-- V1 -->
<g id="node52" class="node"><title>V1</title>
<text text-anchor="middle" x="509" y="-587.199" font-family="arial" font-size="16.00">V1</text>
</g>
<!-- G7&#45;&gt;V1 -->
<g id="edge66" class="edge"><title>G7&#45;&gt;V1</title>
<path fill="none" stroke="#d62728" stroke-width="2" d="M456.303,-647.697C464.865,-639.135 475.344,-628.656 484.696,-619.304"/>
<polygon fill="#d62728" stroke="#d62728" points="487.299,-621.65 491.896,-612.104 482.35,-616.701 487.299,-621.65"/>
</g>
<!-- G9 -->
<g id="node53" class="node"><title>G9</title>
<text text-anchor="middle" x="437" y="-515.199" font-family="arial" font-size="16.00">G9</text>
</g>
<!-- G8&#45;&gt;G9 -->
<g id="edge67" class="edge"><title>G8&#45;&gt;G9</title>
<path fill="none" stroke="#d62728" stroke-width="2" d="M437,-575.697C437,-567.983 437,-558.712 437,-550.112"/>
<polygon fill="#d62728" stroke="#d62728" points="440.5,-550.104 437,-540.104 433.5,-550.104 440.5,-550.104"/>
</g>
<!-- NA3 -->
<g id="node55" class="node"><title>NA3</title>
<text text-anchor="middle" x="519" y="-659.199" font-family="arial" font-size="16.00">NA3</text>
</g>
<!-- NA2&#45;&gt;NA3 -->
<g id="edge70" class="edge"><title>NA2&#45;&gt;NA3</title>
<path fill="none" stroke="#17becf" stroke-width="2" d="M422.212,-721.638C440.06,-711.563 463.595,-698.277 482.988,-687.329"/>
<polygon fill="#17becf" stroke="#17becf" points="484.863,-690.29 491.851,-682.326 481.422,-684.194 484.863,-690.29"/>
</g>
<!-- NA3&#45;&gt;NA4 -->
<g id="edge71" class="edge"><title>NA3&#45;&gt;NA4</title>
<path fill="none" stroke="#17becf" stroke-width="2" d="M534.326,-647.697C541.759,-639.305 550.823,-629.07 558.98,-619.861"/>
<polygon fill="#17becf" stroke="#17becf" points="561.84,-621.911 565.85,-612.104 556.6,-617.27 561.84,-621.911"/>
</g>
<!-- NA5 -->
<g id="node56" class="node"><title>NA5</title>
<text text-anchor="middle" x="641" y="-1307.2" font-family="arial" font-size="16.00">NA5</text>
</g>
<!-- NA6 -->
<g id="node57" class="node"><title>NA6</title>
<text text-anchor="middle" x="641" y="-1235.2" font-family="arial" font-size="16.00">NA6</text>
</g>
<!-- NA5&#45;&gt;NA6 -->
<g id="edge72" class="edge"><title>NA5&#45;&gt;NA6</title>
<path fill="none" stroke="#17becf" stroke-width="2" d="M641,-1295.7C641,-1287.98 641,-1278.71 641,-1270.11"/>
<polygon fill="#17becf" stroke="#17becf" points="644.5,-1270.1 641,-1260.1 637.5,-1270.1 644.5,-1270.1"/>
</g>
</g>
</svg>
